SplineFontDB: 3.2
FontName: ProtoFont
FullName: ProtoFont
FamilyName: ProtoFont
Weight: Regular
Copyright: Copyright (c) 2024, PsychoDuck Tech\nBy toxyz and GabiBrawl :3
UComments: "2024-10-31: Created with FontForge (http://fontforge.org)"
Version: 001.000
ItalicAngle: 0
UnderlinePosition: -100
UnderlineWidth: 50
Ascent: 800
Descent: 200
InvalidEm: 0
LayerCount: 2
Layer: 0 0 "Back" 1
Layer: 1 0 "Fore" 0
XUID: [1021 791 363391415 11149]
StyleMap: 0x0000
FSType: 0
OS2Version: 0
OS2_WeightWidthSlopeOnly: 0
OS2_UseTypoMetrics: 1
CreationTime: 1730388839
ModificationTime: 1730462311
OS2TypoAscent: 0
OS2TypoAOffset: 1
OS2TypoDescent: 0
OS2TypoDOffset: 1
OS2TypoLinegap: 90
OS2WinAscent: 0
OS2WinAOffset: 1
OS2WinDescent: 0
OS2WinDOffset: 1
HheadAscent: 0
HheadAOffset: 1
HheadDescent: 0
HheadDOffset: 1
OS2Vendor: 'PfEd'
MarkAttachClasses: 1
DEI: 91125
Encoding: ISO8859-1
UnicodeInterp: none
NameList: AGL For New Fonts
DisplaySize: -48
AntiAlias: 1
FitToEm: 0
WinInfo: 0 31 10
BeginPrivate: 0
EndPrivate
BeginChars: 256 62

StartChar: A
Encoding: 65 65 0
Width: 729
Flags: HW
LayerCount: 2
Fore
SplineSet
137 599.182617188 m 2
 591.081054688 599.182617188 l 2
 616.236328125 599.182617188 636.489257812 578.930664062 636.489257812 553.774414062 c 2
 636.489257812 526.529296875 l 2
 636.489257812 501.373046875 616.236328125 481.12109375 591.081054688 481.12109375 c 2
 137 481.12109375 l 2
 111.84375 481.12109375 91.5927734375 501.373046875 91.5927734375 526.529296875 c 2
 91.5927734375 553.774414062 l 2
 91.5927734375 578.930664062 111.84375 599.182617188 137 599.182617188 c 2
137 462.958007812 m 2
 227.815429688 462.958007812 l 2
 252.97265625 462.958007812 273.224609375 442.706054688 273.224609375 417.549804688 c 2
 273.224609375 390.305664062 l 2
 273.224609375 365.149414062 252.97265625 344.897460938 227.815429688 344.897460938 c 2
 137 344.897460938 l 2
 111.84375 344.897460938 91.5927734375 365.149414062 91.5927734375 390.305664062 c 2
 91.5927734375 417.549804688 l 2
 91.5927734375 442.706054688 111.84375 462.958007812 137 462.958007812 c 2
500.265625 462.958007812 m 2
 591.081054688 462.958007812 l 2
 616.236328125 462.958007812 636.489257812 442.706054688 636.489257812 417.549804688 c 2
 636.489257812 390.305664062 l 2
 636.489257812 365.149414062 616.236328125 344.897460938 591.081054688 344.897460938 c 2
 500.265625 344.897460938 l 2
 475.109375 344.897460938 454.856445312 365.149414062 454.856445312 390.305664062 c 2
 454.856445312 417.549804688 l 2
 454.856445312 442.706054688 475.109375 462.958007812 500.265625 462.958007812 c 2
137 326.734375 m 2
 227.815429688 326.734375 l 2
 252.97265625 326.734375 273.224609375 306.482421875 273.224609375 281.326171875 c 2
 273.224609375 254.081054688 l 2
 273.224609375 228.924804688 252.97265625 208.672851562 227.815429688 208.672851562 c 2
 137 208.672851562 l 2
 111.84375 208.672851562 91.5927734375 228.924804688 91.5927734375 254.081054688 c 2
 91.5927734375 281.326171875 l 2
 91.5927734375 306.482421875 111.84375 326.734375 137 326.734375 c 2
500.265625 326.734375 m 2
 591.081054688 326.734375 l 2
 616.159179688 326.734375 636.489257812 306.404296875 636.489257812 281.326171875 c 2
 636.489257812 254.081054688 l 2
 636.489257812 229.002929688 616.159179688 208.672851562 591.081054688 208.672851562 c 2
 500.265625 208.672851562 l 2
 475.186523438 208.672851562 454.856445312 229.002929688 454.856445312 254.081054688 c 2
 454.856445312 281.326171875 l 2
 454.856445312 306.404296875 475.186523438 326.734375 500.265625 326.734375 c 2
137 190.509765625 m 2
 591.081054688 190.509765625 l 2
 616.236328125 190.509765625 636.489257812 170.2578125 636.489257812 145.1015625 c 2
 636.489257812 117.856445312 l 2
 636.489257812 92.701171875 616.236328125 72.44921875 591.081054688 72.44921875 c 2
 137 72.44921875 l 2
 111.84375 72.44921875 91.5927734375 92.701171875 91.5927734375 117.856445312 c 2
 91.5927734375 145.1015625 l 2
 91.5927734375 170.2578125 111.84375 190.509765625 137 190.509765625 c 2
137 54.28515625 m 2
 227.815429688 54.28515625 l 2
 252.97265625 54.28515625 273.224609375 34.033203125 273.224609375 8.876953125 c 2
 273.224609375 -18.3671875 l 2
 273.224609375 -43.5234375 252.97265625 -63.775390625 227.815429688 -63.775390625 c 2
 137 -63.775390625 l 2
 111.84375 -63.775390625 91.5927734375 -43.5234375 91.5927734375 -18.3671875 c 2
 91.5927734375 8.876953125 l 2
 91.5927734375 34.033203125 111.84375 54.28515625 137 54.28515625 c 2
500.265625 54.28515625 m 2
 591.081054688 54.28515625 l 2
 616.236328125 54.28515625 636.489257812 34.033203125 636.489257812 8.876953125 c 2
 636.489257812 -18.3671875 l 2
 636.489257812 -43.5234375 616.236328125 -63.775390625 591.081054688 -63.775390625 c 2
 500.265625 -63.775390625 l 2
 475.109375 -63.775390625 454.856445312 -43.5234375 454.856445312 -18.3671875 c 2
 454.856445312 8.876953125 l 2
 454.856445312 34.033203125 475.109375 54.28515625 500.265625 54.28515625 c 2
137 -81.9384765625 m 2
 227.815429688 -81.9384765625 l 2
 252.97265625 -81.9384765625 273.224609375 -102.190429688 273.224609375 -127.346679688 c 2
 273.224609375 -154.591796875 l 2
 273.224609375 -179.748046875 252.97265625 -200 227.815429688 -200 c 2
 137 -200 l 2
 111.84375 -200 91.5927734375 -179.748046875 91.5927734375 -154.591796875 c 2
 91.5927734375 -127.346679688 l 2
 91.5927734375 -102.190429688 111.84375 -81.9384765625 137 -81.9384765625 c 2
500.265625 -81.9384765625 m 2
 591.081054688 -81.9384765625 l 2
 616.236328125 -81.9384765625 636.489257812 -102.190429688 636.489257812 -127.346679688 c 2
 636.489257812 -154.591796875 l 2
 636.489257812 -179.748046875 616.236328125 -200 591.081054688 -200 c 2
 500.265625 -200 l 2
 475.109375 -200 454.856445312 -179.748046875 454.856445312 -154.591796875 c 2
 454.856445312 -127.346679688 l 2
 454.856445312 -102.190429688 475.109375 -81.9384765625 500.265625 -81.9384765625 c 2
EndSplineSet
EndChar

StartChar: B
Encoding: 66 66 1
Width: 747
Flags: HW
LayerCount: 2
Fore
SplineSet
139.408203125 599.182617188 m 2
 502.672851562 599.182617188 l 2
 527.829101562 599.182617188 548.081054688 578.930664062 548.081054688 553.774414062 c 2
 548.081054688 526.529296875 l 2
 548.081054688 501.373046875 527.829101562 481.12109375 502.672851562 481.12109375 c 2
 139.408203125 481.12109375 l 2
 114.251953125 481.12109375 94 501.373046875 94 526.529296875 c 2
 94 553.774414062 l 2
 94 578.930664062 114.251953125 599.182617188 139.408203125 599.182617188 c 2
139.408203125 462.958007812 m 2
 230.224609375 462.958007812 l 2
 255.380859375 462.958007812 275.631835938 442.706054688 275.631835938 417.549804688 c 2
 275.631835938 390.305664062 l 2
 275.631835938 365.149414062 255.380859375 344.897460938 230.224609375 344.897460938 c 2
 139.408203125 344.897460938 l 2
 114.251953125 344.897460938 94 365.149414062 94 390.305664062 c 2
 94 417.549804688 l 2
 94 442.706054688 114.251953125 462.958007812 139.408203125 462.958007812 c 2
502.672851562 462.958007812 m 2
 593.489257812 462.958007812 l 2
 618.64453125 462.958007812 638.897460938 442.706054688 638.897460938 417.549804688 c 2
 638.897460938 390.305664062 l 2
 638.897460938 365.149414062 618.64453125 344.897460938 593.489257812 344.897460938 c 2
 502.672851562 344.897460938 l 2
 477.517578125 344.897460938 457.264648438 365.149414062 457.264648438 390.305664062 c 2
 457.264648438 417.549804688 l 2
 457.264648438 442.706054688 477.517578125 462.958007812 502.672851562 462.958007812 c 2
139.408203125 326.734375 m 2
 502.672851562 326.734375 l 2
 527.829101562 326.734375 548.081054688 306.482421875 548.081054688 281.326171875 c 2
 548.081054688 254.081054688 l 2
 548.081054688 228.924804688 527.829101562 208.672851562 502.672851562 208.672851562 c 2
 139.408203125 208.672851562 l 2
 114.251953125 208.672851562 94 228.924804688 94 254.081054688 c 2
 94 281.326171875 l 2
 94 306.482421875 114.251953125 326.734375 139.408203125 326.734375 c 2
139.408203125 190.509765625 m 2
 230.224609375 190.509765625 l 2
 255.380859375 190.509765625 275.631835938 170.2578125 275.631835938 145.1015625 c 2
 275.631835938 117.856445312 l 2
 275.631835938 92.701171875 255.380859375 72.44921875 230.224609375 72.44921875 c 2
 139.408203125 72.44921875 l 2
 114.251953125 72.44921875 94 92.701171875 94 117.856445312 c 2
 94 145.1015625 l 2
 94 170.2578125 114.251953125 190.509765625 139.408203125 190.509765625 c 2
502.672851562 190.509765625 m 2
 593.489257812 190.509765625 l 2
 618.64453125 190.509765625 638.897460938 170.2578125 638.897460938 145.1015625 c 2
 638.897460938 117.856445312 l 2
 638.897460938 92.701171875 618.64453125 72.44921875 593.489257812 72.44921875 c 2
 502.672851562 72.44921875 l 2
 477.517578125 72.44921875 457.264648438 92.701171875 457.264648438 117.856445312 c 2
 457.264648438 145.1015625 l 2
 457.264648438 170.2578125 477.517578125 190.509765625 502.672851562 190.509765625 c 2
139.408203125 54.28515625 m 2
 230.224609375 54.28515625 l 2
 255.380859375 54.28515625 275.631835938 34.033203125 275.631835938 8.876953125 c 2
 275.631835938 -18.3671875 l 2
 275.631835938 -43.5234375 255.380859375 -63.775390625 230.224609375 -63.775390625 c 2
 139.408203125 -63.775390625 l 2
 114.251953125 -63.775390625 94 -43.5234375 94 -18.3671875 c 2
 94 8.876953125 l 2
 94 34.033203125 114.251953125 54.28515625 139.408203125 54.28515625 c 2
502.672851562 54.28515625 m 2
 593.489257812 54.28515625 l 2
 618.64453125 54.28515625 638.897460938 34.033203125 638.897460938 8.876953125 c 2
 638.897460938 -18.3671875 l 2
 638.897460938 -43.5234375 618.64453125 -63.775390625 593.489257812 -63.775390625 c 2
 502.672851562 -63.775390625 l 2
 477.517578125 -63.775390625 457.264648438 -43.5234375 457.264648438 -18.3671875 c 2
 457.264648438 8.876953125 l 2
 457.264648438 34.033203125 477.517578125 54.28515625 502.672851562 54.28515625 c 2
139.408203125 -81.9384765625 m 2
 502.672851562 -81.9384765625 l 2
 527.829101562 -81.9384765625 548.081054688 -102.190429688 548.081054688 -127.346679688 c 2
 548.081054688 -154.591796875 l 2
 548.081054688 -179.748046875 527.829101562 -200 502.672851562 -200 c 2
 139.408203125 -200 l 2
 114.251953125 -200 94 -179.748046875 94 -154.591796875 c 2
 94 -127.346679688 l 2
 94 -102.190429688 114.251953125 -81.9384765625 139.408203125 -81.9384765625 c 2
EndSplineSet
EndChar

StartChar: C
Encoding: 67 67 2
Width: 752
Flags: HW
LayerCount: 2
Fore
SplineSet
145.408203125 599.182617188 m 2
 599.489257812 599.182617188 l 2
 624.645507812 599.182617188 644.897460938 578.930664062 644.897460938 553.774414062 c 2
 644.897460938 526.529296875 l 2
 644.897460938 501.373046875 624.645507812 481.12109375 599.489257812 481.12109375 c 2
 145.408203125 481.12109375 l 2
 120.251953125 481.12109375 100 501.373046875 100 526.529296875 c 2
 100 553.774414062 l 2
 100 578.930664062 120.251953125 599.182617188 145.408203125 599.182617188 c 2
145.408203125 462.958007812 m 2
 236.224609375 462.958007812 l 2
 261.379882812 462.958007812 281.6328125 442.706054688 281.6328125 417.549804688 c 2
 281.6328125 390.305664062 l 2
 281.6328125 365.149414062 261.379882812 344.897460938 236.224609375 344.897460938 c 2
 145.408203125 344.897460938 l 2
 120.251953125 344.897460938 100 365.149414062 100 390.305664062 c 2
 100 417.549804688 l 2
 100 442.706054688 120.251953125 462.958007812 145.408203125 462.958007812 c 2
145.408203125 326.734375 m 2
 236.224609375 326.734375 l 2
 261.379882812 326.734375 281.6328125 306.482421875 281.6328125 281.326171875 c 2
 281.6328125 254.081054688 l 2
 281.6328125 228.924804688 261.379882812 208.672851562 236.224609375 208.672851562 c 2
 145.408203125 208.672851562 l 2
 120.251953125 208.672851562 100 228.924804688 100 254.081054688 c 2
 100 281.326171875 l 2
 100 306.482421875 120.251953125 326.734375 145.408203125 326.734375 c 2
145.408203125 190.509765625 m 2
 236.224609375 190.509765625 l 2
 261.379882812 190.509765625 281.6328125 170.2578125 281.6328125 145.1015625 c 2
 281.6328125 117.856445312 l 2
 281.6328125 92.701171875 261.379882812 72.44921875 236.224609375 72.44921875 c 2
 145.408203125 72.44921875 l 2
 120.251953125 72.44921875 100 92.701171875 100 117.856445312 c 2
 100 145.1015625 l 2
 100 170.2578125 120.251953125 190.509765625 145.408203125 190.509765625 c 2
145.408203125 54.28515625 m 2
 236.224609375 54.28515625 l 2
 261.379882812 54.28515625 281.6328125 34.033203125 281.6328125 8.876953125 c 2
 281.6328125 -18.3671875 l 2
 281.6328125 -43.5234375 261.379882812 -63.775390625 236.224609375 -63.775390625 c 2
 145.408203125 -63.775390625 l 2
 120.251953125 -63.775390625 100 -43.5234375 100 -18.3671875 c 2
 100 8.876953125 l 2
 100 34.033203125 120.251953125 54.28515625 145.408203125 54.28515625 c 2
145.408203125 -81.9384765625 m 2
 599.489257812 -81.9384765625 l 2
 624.645507812 -81.9384765625 644.897460938 -102.190429688 644.897460938 -127.346679688 c 2
 644.897460938 -154.591796875 l 2
 644.897460938 -179.748046875 624.645507812 -200 599.489257812 -200 c 2
 145.408203125 -200 l 2
 120.251953125 -200 100 -179.748046875 100 -154.591796875 c 2
 100 -127.346679688 l 2
 100 -102.190429688 120.251953125 -81.9384765625 145.408203125 -81.9384765625 c 2
EndSplineSet
EndChar

StartChar: D
Encoding: 68 68 3
Width: 733
Flags: HW
LayerCount: 2
Fore
SplineSet
138.408203125 599.182617188 m 2
 501.672851562 599.182617188 l 2
 526.829101562 599.182617188 547.081054688 578.930664062 547.081054688 553.774414062 c 2
 547.081054688 526.529296875 l 2
 547.081054688 501.373046875 526.829101562 481.12109375 501.672851562 481.12109375 c 2
 138.408203125 481.12109375 l 2
 113.251953125 481.12109375 93 501.373046875 93 526.529296875 c 2
 93 553.774414062 l 2
 93 578.930664062 113.251953125 599.182617188 138.408203125 599.182617188 c 2
138.408203125 462.958007812 m 2
 229.223632812 462.958007812 l 2
 254.380859375 462.958007812 274.631835938 442.706054688 274.631835938 417.549804688 c 2
 274.631835938 390.305664062 l 2
 274.631835938 365.149414062 254.380859375 344.897460938 229.223632812 344.897460938 c 2
 138.408203125 344.897460938 l 2
 113.251953125 344.897460938 93 365.149414062 93 390.305664062 c 2
 93 417.549804688 l 2
 93 442.706054688 113.251953125 462.958007812 138.408203125 462.958007812 c 2
501.672851562 462.958007812 m 2
 592.48828125 462.958007812 l 2
 617.64453125 462.958007812 637.896484375 442.706054688 637.896484375 417.549804688 c 2
 637.896484375 390.305664062 l 2
 637.896484375 365.149414062 617.64453125 344.897460938 592.48828125 344.897460938 c 2
 501.672851562 344.897460938 l 2
 476.516601562 344.897460938 456.264648438 365.149414062 456.264648438 390.305664062 c 2
 456.264648438 417.549804688 l 2
 456.264648438 442.706054688 476.516601562 462.958007812 501.672851562 462.958007812 c 2
138.408203125 326.734375 m 2
 229.223632812 326.734375 l 2
 254.380859375 326.734375 274.631835938 306.482421875 274.631835938 281.326171875 c 2
 274.631835938 254.081054688 l 2
 274.631835938 228.924804688 254.380859375 208.672851562 229.223632812 208.672851562 c 2
 138.408203125 208.672851562 l 2
 113.251953125 208.672851562 93 228.924804688 93 254.081054688 c 2
 93 281.326171875 l 2
 93 306.482421875 113.251953125 326.734375 138.408203125 326.734375 c 2
501.672851562 326.734375 m 2
 592.48828125 326.734375 l 2
 617.64453125 326.734375 637.896484375 306.482421875 637.896484375 281.326171875 c 2
 637.896484375 254.081054688 l 2
 637.896484375 228.924804688 617.64453125 208.672851562 592.48828125 208.672851562 c 2
 501.672851562 208.672851562 l 2
 476.516601562 208.672851562 456.264648438 228.924804688 456.264648438 254.081054688 c 2
 456.264648438 281.326171875 l 2
 456.264648438 306.482421875 476.516601562 326.734375 501.672851562 326.734375 c 2
138.408203125 190.509765625 m 2
 229.223632812 190.509765625 l 2
 254.380859375 190.509765625 274.631835938 170.2578125 274.631835938 145.1015625 c 2
 274.631835938 117.856445312 l 2
 274.631835938 92.701171875 254.380859375 72.44921875 229.223632812 72.44921875 c 2
 138.408203125 72.44921875 l 2
 113.251953125 72.44921875 93 92.701171875 93 117.856445312 c 2
 93 145.1015625 l 2
 93 170.2578125 113.251953125 190.509765625 138.408203125 190.509765625 c 2
501.672851562 190.509765625 m 2
 592.48828125 190.509765625 l 2
 617.64453125 190.509765625 637.896484375 170.2578125 637.896484375 145.1015625 c 2
 637.896484375 117.856445312 l 2
 637.896484375 92.701171875 617.64453125 72.44921875 592.48828125 72.44921875 c 2
 501.672851562 72.44921875 l 2
 476.516601562 72.44921875 456.264648438 92.701171875 456.264648438 117.856445312 c 2
 456.264648438 145.1015625 l 2
 456.264648438 170.2578125 476.516601562 190.509765625 501.672851562 190.509765625 c 2
138.408203125 54.28515625 m 2
 229.223632812 54.28515625 l 2
 254.380859375 54.28515625 274.631835938 34.033203125 274.631835938 8.876953125 c 2
 274.631835938 -18.3671875 l 2
 274.631835938 -43.5234375 254.380859375 -63.775390625 229.223632812 -63.775390625 c 2
 138.408203125 -63.775390625 l 2
 113.251953125 -63.775390625 93 -43.5234375 93 -18.3671875 c 2
 93 8.876953125 l 2
 93 34.033203125 113.251953125 54.28515625 138.408203125 54.28515625 c 2
501.672851562 54.28515625 m 2
 592.48828125 54.28515625 l 2
 617.64453125 54.28515625 637.896484375 34.033203125 637.896484375 8.876953125 c 2
 637.896484375 -18.3671875 l 2
 637.896484375 -43.5234375 617.64453125 -63.775390625 592.48828125 -63.775390625 c 2
 501.672851562 -63.775390625 l 2
 476.516601562 -63.775390625 456.264648438 -43.5234375 456.264648438 -18.3671875 c 2
 456.264648438 8.876953125 l 2
 456.264648438 34.033203125 476.516601562 54.28515625 501.672851562 54.28515625 c 2
138.408203125 -81.9384765625 m 2
 501.672851562 -81.9384765625 l 2
 526.829101562 -81.9384765625 547.081054688 -102.190429688 547.081054688 -127.346679688 c 2
 547.081054688 -154.591796875 l 2
 547.081054688 -179.748046875 526.829101562 -200 501.672851562 -200 c 2
 138.408203125 -200 l 2
 113.251953125 -200 93 -179.748046875 93 -154.591796875 c 2
 93 -127.346679688 l 2
 93 -102.190429688 113.251953125 -81.9384765625 138.408203125 -81.9384765625 c 2
EndSplineSet
EndChar

StartChar: E
Encoding: 69 69 4
Width: 730
Flags: HW
LayerCount: 2
Fore
SplineSet
135.408203125 599.182617188 m 2
 589.489257812 599.182617188 l 2
 614.645507812 599.182617188 634.897460938 578.930664062 634.897460938 553.774414062 c 2
 634.897460938 526.529296875 l 2
 634.897460938 501.373046875 614.645507812 481.12109375 589.489257812 481.12109375 c 2
 135.408203125 481.12109375 l 2
 110.251953125 481.12109375 90 501.373046875 90 526.529296875 c 2
 90 553.774414062 l 2
 90 578.930664062 110.251953125 599.182617188 135.408203125 599.182617188 c 2
135.408203125 462.958007812 m 2
 226.224609375 462.958007812 l 2
 251.380859375 462.958007812 271.6328125 442.706054688 271.6328125 417.549804688 c 2
 271.6328125 390.305664062 l 2
 271.6328125 365.149414062 251.380859375 344.897460938 226.224609375 344.897460938 c 2
 135.408203125 344.897460938 l 2
 110.251953125 344.897460938 90 365.149414062 90 390.305664062 c 2
 90 417.549804688 l 2
 90 442.706054688 110.251953125 462.958007812 135.408203125 462.958007812 c 2
135.408203125 326.734375 m 2
 389.693359375 326.734375 l 2
 414.849609375 326.734375 435.1015625 306.482421875 435.1015625 281.326171875 c 2
 435.1015625 254.081054688 l 2
 435.1015625 228.924804688 414.849609375 208.672851562 389.693359375 208.672851562 c 2
 135.408203125 208.672851562 l 2
 110.251953125 208.672851562 90 228.924804688 90 254.081054688 c 2
 90 281.326171875 l 2
 90 306.482421875 110.251953125 326.734375 135.408203125 326.734375 c 2
135.408203125 190.509765625 m 2
 226.224609375 190.509765625 l 2
 251.380859375 190.509765625 271.6328125 170.2578125 271.6328125 145.1015625 c 2
 271.6328125 117.856445312 l 2
 271.6328125 92.701171875 251.380859375 72.44921875 226.224609375 72.44921875 c 2
 135.408203125 72.44921875 l 2
 110.251953125 72.44921875 90 92.701171875 90 117.856445312 c 2
 90 145.1015625 l 2
 90 170.2578125 110.251953125 190.509765625 135.408203125 190.509765625 c 2
135.408203125 54.28515625 m 2
 226.224609375 54.28515625 l 2
 251.380859375 54.28515625 271.6328125 34.033203125 271.6328125 8.876953125 c 2
 271.6328125 -18.3671875 l 2
 271.6328125 -43.5234375 251.380859375 -63.775390625 226.224609375 -63.775390625 c 2
 135.408203125 -63.775390625 l 2
 110.251953125 -63.775390625 90 -43.5234375 90 -18.3671875 c 2
 90 8.876953125 l 2
 90 34.033203125 110.251953125 54.28515625 135.408203125 54.28515625 c 2
135.408203125 -81.9384765625 m 2
 589.489257812 -81.9384765625 l 2
 614.645507812 -81.9384765625 634.897460938 -102.190429688 634.897460938 -127.346679688 c 2
 634.897460938 -154.591796875 l 2
 634.897460938 -179.748046875 614.645507812 -200 589.489257812 -200 c 2
 135.408203125 -200 l 2
 110.251953125 -200 90 -179.748046875 90 -154.591796875 c 2
 90 -127.346679688 l 2
 90 -102.190429688 110.251953125 -81.9384765625 135.408203125 -81.9384765625 c 2
EndSplineSet
EndChar

StartChar: F
Encoding: 70 70 5
Width: 732
Flags: HW
LayerCount: 2
Fore
SplineSet
131.408203125 599.182617188 m 2
 585.489257812 599.182617188 l 2
 610.645507812 599.182617188 630.897460938 578.930664062 630.897460938 553.774414062 c 2
 630.897460938 526.529296875 l 2
 630.897460938 501.373046875 610.645507812 481.12109375 585.489257812 481.12109375 c 2
 131.408203125 481.12109375 l 2
 106.251953125 481.12109375 86 501.373046875 86 526.529296875 c 2
 86 553.774414062 l 2
 86 578.930664062 106.251953125 599.182617188 131.408203125 599.182617188 c 2
131.408203125 462.958007812 m 2
 222.224609375 462.958007812 l 2
 247.380859375 462.958007812 267.6328125 442.706054688 267.6328125 417.549804688 c 2
 267.6328125 390.305664062 l 2
 267.6328125 365.149414062 247.380859375 344.897460938 222.224609375 344.897460938 c 2
 131.408203125 344.897460938 l 2
 106.251953125 344.897460938 86 365.149414062 86 390.305664062 c 2
 86 417.549804688 l 2
 86 442.706054688 106.251953125 462.958007812 131.408203125 462.958007812 c 2
131.408203125 326.734375 m 2
 385.693359375 326.734375 l 2
 410.849609375 326.734375 431.1015625 306.482421875 431.1015625 281.326171875 c 2
 431.1015625 254.081054688 l 2
 431.1015625 228.924804688 410.849609375 208.672851562 385.693359375 208.672851562 c 2
 131.408203125 208.672851562 l 2
 106.251953125 208.672851562 86 228.924804688 86 254.081054688 c 2
 86 281.326171875 l 2
 86 306.482421875 106.251953125 326.734375 131.408203125 326.734375 c 2
131.408203125 190.509765625 m 2
 222.224609375 190.509765625 l 2
 247.380859375 190.509765625 267.6328125 170.2578125 267.6328125 145.1015625 c 2
 267.6328125 117.856445312 l 2
 267.6328125 92.701171875 247.380859375 72.44921875 222.224609375 72.44921875 c 2
 131.408203125 72.44921875 l 2
 106.251953125 72.44921875 86 92.701171875 86 117.856445312 c 2
 86 145.1015625 l 2
 86 170.2578125 106.251953125 190.509765625 131.408203125 190.509765625 c 2
131.408203125 54.28515625 m 2
 222.224609375 54.28515625 l 2
 247.380859375 54.28515625 267.6328125 34.033203125 267.6328125 8.876953125 c 2
 267.6328125 -18.3671875 l 2
 267.6328125 -43.5234375 247.380859375 -63.775390625 222.224609375 -63.775390625 c 2
 131.408203125 -63.775390625 l 2
 106.251953125 -63.775390625 86 -43.5234375 86 -18.3671875 c 2
 86 8.876953125 l 2
 86 34.033203125 106.251953125 54.28515625 131.408203125 54.28515625 c 2
131.408203125 -81.9384765625 m 2
 222.224609375 -81.9384765625 l 2
 247.380859375 -81.9384765625 267.6328125 -102.190429688 267.6328125 -127.346679688 c 2
 267.6328125 -154.591796875 l 2
 267.6328125 -179.748046875 247.380859375 -200 222.224609375 -200 c 2
 131.408203125 -200 l 2
 106.251953125 -200 86 -179.748046875 86 -154.591796875 c 2
 86 -127.346679688 l 2
 86 -102.190429688 106.251953125 -81.9384765625 131.408203125 -81.9384765625 c 2
EndSplineSet
EndChar

StartChar: G
Encoding: 71 71 6
Width: 748
Flags: HW
LayerCount: 2
Fore
SplineSet
151.408203125 599.182617188 m 2
 605.489257812 599.182617188 l 2
 630.645507812 599.182617188 650.897460938 578.930664062 650.897460938 553.774414062 c 2
 650.897460938 526.529296875 l 2
 650.897460938 501.373046875 630.645507812 481.12109375 605.489257812 481.12109375 c 2
 151.408203125 481.12109375 l 2
 126.251953125 481.12109375 106 501.373046875 106 526.529296875 c 2
 106 553.774414062 l 2
 106 578.930664062 126.251953125 599.182617188 151.408203125 599.182617188 c 2
151.408203125 462.958007812 m 2
 242.224609375 462.958007812 l 2
 267.379882812 462.958007812 287.6328125 442.706054688 287.6328125 417.549804688 c 2
 287.6328125 390.305664062 l 2
 287.6328125 365.149414062 267.379882812 344.897460938 242.224609375 344.897460938 c 2
 151.408203125 344.897460938 l 2
 126.251953125 344.897460938 106 365.149414062 106 390.305664062 c 2
 106 417.549804688 l 2
 106 442.706054688 126.251953125 462.958007812 151.408203125 462.958007812 c 2
151.408203125 326.734375 m 2
 242.224609375 326.734375 l 2
 267.379882812 326.734375 287.6328125 306.482421875 287.6328125 281.326171875 c 2
 287.6328125 254.081054688 l 2
 287.6328125 228.924804688 267.379882812 208.672851562 242.224609375 208.672851562 c 2
 151.408203125 208.672851562 l 2
 126.251953125 208.672851562 106 228.924804688 106 254.081054688 c 2
 106 281.326171875 l 2
 106 306.482421875 126.251953125 326.734375 151.408203125 326.734375 c 2
151.408203125 190.509765625 m 2
 242.224609375 190.509765625 l 2
 267.379882812 190.509765625 287.6328125 170.2578125 287.6328125 145.1015625 c 2
 287.6328125 117.856445312 l 2
 287.6328125 92.701171875 267.379882812 72.44921875 242.224609375 72.44921875 c 2
 151.408203125 72.44921875 l 2
 126.251953125 72.44921875 106 92.701171875 106 117.856445312 c 2
 106 145.1015625 l 2
 106 170.2578125 126.251953125 190.509765625 151.408203125 190.509765625 c 2
423.856445312 190.509765625 m 2
 605.489257812 190.509765625 l 2
 630.645507812 190.509765625 650.897460938 170.2578125 650.897460938 145.1015625 c 2
 650.897460938 117.856445312 l 2
 650.897460938 92.701171875 630.645507812 72.44921875 605.489257812 72.44921875 c 2
 423.856445312 72.44921875 l 2
 398.700195312 72.44921875 378.448242188 92.701171875 378.448242188 117.856445312 c 2
 378.448242188 145.1015625 l 2
 378.448242188 170.2578125 398.700195312 190.509765625 423.856445312 190.509765625 c 2
151.408203125 54.28515625 m 2
 242.224609375 54.28515625 l 2
 267.379882812 54.28515625 287.6328125 34.033203125 287.6328125 8.876953125 c 2
 287.6328125 -18.3671875 l 2
 287.6328125 -43.5234375 267.379882812 -63.775390625 242.224609375 -63.775390625 c 2
 151.408203125 -63.775390625 l 2
 126.251953125 -63.775390625 106 -43.5234375 106 -18.3671875 c 2
 106 8.876953125 l 2
 106 34.033203125 126.251953125 54.28515625 151.408203125 54.28515625 c 2
514.672851562 54.28515625 m 2
 605.489257812 54.28515625 l 2
 630.645507812 54.28515625 650.897460938 34.033203125 650.897460938 8.876953125 c 2
 650.897460938 -18.3671875 l 2
 650.897460938 -43.5234375 630.645507812 -63.775390625 605.489257812 -63.775390625 c 2
 514.672851562 -63.775390625 l 2
 489.516601562 -63.775390625 469.264648438 -43.5234375 469.264648438 -18.3671875 c 2
 469.264648438 8.876953125 l 2
 469.264648438 34.033203125 489.516601562 54.28515625 514.672851562 54.28515625 c 2
151.408203125 -81.9384765625 m 2
 605.489257812 -81.9384765625 l 2
 630.645507812 -81.9384765625 650.897460938 -102.190429688 650.897460938 -127.346679688 c 2
 650.897460938 -154.591796875 l 2
 650.897460938 -179.748046875 630.645507812 -200 605.489257812 -200 c 2
 151.408203125 -200 l 2
 126.251953125 -200 106 -179.748046875 106 -154.591796875 c 2
 106 -127.346679688 l 2
 106 -102.190429688 126.251953125 -81.9384765625 151.408203125 -81.9384765625 c 2
EndSplineSet
EndChar

StartChar: H
Encoding: 72 72 7
Width: 732
Flags: HW
LayerCount: 2
Fore
SplineSet
139.408203125 599.182617188 m 2
 230.224609375 599.182617188 l 2
 255.380859375 599.182617188 275.6328125 578.930664062 275.6328125 553.774414062 c 2
 275.6328125 526.529296875 l 2
 275.6328125 501.373046875 255.380859375 481.12109375 230.224609375 481.12109375 c 2
 139.408203125 481.12109375 l 2
 114.251953125 481.12109375 94 501.373046875 94 526.529296875 c 2
 94 553.774414062 l 2
 94 578.930664062 114.251953125 599.182617188 139.408203125 599.182617188 c 2
502.672851562 599.182617188 m 2
 593.489257812 599.182617188 l 2
 618.645507812 599.182617188 638.897460938 578.930664062 638.897460938 553.774414062 c 2
 638.897460938 526.529296875 l 2
 638.897460938 501.373046875 618.645507812 481.12109375 593.489257812 481.12109375 c 2
 502.672851562 481.12109375 l 2
 477.516601562 481.12109375 457.264648438 501.373046875 457.264648438 526.529296875 c 2
 457.264648438 553.774414062 l 2
 457.264648438 578.930664062 477.516601562 599.182617188 502.672851562 599.182617188 c 2
139.408203125 462.958007812 m 2
 230.224609375 462.958007812 l 2
 255.380859375 462.958007812 275.6328125 442.706054688 275.6328125 417.549804688 c 2
 275.6328125 390.305664062 l 2
 275.6328125 365.149414062 255.380859375 344.897460938 230.224609375 344.897460938 c 2
 139.408203125 344.897460938 l 2
 114.251953125 344.897460938 94 365.149414062 94 390.305664062 c 2
 94 417.549804688 l 2
 94 442.706054688 114.251953125 462.958007812 139.408203125 462.958007812 c 2
502.672851562 462.958007812 m 2
 593.489257812 462.958007812 l 2
 618.645507812 462.958007812 638.897460938 442.706054688 638.897460938 417.549804688 c 2
 638.897460938 390.305664062 l 2
 638.897460938 365.149414062 618.645507812 344.897460938 593.489257812 344.897460938 c 2
 502.672851562 344.897460938 l 2
 477.516601562 344.897460938 457.264648438 365.149414062 457.264648438 390.305664062 c 2
 457.264648438 417.549804688 l 2
 457.264648438 442.706054688 477.516601562 462.958007812 502.672851562 462.958007812 c 2
139.408203125 326.734375 m 2
 230.224609375 326.734375 l 2
 255.380859375 326.734375 275.6328125 306.482421875 275.6328125 281.326171875 c 2
 275.6328125 254.081054688 l 2
 275.6328125 228.924804688 255.380859375 208.672851562 230.224609375 208.672851562 c 2
 139.408203125 208.672851562 l 2
 114.251953125 208.672851562 94 228.924804688 94 254.081054688 c 2
 94 281.326171875 l 2
 94 306.482421875 114.251953125 326.734375 139.408203125 326.734375 c 2
502.672851562 326.734375 m 2
 593.489257812 326.734375 l 2
 618.645507812 326.734375 638.897460938 306.482421875 638.897460938 281.326171875 c 2
 638.897460938 254.081054688 l 2
 638.897460938 228.924804688 618.645507812 208.672851562 593.489257812 208.672851562 c 2
 502.672851562 208.672851562 l 2
 477.516601562 208.672851562 457.264648438 228.924804688 457.264648438 254.081054688 c 2
 457.264648438 281.326171875 l 2
 457.264648438 306.482421875 477.516601562 326.734375 502.672851562 326.734375 c 2
139.408203125 190.509765625 m 2
 593.489257812 190.509765625 l 2
 618.645507812 190.509765625 638.897460938 170.2578125 638.897460938 145.1015625 c 2
 638.897460938 117.856445312 l 2
 638.897460938 92.701171875 618.645507812 72.44921875 593.489257812 72.44921875 c 2
 139.408203125 72.44921875 l 2
 114.251953125 72.44921875 94 92.701171875 94 117.856445312 c 2
 94 145.1015625 l 2
 94 170.2578125 114.251953125 190.509765625 139.408203125 190.509765625 c 2
139.408203125 54.28515625 m 2
 230.224609375 54.28515625 l 2
 255.380859375 54.28515625 275.6328125 34.033203125 275.6328125 8.876953125 c 2
 275.6328125 -18.3671875 l 2
 275.6328125 -43.5234375 255.380859375 -63.775390625 230.224609375 -63.775390625 c 2
 139.408203125 -63.775390625 l 2
 114.251953125 -63.775390625 94 -43.5234375 94 -18.3671875 c 2
 94 8.876953125 l 2
 94 34.033203125 114.251953125 54.28515625 139.408203125 54.28515625 c 2
502.672851562 54.28515625 m 2
 593.489257812 54.28515625 l 2
 618.645507812 54.28515625 638.897460938 34.033203125 638.897460938 8.876953125 c 2
 638.897460938 -18.3671875 l 2
 638.897460938 -43.5234375 618.645507812 -63.775390625 593.489257812 -63.775390625 c 2
 502.672851562 -63.775390625 l 2
 477.516601562 -63.775390625 457.264648438 -43.5234375 457.264648438 -18.3671875 c 2
 457.264648438 8.876953125 l 2
 457.264648438 34.033203125 477.516601562 54.28515625 502.672851562 54.28515625 c 2
139.408203125 -81.9384765625 m 2
 230.224609375 -81.9384765625 l 2
 255.380859375 -81.9384765625 275.6328125 -102.190429688 275.6328125 -127.346679688 c 2
 275.6328125 -154.591796875 l 2
 275.6328125 -179.748046875 255.380859375 -200 230.224609375 -200 c 2
 139.408203125 -200 l 2
 114.251953125 -200 94 -179.748046875 94 -154.591796875 c 2
 94 -127.346679688 l 2
 94 -102.190429688 114.251953125 -81.9384765625 139.408203125 -81.9384765625 c 2
502.672851562 -81.9384765625 m 2
 593.489257812 -81.9384765625 l 2
 618.645507812 -81.9384765625 638.897460938 -102.190429688 638.897460938 -127.346679688 c 2
 638.897460938 -154.591796875 l 2
 638.897460938 -179.748046875 618.645507812 -200 593.489257812 -200 c 2
 502.672851562 -200 l 2
 477.516601562 -200 457.264648438 -179.748046875 457.264648438 -154.591796875 c 2
 457.264648438 -127.346679688 l 2
 457.264648438 -102.190429688 477.516601562 -81.9384765625 502.672851562 -81.9384765625 c 2
EndSplineSet
EndChar

StartChar: I
Encoding: 73 73 8
Width: 728
Flags: HW
LayerCount: 2
Fore
SplineSet
137.408203125 599.182617188 m 2
 591.489257812 599.182617188 l 2
 616.645507812 599.182617188 636.897460938 578.930664062 636.897460938 553.774414062 c 2
 636.897460938 526.529296875 l 2
 636.897460938 501.373046875 616.645507812 481.12109375 591.489257812 481.12109375 c 2
 137.408203125 481.12109375 l 2
 112.251953125 481.12109375 92 501.373046875 92 526.529296875 c 2
 92 553.774414062 l 2
 92 578.930664062 112.251953125 599.182617188 137.408203125 599.182617188 c 2
319.040039062 462.958007812 m 2
 409.856445312 462.958007812 l 2
 435.012695312 462.958007812 455.264648438 442.706054688 455.264648438 417.549804688 c 2
 455.264648438 390.305664062 l 2
 455.264648438 365.149414062 435.012695312 344.897460938 409.856445312 344.897460938 c 2
 319.040039062 344.897460938 l 2
 293.884765625 344.897460938 273.6328125 365.149414062 273.6328125 390.305664062 c 2
 273.6328125 417.549804688 l 2
 273.6328125 442.706054688 293.884765625 462.958007812 319.040039062 462.958007812 c 2
319.040039062 326.734375 m 2
 409.856445312 326.734375 l 2
 435.012695312 326.734375 455.264648438 306.482421875 455.264648438 281.326171875 c 2
 455.264648438 254.081054688 l 2
 455.264648438 228.924804688 435.012695312 208.672851562 409.856445312 208.672851562 c 2
 319.040039062 208.672851562 l 2
 293.884765625 208.672851562 273.6328125 228.924804688 273.6328125 254.081054688 c 2
 273.6328125 281.326171875 l 2
 273.6328125 306.482421875 293.884765625 326.734375 319.040039062 326.734375 c 2
319.040039062 190.509765625 m 2
 409.856445312 190.509765625 l 2
 435.012695312 190.509765625 455.264648438 170.2578125 455.264648438 145.1015625 c 2
 455.264648438 117.856445312 l 2
 455.264648438 92.701171875 435.012695312 72.44921875 409.856445312 72.44921875 c 2
 319.040039062 72.44921875 l 2
 293.884765625 72.44921875 273.6328125 92.701171875 273.6328125 117.856445312 c 2
 273.6328125 145.1015625 l 2
 273.6328125 170.2578125 293.884765625 190.509765625 319.040039062 190.509765625 c 2
319.040039062 54.28515625 m 2
 409.856445312 54.28515625 l 2
 435.012695312 54.28515625 455.264648438 34.033203125 455.264648438 8.876953125 c 2
 455.264648438 -18.3671875 l 2
 455.264648438 -43.5234375 435.012695312 -63.775390625 409.856445312 -63.775390625 c 2
 319.040039062 -63.775390625 l 2
 293.884765625 -63.775390625 273.6328125 -43.5234375 273.6328125 -18.3671875 c 2
 273.6328125 8.876953125 l 2
 273.6328125 34.033203125 293.884765625 54.28515625 319.040039062 54.28515625 c 2
137.408203125 -81.9384765625 m 2
 591.489257812 -81.9384765625 l 2
 616.645507812 -81.9384765625 636.897460938 -102.190429688 636.897460938 -127.346679688 c 2
 636.897460938 -154.591796875 l 2
 636.897460938 -179.748046875 616.645507812 -200 591.489257812 -200 c 2
 137.408203125 -200 l 2
 112.251953125 -200 92 -179.748046875 92 -154.591796875 c 2
 92 -127.346679688 l 2
 92 -102.190429688 112.251953125 -81.9384765625 137.408203125 -81.9384765625 c 2
EndSplineSet
EndChar

StartChar: J
Encoding: 74 74 9
Width: 678
Flags: HW
LayerCount: 2
Fore
SplineSet
435.938476562 599.182617188 m 2
 526.754882812 599.182617188 l 2
 551.91015625 599.182617188 572.162109375 578.930664062 572.162109375 553.774414062 c 2
 572.162109375 526.529296875 l 2
 572.162109375 501.373046875 551.91015625 481.12109375 526.754882812 481.12109375 c 2
 435.938476562 481.12109375 l 2
 410.782226562 481.12109375 390.530273438 501.373046875 390.530273438 526.529296875 c 2
 390.530273438 553.774414062 l 2
 390.530273438 578.930664062 410.782226562 599.182617188 435.938476562 599.182617188 c 2
435.938476562 462.958007812 m 2
 526.754882812 462.958007812 l 2
 551.91015625 462.958007812 572.162109375 442.706054688 572.162109375 417.549804688 c 2
 572.162109375 390.305664062 l 2
 572.162109375 365.149414062 551.91015625 344.897460938 526.754882812 344.897460938 c 2
 435.938476562 344.897460938 l 2
 410.782226562 344.897460938 390.530273438 365.149414062 390.530273438 390.305664062 c 2
 390.530273438 417.549804688 l 2
 390.530273438 442.706054688 410.782226562 462.958007812 435.938476562 462.958007812 c 2
435.938476562 326.734375 m 2
 526.754882812 326.734375 l 2
 551.91015625 326.734375 572.162109375 306.482421875 572.162109375 281.326171875 c 2
 572.162109375 254.081054688 l 2
 572.162109375 228.924804688 551.91015625 208.672851562 526.754882812 208.672851562 c 2
 435.938476562 208.672851562 l 2
 410.782226562 208.672851562 390.530273438 228.924804688 390.530273438 254.081054688 c 2
 390.530273438 281.326171875 l 2
 390.530273438 306.482421875 410.782226562 326.734375 435.938476562 326.734375 c 2
435.938476562 190.509765625 m 2
 526.754882812 190.509765625 l 2
 551.91015625 190.509765625 572.162109375 170.2578125 572.162109375 145.1015625 c 2
 572.162109375 117.856445312 l 2
 572.162109375 92.701171875 551.91015625 72.44921875 526.754882812 72.44921875 c 2
 435.938476562 72.44921875 l 2
 410.782226562 72.44921875 390.530273438 92.701171875 390.530273438 117.856445312 c 2
 390.530273438 145.1015625 l 2
 390.530273438 170.2578125 410.782226562 190.509765625 435.938476562 190.509765625 c 2
154.408203125 54.28515625 m 2
 245.224609375 54.28515625 l 2
 270.379882812 54.28515625 290.631835938 34.033203125 290.631835938 8.876953125 c 2
 290.631835938 -18.3671875 l 2
 290.631835938 -43.5234375 270.379882812 -63.775390625 245.224609375 -63.775390625 c 2
 154.408203125 -63.775390625 l 2
 129.251953125 -63.775390625 109 -43.5234375 109 -18.3671875 c 2
 109 8.876953125 l 2
 109 34.033203125 129.251953125 54.28515625 154.408203125 54.28515625 c 2
435.938476562 54.28515625 m 2
 526.754882812 54.28515625 l 2
 551.91015625 54.28515625 572.162109375 34.033203125 572.162109375 8.876953125 c 2
 572.162109375 -18.3671875 l 2
 572.162109375 -43.5234375 551.91015625 -63.775390625 526.754882812 -63.775390625 c 2
 435.938476562 -63.775390625 l 2
 410.782226562 -63.775390625 390.530273438 -43.5234375 390.530273438 -18.3671875 c 2
 390.530273438 8.876953125 l 2
 390.530273438 34.033203125 410.782226562 54.28515625 435.938476562 54.28515625 c 2
154.408203125 -81.9384765625 m 2
 526.754882812 -81.9384765625 l 2
 551.91015625 -81.9384765625 572.162109375 -102.190429688 572.162109375 -127.346679688 c 2
 572.162109375 -154.591796875 l 2
 572.162109375 -179.748046875 551.91015625 -200 526.754882812 -200 c 2
 154.408203125 -200 l 2
 129.251953125 -200 109 -179.748046875 109 -154.591796875 c 2
 109 -127.346679688 l 2
 109 -102.190429688 129.251953125 -81.9384765625 154.408203125 -81.9384765625 c 2
EndSplineSet
EndChar

StartChar: K
Encoding: 75 75 10
Width: 734
Flags: HW
LayerCount: 2
Fore
SplineSet
137.408203125 599.182617188 m 2
 228.224609375 599.182617188 l 2
 253.380859375 599.182617188 273.6328125 578.930664062 273.6328125 553.774414062 c 2
 273.6328125 526.529296875 l 2
 273.6328125 501.373046875 253.380859375 481.12109375 228.224609375 481.12109375 c 2
 137.408203125 481.12109375 l 2
 112.251953125 481.12109375 92 501.373046875 92 526.529296875 c 2
 92 553.774414062 l 2
 92 578.930664062 112.251953125 599.182617188 137.408203125 599.182617188 c 2
500.672851562 599.182617188 m 2
 591.489257812 599.182617188 l 2
 616.645507812 599.182617188 636.897460938 578.930664062 636.897460938 553.774414062 c 2
 636.897460938 526.529296875 l 2
 636.897460938 501.373046875 616.645507812 481.12109375 591.489257812 481.12109375 c 2
 500.672851562 481.12109375 l 2
 475.516601562 481.12109375 455.264648438 501.373046875 455.264648438 526.529296875 c 2
 455.264648438 553.774414062 l 2
 455.264648438 578.930664062 475.516601562 599.182617188 500.672851562 599.182617188 c 2
137.408203125 462.958007812 m 2
 228.224609375 462.958007812 l 2
 253.380859375 462.958007812 273.6328125 442.706054688 273.6328125 417.549804688 c 2
 273.6328125 390.305664062 l 2
 273.6328125 365.149414062 253.380859375 344.897460938 228.224609375 344.897460938 c 2
 137.408203125 344.897460938 l 2
 112.251953125 344.897460938 92 365.149414062 92 390.305664062 c 2
 92 417.549804688 l 2
 92 442.706054688 112.251953125 462.958007812 137.408203125 462.958007812 c 2
409.856445312 462.958007812 m 2
 500.672851562 462.958007812 l 2
 525.829101562 462.958007812 546.081054688 442.706054688 546.081054688 417.549804688 c 2
 546.081054688 390.305664062 l 2
 546.081054688 365.149414062 525.829101562 344.897460938 500.672851562 344.897460938 c 2
 409.856445312 344.897460938 l 2
 384.700195312 344.897460938 364.448242188 365.149414062 364.448242188 390.305664062 c 2
 364.448242188 417.549804688 l 2
 364.448242188 442.706054688 384.700195312 462.958007812 409.856445312 462.958007812 c 2
137.408203125 326.734375 m 2
 409.856445312 326.734375 l 2
 434.930664062 326.734375 455.264648438 306.404296875 455.264648438 281.326171875 c 2
 455.264648438 254.081054688 l 2
 455.264648438 229.002929688 434.930664062 208.672851562 409.856445312 208.672851562 c 2
 137.408203125 208.672851562 l 2
 112.333984375 208.672851562 92 229.002929688 92 254.081054688 c 2
 92 281.326171875 l 2
 92 306.404296875 112.333984375 326.734375 137.408203125 326.734375 c 2
137.408203125 190.509765625 m 2
 228.224609375 190.509765625 l 2
 253.380859375 190.509765625 273.6328125 170.2578125 273.6328125 145.1015625 c 2
 273.6328125 117.856445312 l 2
 273.6328125 92.701171875 253.380859375 72.44921875 228.224609375 72.44921875 c 2
 137.408203125 72.44921875 l 2
 112.251953125 72.44921875 92 92.701171875 92 117.856445312 c 2
 92 145.1015625 l 2
 92 170.2578125 112.251953125 190.509765625 137.408203125 190.509765625 c 2
364.448242188 190.509765625 m 2
 455.264648438 190.509765625 l 2
 480.420898438 190.509765625 500.672851562 170.2578125 500.672851562 145.1015625 c 2
 500.672851562 117.856445312 l 2
 500.672851562 92.701171875 480.420898438 72.44921875 455.264648438 72.44921875 c 2
 364.448242188 72.44921875 l 2
 339.29296875 72.44921875 319.040039062 92.701171875 319.040039062 117.856445312 c 2
 319.040039062 145.1015625 l 2
 319.040039062 170.2578125 339.29296875 190.509765625 364.448242188 190.509765625 c 2
137.408203125 54.28515625 m 2
 228.224609375 54.28515625 l 2
 253.380859375 54.28515625 273.6328125 34.033203125 273.6328125 8.876953125 c 2
 273.6328125 -18.3671875 l 2
 273.6328125 -43.5234375 253.380859375 -63.775390625 228.224609375 -63.775390625 c 2
 137.408203125 -63.775390625 l 2
 112.251953125 -63.775390625 92 -43.5234375 92 -18.3671875 c 2
 92 8.876953125 l 2
 92 34.033203125 112.251953125 54.28515625 137.408203125 54.28515625 c 2
437.1015625 54.28515625 m 2
 527.91796875 54.28515625 l 2
 553.07421875 54.28515625 573.326171875 34.033203125 573.326171875 8.876953125 c 2
 573.326171875 -18.3671875 l 2
 573.326171875 -43.5234375 553.07421875 -63.775390625 527.91796875 -63.775390625 c 2
 437.1015625 -63.775390625 l 2
 411.9453125 -63.775390625 391.693359375 -43.5234375 391.693359375 -18.3671875 c 2
 391.693359375 8.876953125 l 2
 391.693359375 34.033203125 411.9453125 54.28515625 437.1015625 54.28515625 c 2
137.408203125 -81.9384765625 m 2
 228.224609375 -81.9384765625 l 2
 253.380859375 -81.9384765625 273.6328125 -102.190429688 273.6328125 -127.346679688 c 2
 273.6328125 -154.591796875 l 2
 273.6328125 -179.748046875 253.380859375 -200 228.224609375 -200 c 2
 137.408203125 -200 l 2
 112.251953125 -200 92 -179.748046875 92 -154.591796875 c 2
 92 -127.346679688 l 2
 92 -102.190429688 112.251953125 -81.9384765625 137.408203125 -81.9384765625 c 2
500.672851562 -81.9384765625 m 2
 591.489257812 -81.9384765625 l 2
 616.645507812 -81.9384765625 636.897460938 -102.190429688 636.897460938 -127.346679688 c 2
 636.897460938 -154.591796875 l 2
 636.897460938 -179.748046875 616.645507812 -200 591.489257812 -200 c 2
 500.672851562 -200 l 2
 475.516601562 -200 455.264648438 -179.748046875 455.264648438 -154.591796875 c 2
 455.264648438 -127.346679688 l 2
 455.264648438 -102.190429688 475.516601562 -81.9384765625 500.672851562 -81.9384765625 c 2
EndSplineSet
EndChar

StartChar: L
Encoding: 76 76 11
Width: 728
Flags: HW
LayerCount: 2
Fore
SplineSet
129.408203125 599.182617188 m 2
 220.224609375 599.182617188 l 2
 245.379882812 599.182617188 265.6328125 578.930664062 265.6328125 553.774414062 c 2
 265.6328125 526.529296875 l 2
 265.6328125 501.373046875 245.379882812 481.12109375 220.224609375 481.12109375 c 2
 129.408203125 481.12109375 l 2
 104.251953125 481.12109375 84 501.373046875 84 526.529296875 c 2
 84 553.774414062 l 2
 84 578.930664062 104.251953125 599.182617188 129.408203125 599.182617188 c 2
129.408203125 462.958007812 m 2
 220.224609375 462.958007812 l 2
 245.379882812 462.958007812 265.6328125 442.706054688 265.6328125 417.549804688 c 2
 265.6328125 390.305664062 l 2
 265.6328125 365.149414062 245.379882812 344.897460938 220.224609375 344.897460938 c 2
 129.408203125 344.897460938 l 2
 104.251953125 344.897460938 84 365.149414062 84 390.305664062 c 2
 84 417.549804688 l 2
 84 442.706054688 104.251953125 462.958007812 129.408203125 462.958007812 c 2
129.408203125 326.734375 m 2
 220.224609375 326.734375 l 2
 245.379882812 326.734375 265.6328125 306.482421875 265.6328125 281.326171875 c 2
 265.6328125 254.081054688 l 2
 265.6328125 228.924804688 245.379882812 208.672851562 220.224609375 208.672851562 c 2
 129.408203125 208.672851562 l 2
 104.251953125 208.672851562 84 228.924804688 84 254.081054688 c 2
 84 281.326171875 l 2
 84 306.482421875 104.251953125 326.734375 129.408203125 326.734375 c 2
129.408203125 190.509765625 m 2
 220.224609375 190.509765625 l 2
 245.379882812 190.509765625 265.6328125 170.2578125 265.6328125 145.1015625 c 2
 265.6328125 117.856445312 l 2
 265.6328125 92.701171875 245.379882812 72.44921875 220.224609375 72.44921875 c 2
 129.408203125 72.44921875 l 2
 104.251953125 72.44921875 84 92.701171875 84 117.856445312 c 2
 84 145.1015625 l 2
 84 170.2578125 104.251953125 190.509765625 129.408203125 190.509765625 c 2
129.408203125 54.28515625 m 2
 220.224609375 54.28515625 l 2
 245.379882812 54.28515625 265.6328125 34.033203125 265.6328125 8.876953125 c 2
 265.6328125 -18.3671875 l 2
 265.6328125 -43.5234375 245.379882812 -63.775390625 220.224609375 -63.775390625 c 2
 129.408203125 -63.775390625 l 2
 104.251953125 -63.775390625 84 -43.5234375 84 -18.3671875 c 2
 84 8.876953125 l 2
 84 34.033203125 104.251953125 54.28515625 129.408203125 54.28515625 c 2
129.408203125 -81.9384765625 m 2
 583.489257812 -81.9384765625 l 2
 608.645507812 -81.9384765625 628.897460938 -102.190429688 628.897460938 -127.346679688 c 2
 628.897460938 -154.591796875 l 2
 628.897460938 -179.748046875 608.645507812 -200 583.489257812 -200 c 2
 129.408203125 -200 l 2
 104.251953125 -200 84 -179.748046875 84 -154.591796875 c 2
 84 -127.346679688 l 2
 84 -102.190429688 104.251953125 -81.9384765625 129.408203125 -81.9384765625 c 2
EndSplineSet
EndChar

StartChar: M
Encoding: 77 77 12
Width: 838
Flags: HW
LayerCount: 2
Fore
SplineSet
157.408203125 599.182617188 m 2
 248.224609375 599.182617188 l 2
 273.379882812 599.182617188 293.6328125 578.930664062 293.6328125 553.774414062 c 2
 293.6328125 526.529296875 l 2
 293.6328125 501.373046875 273.379882812 481.12109375 248.224609375 481.12109375 c 2
 157.408203125 481.12109375 l 2
 132.251953125 481.12109375 112 501.373046875 112 526.529296875 c 2
 112 553.774414062 l 2
 112 578.930664062 132.251953125 599.182617188 157.408203125 599.182617188 c 2
584.244140625 599.182617188 m 2
 675.060546875 599.182617188 l 2
 700.216796875 599.182617188 720.46875 578.930664062 720.46875 553.774414062 c 2
 720.46875 526.529296875 l 2
 720.46875 501.373046875 700.216796875 481.12109375 675.060546875 481.12109375 c 2
 584.244140625 481.12109375 l 2
 559.087890625 481.12109375 538.8359375 501.373046875 538.8359375 526.529296875 c 2
 538.8359375 553.774414062 l 2
 538.8359375 578.930664062 559.087890625 599.182617188 584.244140625 599.182617188 c 2
157.408203125 462.958007812 m 2
 339.040039062 462.958007812 l 2
 364.196289062 462.958007812 384.448242188 442.706054688 384.448242188 417.549804688 c 2
 384.448242188 390.305664062 l 2
 384.448242188 365.149414062 364.196289062 344.897460938 339.040039062 344.897460938 c 2
 157.408203125 344.897460938 l 2
 132.251953125 344.897460938 112 365.149414062 112 390.305664062 c 2
 112 417.549804688 l 2
 112 442.706054688 132.251953125 462.958007812 157.408203125 462.958007812 c 2
484.346679688 462.958007812 m 2
 675.060546875 462.958007812 l 2
 700.216796875 462.958007812 720.46875 442.706054688 720.46875 417.549804688 c 2
 720.46875 390.305664062 l 2
 720.46875 365.149414062 700.216796875 344.897460938 675.060546875 344.897460938 c 2
 484.346679688 344.897460938 l 2
 459.190429688 344.897460938 438.938476562 365.149414062 438.938476562 390.305664062 c 2
 438.938476562 417.549804688 l 2
 438.938476562 442.706054688 459.190429688 462.958007812 484.346679688 462.958007812 c 2
366.28515625 335.815429688 m 2
 457.1015625 335.815429688 l 2
 482.2578125 335.815429688 502.509765625 315.563476562 502.509765625 290.407226562 c 2
 502.509765625 263.163085938 l 2
 502.509765625 238.006835938 482.2578125 217.754882812 457.1015625 217.754882812 c 2
 366.28515625 217.754882812 l 2
 341.12890625 217.754882812 320.876953125 238.006835938 320.876953125 263.163085938 c 2
 320.876953125 290.407226562 l 2
 320.876953125 315.563476562 341.12890625 335.815429688 366.28515625 335.815429688 c 2
157.408203125 326.734375 m 2
 248.224609375 326.734375 l 2
 273.379882812 326.734375 293.6328125 306.482421875 293.6328125 281.326171875 c 2
 293.6328125 254.081054688 l 2
 293.6328125 228.924804688 273.379882812 208.672851562 248.224609375 208.672851562 c 2
 157.408203125 208.672851562 l 2
 132.251953125 208.672851562 112 228.924804688 112 254.081054688 c 2
 112 281.326171875 l 2
 112 306.482421875 132.251953125 326.734375 157.408203125 326.734375 c 2
584.244140625 326.734375 m 2
 675.060546875 326.734375 l 2
 700.216796875 326.734375 720.46875 306.482421875 720.46875 281.326171875 c 2
 720.46875 254.081054688 l 2
 720.46875 228.924804688 700.216796875 208.672851562 675.060546875 208.672851562 c 2
 584.244140625 208.672851562 l 2
 559.087890625 208.672851562 538.8359375 228.924804688 538.8359375 254.081054688 c 2
 538.8359375 281.326171875 l 2
 538.8359375 306.482421875 559.087890625 326.734375 584.244140625 326.734375 c 2
157.408203125 190.509765625 m 2
 248.224609375 190.509765625 l 2
 273.379882812 190.509765625 293.6328125 170.2578125 293.6328125 145.1015625 c 2
 293.6328125 117.856445312 l 2
 293.6328125 92.701171875 273.379882812 72.44921875 248.224609375 72.44921875 c 2
 157.408203125 72.44921875 l 2
 132.251953125 72.44921875 112 92.701171875 112 117.856445312 c 2
 112 145.1015625 l 2
 112 170.2578125 132.251953125 190.509765625 157.408203125 190.509765625 c 2
584.244140625 190.509765625 m 2
 675.060546875 190.509765625 l 2
 700.216796875 190.509765625 720.46875 170.2578125 720.46875 145.1015625 c 2
 720.46875 117.856445312 l 2
 720.46875 92.701171875 700.216796875 72.44921875 675.060546875 72.44921875 c 2
 584.244140625 72.44921875 l 2
 559.087890625 72.44921875 538.8359375 92.701171875 538.8359375 117.856445312 c 2
 538.8359375 145.1015625 l 2
 538.8359375 170.2578125 559.087890625 190.509765625 584.244140625 190.509765625 c 2
157.408203125 54.28515625 m 2
 248.224609375 54.28515625 l 2
 273.379882812 54.28515625 293.6328125 34.033203125 293.6328125 8.876953125 c 2
 293.6328125 -18.3671875 l 2
 293.6328125 -43.5234375 273.379882812 -63.775390625 248.224609375 -63.775390625 c 2
 157.408203125 -63.775390625 l 2
 132.251953125 -63.775390625 112 -43.5234375 112 -18.3671875 c 2
 112 8.876953125 l 2
 112 34.033203125 132.251953125 54.28515625 157.408203125 54.28515625 c 2
584.244140625 54.28515625 m 2
 675.060546875 54.28515625 l 2
 700.216796875 54.28515625 720.46875 34.033203125 720.46875 8.876953125 c 2
 720.46875 -18.3671875 l 2
 720.46875 -43.5234375 700.216796875 -63.775390625 675.060546875 -63.775390625 c 2
 584.244140625 -63.775390625 l 2
 559.087890625 -63.775390625 538.8359375 -43.5234375 538.8359375 -18.3671875 c 2
 538.8359375 8.876953125 l 2
 538.8359375 34.033203125 559.087890625 54.28515625 584.244140625 54.28515625 c 2
157.408203125 -81.9384765625 m 2
 248.224609375 -81.9384765625 l 2
 273.379882812 -81.9384765625 293.6328125 -102.190429688 293.6328125 -127.346679688 c 2
 293.6328125 -154.591796875 l 2
 293.6328125 -179.748046875 273.379882812 -200 248.224609375 -200 c 2
 157.408203125 -200 l 2
 132.251953125 -200 112 -179.748046875 112 -154.591796875 c 2
 112 -127.346679688 l 2
 112 -102.190429688 132.251953125 -81.9384765625 157.408203125 -81.9384765625 c 2
584.244140625 -81.9384765625 m 2
 675.060546875 -81.9384765625 l 2
 700.216796875 -81.9384765625 720.46875 -102.190429688 720.46875 -127.346679688 c 2
 720.46875 -154.591796875 l 2
 720.46875 -179.748046875 700.216796875 -200 675.060546875 -200 c 2
 584.244140625 -200 l 2
 559.087890625 -200 538.8359375 -179.748046875 538.8359375 -154.591796875 c 2
 538.8359375 -127.346679688 l 2
 538.8359375 -102.190429688 559.087890625 -81.9384765625 584.244140625 -81.9384765625 c 2
EndSplineSet
EndChar

StartChar: N
Encoding: 78 78 13
Width: 782
Flags: HW
LayerCount: 2
Fore
SplineSet
159.408203125 599.182617188 m 2
 250.224609375 599.182617188 l 2
 275.380859375 599.182617188 295.6328125 578.930664062 295.6328125 553.774414062 c 2
 295.6328125 526.529296875 l 2
 295.6328125 501.373046875 275.380859375 481.12109375 250.224609375 481.12109375 c 2
 159.408203125 481.12109375 l 2
 134.251953125 481.12109375 114 501.373046875 114 526.529296875 c 2
 114 553.774414062 l 2
 114 578.930664062 134.251953125 599.182617188 159.408203125 599.182617188 c 2
522.672851562 599.182617188 m 2
 613.489257812 599.182617188 l 2
 638.645507812 599.182617188 658.897460938 578.930664062 658.897460938 553.774414062 c 2
 658.897460938 526.529296875 l 2
 658.897460938 501.373046875 638.645507812 481.12109375 613.489257812 481.12109375 c 2
 522.672851562 481.12109375 l 2
 497.516601562 481.12109375 477.264648438 501.373046875 477.264648438 526.529296875 c 2
 477.264648438 553.774414062 l 2
 477.264648438 578.930664062 497.516601562 599.182617188 522.672851562 599.182617188 c 2
159.408203125 462.958007812 m 2
 322.876953125 462.958007812 l 2
 348.033203125 462.958007812 368.28515625 442.706054688 368.28515625 417.549804688 c 2
 368.28515625 390.305664062 l 2
 368.28515625 365.149414062 348.033203125 344.897460938 322.876953125 344.897460938 c 2
 159.408203125 344.897460938 l 2
 134.251953125 344.897460938 114 365.149414062 114 390.305664062 c 2
 114 417.549804688 l 2
 114 442.706054688 134.251953125 462.958007812 159.408203125 462.958007812 c 2
522.672851562 462.958007812 m 2
 613.489257812 462.958007812 l 2
 638.645507812 462.958007812 658.897460938 442.706054688 658.897460938 417.549804688 c 2
 658.897460938 390.305664062 l 2
 658.897460938 365.149414062 638.645507812 344.897460938 613.489257812 344.897460938 c 2
 522.672851562 344.897460938 l 2
 497.516601562 344.897460938 477.264648438 365.149414062 477.264648438 390.305664062 c 2
 477.264648438 417.549804688 l 2
 477.264648438 442.706054688 497.516601562 462.958007812 522.672851562 462.958007812 c 2
159.408203125 326.734375 m 2
 250.224609375 326.734375 l 1
 377.3671875 326.734375 l 2
 402.5234375 326.734375 422.775390625 306.482421875 422.775390625 281.326171875 c 2
 422.775390625 254.081054688 l 2
 422.775390625 228.924804688 402.5234375 208.672851562 377.3671875 208.672851562 c 2
 250.224609375 208.672851562 l 1
 159.408203125 208.672851562 l 2
 134.251953125 208.672851562 114 228.924804688 114 254.081054688 c 2
 114 281.326171875 l 2
 114 306.482421875 134.251953125 326.734375 159.408203125 326.734375 c 2
522.672851562 326.734375 m 2
 613.489257812 326.734375 l 2
 638.645507812 326.734375 658.897460938 306.482421875 658.897460938 281.326171875 c 2
 658.897460938 254.081054688 l 2
 658.897460938 228.924804688 638.645507812 208.672851562 613.489257812 208.672851562 c 2
 522.672851562 208.672851562 l 2
 497.516601562 208.672851562 477.264648438 228.924804688 477.264648438 254.081054688 c 2
 477.264648438 281.326171875 l 2
 477.264648438 306.482421875 497.516601562 326.734375 522.672851562 326.734375 c 2
159.408203125 190.509765625 m 2
 250.224609375 190.509765625 l 2
 275.380859375 190.509765625 295.6328125 170.2578125 295.6328125 145.1015625 c 2
 295.6328125 117.856445312 l 2
 295.6328125 92.701171875 275.380859375 72.44921875 250.224609375 72.44921875 c 2
 159.408203125 72.44921875 l 2
 134.251953125 72.44921875 114 92.701171875 114 117.856445312 c 2
 114 145.1015625 l 2
 114 170.2578125 134.251953125 190.509765625 159.408203125 190.509765625 c 2
395.530273438 190.509765625 m 2
 613.489257812 190.509765625 l 2
 638.645507812 190.509765625 658.897460938 170.2578125 658.897460938 145.1015625 c 2
 658.897460938 117.856445312 l 2
 658.897460938 92.701171875 638.645507812 72.44921875 613.489257812 72.44921875 c 2
 395.530273438 72.44921875 l 2
 370.374023438 72.44921875 350.122070312 92.701171875 350.122070312 117.856445312 c 2
 350.122070312 145.1015625 l 2
 350.122070312 170.2578125 370.374023438 190.509765625 395.530273438 190.509765625 c 2
159.408203125 54.28515625 m 2
 250.224609375 54.28515625 l 2
 275.380859375 54.28515625 295.6328125 34.033203125 295.6328125 8.876953125 c 2
 295.6328125 -18.3671875 l 2
 295.6328125 -43.5234375 275.380859375 -63.775390625 250.224609375 -63.775390625 c 2
 159.408203125 -63.775390625 l 2
 134.251953125 -63.775390625 114 -43.5234375 114 -18.3671875 c 2
 114 8.876953125 l 2
 114 34.033203125 134.251953125 54.28515625 159.408203125 54.28515625 c 2
450.01953125 54.28515625 m 2
 613.489257812 54.28515625 l 2
 638.645507812 54.28515625 658.897460938 34.033203125 658.897460938 8.876953125 c 2
 658.897460938 -18.3671875 l 2
 658.897460938 -43.5234375 638.645507812 -63.775390625 613.489257812 -63.775390625 c 2
 450.01953125 -63.775390625 l 2
 424.864257812 -63.775390625 404.611328125 -43.5234375 404.611328125 -18.3671875 c 2
 404.611328125 8.876953125 l 2
 404.611328125 34.033203125 424.864257812 54.28515625 450.01953125 54.28515625 c 2
159.408203125 -81.9384765625 m 2
 250.224609375 -81.9384765625 l 2
 275.380859375 -81.9384765625 295.6328125 -102.190429688 295.6328125 -127.346679688 c 2
 295.6328125 -154.591796875 l 2
 295.6328125 -179.748046875 275.380859375 -200 250.224609375 -200 c 2
 159.408203125 -200 l 2
 134.251953125 -200 114 -179.748046875 114 -154.591796875 c 2
 114 -127.346679688 l 2
 114 -102.190429688 134.251953125 -81.9384765625 159.408203125 -81.9384765625 c 2
522.672851562 -81.9384765625 m 2
 613.489257812 -81.9384765625 l 2
 638.645507812 -81.9384765625 658.897460938 -102.190429688 658.897460938 -127.346679688 c 2
 658.897460938 -154.591796875 l 2
 658.897460938 -179.748046875 638.645507812 -200 613.489257812 -200 c 2
 522.672851562 -200 l 2
 497.516601562 -200 477.264648438 -179.748046875 477.264648438 -154.591796875 c 2
 477.264648438 -127.346679688 l 2
 477.264648438 -102.190429688 497.516601562 -81.9384765625 522.672851562 -81.9384765625 c 2
EndSplineSet
EndChar

StartChar: O
Encoding: 79 79 14
Width: 746
Flags: HW
LayerCount: 2
Fore
SplineSet
141.408203125 599.182617188 m 2
 595.489257812 599.182617188 l 2
 620.64453125 599.182617188 640.897460938 578.930664062 640.897460938 553.774414062 c 2
 640.897460938 526.529296875 l 2
 640.897460938 501.373046875 620.64453125 481.12109375 595.489257812 481.12109375 c 2
 141.408203125 481.12109375 l 2
 116.251953125 481.12109375 96 501.373046875 96 526.529296875 c 2
 96 553.774414062 l 2
 96 578.930664062 116.251953125 599.182617188 141.408203125 599.182617188 c 2
141.408203125 462.958007812 m 2
 232.224609375 462.958007812 l 2
 257.379882812 462.958007812 277.6328125 442.706054688 277.6328125 417.549804688 c 2
 277.6328125 390.305664062 l 2
 277.6328125 365.149414062 257.379882812 344.897460938 232.224609375 344.897460938 c 2
 141.408203125 344.897460938 l 2
 116.251953125 344.897460938 96 365.149414062 96 390.305664062 c 2
 96 417.549804688 l 2
 96 442.706054688 116.251953125 462.958007812 141.408203125 462.958007812 c 2
504.672851562 462.958007812 m 2
 595.489257812 462.958007812 l 2
 620.64453125 462.958007812 640.897460938 442.706054688 640.897460938 417.549804688 c 2
 640.897460938 390.305664062 l 2
 640.897460938 365.149414062 620.64453125 344.897460938 595.489257812 344.897460938 c 2
 504.672851562 344.897460938 l 2
 479.516601562 344.897460938 459.264648438 365.149414062 459.264648438 390.305664062 c 2
 459.264648438 417.549804688 l 2
 459.264648438 442.706054688 479.516601562 462.958007812 504.672851562 462.958007812 c 2
141.408203125 326.734375 m 2
 232.224609375 326.734375 l 2
 257.379882812 326.734375 277.6328125 306.482421875 277.6328125 281.326171875 c 2
 277.6328125 254.081054688 l 2
 277.6328125 228.924804688 257.379882812 208.672851562 232.224609375 208.672851562 c 2
 141.408203125 208.672851562 l 2
 116.251953125 208.672851562 96 228.924804688 96 254.081054688 c 2
 96 281.326171875 l 2
 96 306.482421875 116.251953125 326.734375 141.408203125 326.734375 c 2
504.672851562 326.734375 m 2
 595.489257812 326.734375 l 2
 620.64453125 326.734375 640.897460938 306.482421875 640.897460938 281.326171875 c 2
 640.897460938 254.081054688 l 2
 640.897460938 228.924804688 620.64453125 208.672851562 595.489257812 208.672851562 c 2
 504.672851562 208.672851562 l 2
 479.516601562 208.672851562 459.264648438 228.924804688 459.264648438 254.081054688 c 2
 459.264648438 281.326171875 l 2
 459.264648438 306.482421875 479.516601562 326.734375 504.672851562 326.734375 c 2
141.408203125 190.509765625 m 2
 232.224609375 190.509765625 l 2
 257.379882812 190.509765625 277.6328125 170.2578125 277.6328125 145.1015625 c 2
 277.6328125 117.856445312 l 2
 277.6328125 92.701171875 257.379882812 72.44921875 232.224609375 72.44921875 c 2
 141.408203125 72.44921875 l 2
 116.251953125 72.44921875 96 92.701171875 96 117.856445312 c 2
 96 145.1015625 l 2
 96 170.2578125 116.251953125 190.509765625 141.408203125 190.509765625 c 2
504.672851562 190.509765625 m 2
 595.489257812 190.509765625 l 2
 620.64453125 190.509765625 640.897460938 170.2578125 640.897460938 145.1015625 c 2
 640.897460938 117.856445312 l 2
 640.897460938 92.701171875 620.64453125 72.44921875 595.489257812 72.44921875 c 2
 504.672851562 72.44921875 l 2
 479.516601562 72.44921875 459.264648438 92.701171875 459.264648438 117.856445312 c 2
 459.264648438 145.1015625 l 2
 459.264648438 170.2578125 479.516601562 190.509765625 504.672851562 190.509765625 c 2
141.408203125 54.28515625 m 2
 232.224609375 54.28515625 l 2
 257.379882812 54.28515625 277.6328125 34.033203125 277.6328125 8.876953125 c 2
 277.6328125 -18.3671875 l 2
 277.6328125 -43.5234375 257.379882812 -63.775390625 232.224609375 -63.775390625 c 2
 141.408203125 -63.775390625 l 2
 116.251953125 -63.775390625 96 -43.5234375 96 -18.3671875 c 2
 96 8.876953125 l 2
 96 34.033203125 116.251953125 54.28515625 141.408203125 54.28515625 c 2
504.672851562 54.28515625 m 2
 595.489257812 54.28515625 l 2
 620.64453125 54.28515625 640.897460938 34.033203125 640.897460938 8.876953125 c 2
 640.897460938 -18.3671875 l 2
 640.897460938 -43.5234375 620.64453125 -63.775390625 595.489257812 -63.775390625 c 2
 504.672851562 -63.775390625 l 2
 479.516601562 -63.775390625 459.264648438 -43.5234375 459.264648438 -18.3671875 c 2
 459.264648438 8.876953125 l 2
 459.264648438 34.033203125 479.516601562 54.28515625 504.672851562 54.28515625 c 2
141.408203125 -81.9384765625 m 2
 595.489257812 -81.9384765625 l 2
 620.64453125 -81.9384765625 640.897460938 -102.190429688 640.897460938 -127.346679688 c 2
 640.897460938 -154.591796875 l 2
 640.897460938 -179.748046875 620.64453125 -200 595.489257812 -200 c 2
 141.408203125 -200 l 2
 116.251953125 -200 96 -179.748046875 96 -154.591796875 c 2
 96 -127.346679688 l 2
 96 -102.190429688 116.251953125 -81.9384765625 141.408203125 -81.9384765625 c 2
EndSplineSet
EndChar

StartChar: P
Encoding: 80 80 15
Width: 730
Flags: HW
LayerCount: 2
Fore
SplineSet
137.408203125 599.182617188 m 2
 500.672851562 599.182617188 l 2
 525.829101562 599.182617188 546.081054688 578.930664062 546.081054688 553.774414062 c 2
 546.081054688 526.529296875 l 2
 546.081054688 501.373046875 525.829101562 481.12109375 500.672851562 481.12109375 c 2
 137.408203125 481.12109375 l 2
 112.251953125 481.12109375 92 501.373046875 92 526.529296875 c 2
 92 553.774414062 l 2
 92 578.930664062 112.251953125 599.182617188 137.408203125 599.182617188 c 2
137.408203125 462.958007812 m 2
 228.224609375 462.958007812 l 2
 253.380859375 462.958007812 273.6328125 442.706054688 273.6328125 417.549804688 c 2
 273.6328125 390.305664062 l 2
 273.6328125 365.149414062 253.380859375 344.897460938 228.224609375 344.897460938 c 2
 137.408203125 344.897460938 l 2
 112.251953125 344.897460938 92 365.149414062 92 390.305664062 c 2
 92 417.549804688 l 2
 92 442.706054688 112.251953125 462.958007812 137.408203125 462.958007812 c 2
500.672851562 462.958007812 m 2
 591.489257812 462.958007812 l 2
 616.645507812 462.958007812 636.897460938 442.706054688 636.897460938 417.549804688 c 2
 636.897460938 390.305664062 l 2
 636.897460938 365.149414062 616.645507812 344.897460938 591.489257812 344.897460938 c 2
 500.672851562 344.897460938 l 2
 475.516601562 344.897460938 455.264648438 365.149414062 455.264648438 390.305664062 c 2
 455.264648438 417.549804688 l 2
 455.264648438 442.706054688 475.516601562 462.958007812 500.672851562 462.958007812 c 2
137.408203125 326.734375 m 2
 228.224609375 326.734375 l 2
 253.380859375 326.734375 273.6328125 306.482421875 273.6328125 281.326171875 c 2
 273.6328125 254.081054688 l 2
 273.6328125 228.924804688 253.380859375 208.672851562 228.224609375 208.672851562 c 2
 137.408203125 208.672851562 l 2
 112.251953125 208.672851562 92 228.924804688 92 254.081054688 c 2
 92 281.326171875 l 2
 92 306.482421875 112.251953125 326.734375 137.408203125 326.734375 c 2
500.672851562 326.734375 m 2
 591.489257812 326.734375 l 2
 616.645507812 326.734375 636.897460938 306.482421875 636.897460938 281.326171875 c 2
 636.897460938 254.081054688 l 2
 636.897460938 228.924804688 616.645507812 208.672851562 591.489257812 208.672851562 c 2
 500.672851562 208.672851562 l 2
 475.516601562 208.672851562 455.264648438 228.924804688 455.264648438 254.081054688 c 2
 455.264648438 281.326171875 l 2
 455.264648438 306.482421875 475.516601562 326.734375 500.672851562 326.734375 c 2
137.408203125 190.509765625 m 2
 500.672851562 190.509765625 l 2
 525.829101562 190.509765625 546.081054688 170.2578125 546.081054688 145.1015625 c 2
 546.081054688 117.856445312 l 2
 546.081054688 92.701171875 525.829101562 72.44921875 500.672851562 72.44921875 c 2
 137.408203125 72.44921875 l 2
 112.251953125 72.44921875 92 92.701171875 92 117.856445312 c 2
 92 145.1015625 l 2
 92 170.2578125 112.251953125 190.509765625 137.408203125 190.509765625 c 2
137.408203125 54.28515625 m 2
 228.224609375 54.28515625 l 2
 253.380859375 54.28515625 273.6328125 34.033203125 273.6328125 8.876953125 c 2
 273.6328125 -18.3671875 l 2
 273.6328125 -43.5234375 253.380859375 -63.775390625 228.224609375 -63.775390625 c 2
 137.408203125 -63.775390625 l 2
 112.251953125 -63.775390625 92 -43.5234375 92 -18.3671875 c 2
 92 8.876953125 l 2
 92 34.033203125 112.251953125 54.28515625 137.408203125 54.28515625 c 2
137.408203125 -81.9384765625 m 2
 228.224609375 -81.9384765625 l 2
 253.380859375 -81.9384765625 273.6328125 -102.190429688 273.6328125 -127.346679688 c 2
 273.6328125 -154.591796875 l 2
 273.6328125 -179.748046875 253.380859375 -200 228.224609375 -200 c 2
 137.408203125 -200 l 2
 112.251953125 -200 92 -179.748046875 92 -154.591796875 c 2
 92 -127.346679688 l 2
 92 -102.190429688 112.251953125 -81.9384765625 137.408203125 -81.9384765625 c 2
EndSplineSet
EndChar

StartChar: Q
Encoding: 81 81 16
Width: 730
Flags: HW
LayerCount: 2
Fore
SplineSet
226.224609375 599.182617188 m 2
 498.672851562 599.182617188 l 2
 523.829101562 599.182617188 544.081054688 578.930664062 544.081054688 553.774414062 c 2
 544.081054688 526.529296875 l 2
 544.081054688 501.373046875 523.829101562 481.12109375 498.672851562 481.12109375 c 2
 226.224609375 481.12109375 l 2
 201.068359375 481.12109375 180.81640625 501.373046875 180.81640625 526.529296875 c 2
 180.81640625 553.774414062 l 2
 180.81640625 578.930664062 201.068359375 599.182617188 226.224609375 599.182617188 c 2
135.408203125 462.958007812 m 2
 226.224609375 462.958007812 l 2
 251.379882812 462.958007812 271.6328125 442.706054688 271.6328125 417.549804688 c 2
 271.6328125 390.305664062 l 2
 271.6328125 365.149414062 251.379882812 344.897460938 226.224609375 344.897460938 c 2
 135.408203125 344.897460938 l 2
 110.251953125 344.897460938 90 365.149414062 90 390.305664062 c 2
 90 417.549804688 l 2
 90 442.706054688 110.251953125 462.958007812 135.408203125 462.958007812 c 2
498.672851562 462.958007812 m 2
 589.489257812 462.958007812 l 2
 614.64453125 462.958007812 634.897460938 442.706054688 634.897460938 417.549804688 c 2
 634.897460938 390.305664062 l 2
 634.897460938 365.149414062 614.64453125 344.897460938 589.489257812 344.897460938 c 2
 498.672851562 344.897460938 l 2
 473.516601562 344.897460938 453.264648438 365.149414062 453.264648438 390.305664062 c 2
 453.264648438 417.549804688 l 2
 453.264648438 442.706054688 473.516601562 462.958007812 498.672851562 462.958007812 c 2
135.408203125 326.734375 m 2
 226.224609375 326.734375 l 2
 251.379882812 326.734375 271.6328125 306.482421875 271.6328125 281.326171875 c 2
 271.6328125 254.081054688 l 2
 271.6328125 228.924804688 251.379882812 208.672851562 226.224609375 208.672851562 c 2
 135.408203125 208.672851562 l 2
 110.251953125 208.672851562 90 228.924804688 90 254.081054688 c 2
 90 281.326171875 l 2
 90 306.482421875 110.251953125 326.734375 135.408203125 326.734375 c 2
498.672851562 326.734375 m 2
 589.489257812 326.734375 l 2
 614.64453125 326.734375 634.897460938 306.482421875 634.897460938 281.326171875 c 2
 634.897460938 254.081054688 l 2
 634.897460938 228.924804688 614.64453125 208.672851562 589.489257812 208.672851562 c 2
 498.672851562 208.672851562 l 2
 473.516601562 208.672851562 453.264648438 228.924804688 453.264648438 254.081054688 c 2
 453.264648438 281.326171875 l 2
 453.264648438 306.482421875 473.516601562 326.734375 498.672851562 326.734375 c 2
135.408203125 190.509765625 m 2
 226.224609375 190.509765625 l 2
 251.379882812 190.509765625 271.6328125 170.2578125 271.6328125 145.1015625 c 2
 271.6328125 117.856445312 l 2
 271.6328125 92.701171875 251.379882812 72.44921875 226.224609375 72.44921875 c 2
 135.408203125 72.44921875 l 2
 110.251953125 72.44921875 90 92.701171875 90 117.856445312 c 2
 90 145.1015625 l 2
 90 170.2578125 110.251953125 190.509765625 135.408203125 190.509765625 c 2
498.672851562 190.509765625 m 2
 589.489257812 190.509765625 l 2
 614.64453125 190.509765625 634.897460938 170.2578125 634.897460938 145.1015625 c 2
 634.897460938 117.856445312 l 2
 634.897460938 92.701171875 614.64453125 72.44921875 589.489257812 72.44921875 c 2
 498.672851562 72.44921875 l 2
 473.516601562 72.44921875 453.264648438 92.701171875 453.264648438 117.856445312 c 2
 453.264648438 145.1015625 l 2
 453.264648438 170.2578125 473.516601562 190.509765625 498.672851562 190.509765625 c 2
135.408203125 54.28515625 m 2
 226.224609375 54.28515625 l 2
 251.379882812 54.28515625 271.6328125 34.033203125 271.6328125 8.876953125 c 2
 271.6328125 -18.3671875 l 2
 271.6328125 -43.5234375 251.379882812 -63.775390625 226.224609375 -63.775390625 c 2
 135.408203125 -63.775390625 l 2
 110.251953125 -63.775390625 90 -43.5234375 90 -18.3671875 c 2
 90 8.876953125 l 2
 90 34.033203125 110.251953125 54.28515625 135.408203125 54.28515625 c 2
498.672851562 54.28515625 m 2
 589.489257812 54.28515625 l 2
 614.64453125 54.28515625 634.897460938 34.033203125 634.897460938 8.876953125 c 2
 634.897460938 -18.3671875 l 2
 634.897460938 -43.5234375 614.64453125 -63.775390625 589.489257812 -63.775390625 c 2
 498.672851562 -63.775390625 l 2
 473.516601562 -63.775390625 453.264648438 -43.5234375 453.264648438 -18.3671875 c 2
 453.264648438 8.876953125 l 2
 453.264648438 34.033203125 473.516601562 54.28515625 498.672851562 54.28515625 c 2
226.224609375 -81.9384765625 m 2
 498.672851562 -81.9384765625 l 2
 523.829101562 -81.9384765625 544.081054688 -102.190429688 544.081054688 -127.346679688 c 2
 544.081054688 -154.591796875 l 2
 544.081054688 -179.748046875 523.829101562 -200 498.672851562 -200 c 2
 226.224609375 -200 l 2
 201.068359375 -200 180.81640625 -179.748046875 180.81640625 -154.591796875 c 2
 180.81640625 -127.346679688 l 2
 180.81640625 -102.190429688 201.068359375 -81.9384765625 226.224609375 -81.9384765625 c 2
498.672851562 -209.081054688 m 2
 589.489257812 -209.081054688 l 2
 614.64453125 -209.081054688 634.897460938 -229.333007812 634.897460938 -254.489257812 c 2
 634.897460938 -281.734375 l 2
 634.897460938 -306.890625 614.64453125 -327.142578125 589.489257812 -327.142578125 c 2
 498.672851562 -327.142578125 l 2
 473.516601562 -327.142578125 453.264648438 -306.890625 453.264648438 -281.734375 c 2
 453.264648438 -254.489257812 l 2
 453.264648438 -229.333007812 473.516601562 -209.081054688 498.672851562 -209.081054688 c 2
EndSplineSet
EndChar

StartChar: R
Encoding: 82 82 17
Width: 740
Flags: HW
LayerCount: 2
Fore
SplineSet
138.408203125 599.182617188 m 2
 501.672851562 599.182617188 l 2
 526.829101562 599.182617188 547.081054688 578.930664062 547.081054688 553.774414062 c 2
 547.081054688 526.529296875 l 2
 547.081054688 501.373046875 526.829101562 481.12109375 501.672851562 481.12109375 c 2
 138.408203125 481.12109375 l 2
 113.251953125 481.12109375 93 501.373046875 93 526.529296875 c 2
 93 553.774414062 l 2
 93 578.930664062 113.251953125 599.182617188 138.408203125 599.182617188 c 2
138.408203125 462.958007812 m 2
 229.224609375 462.958007812 l 2
 254.380859375 462.958007812 274.6328125 442.706054688 274.6328125 417.549804688 c 2
 274.6328125 390.305664062 l 2
 274.6328125 365.149414062 254.380859375 344.897460938 229.224609375 344.897460938 c 2
 138.408203125 344.897460938 l 2
 113.251953125 344.897460938 93 365.149414062 93 390.305664062 c 2
 93 417.549804688 l 2
 93 442.706054688 113.251953125 462.958007812 138.408203125 462.958007812 c 2
501.672851562 462.958007812 m 2
 592.489257812 462.958007812 l 2
 617.645507812 462.958007812 637.897460938 442.706054688 637.897460938 417.549804688 c 2
 637.897460938 390.305664062 l 2
 637.897460938 365.149414062 617.645507812 344.897460938 592.489257812 344.897460938 c 2
 501.672851562 344.897460938 l 2
 476.516601562 344.897460938 456.264648438 365.149414062 456.264648438 390.305664062 c 2
 456.264648438 417.549804688 l 2
 456.264648438 442.706054688 476.516601562 462.958007812 501.672851562 462.958007812 c 2
138.408203125 326.734375 m 2
 229.224609375 326.734375 l 2
 254.380859375 326.734375 274.6328125 306.482421875 274.6328125 281.326171875 c 2
 274.6328125 254.081054688 l 2
 274.6328125 228.924804688 254.380859375 208.672851562 229.224609375 208.672851562 c 2
 138.408203125 208.672851562 l 2
 113.251953125 208.672851562 93 228.924804688 93 254.081054688 c 2
 93 281.326171875 l 2
 93 306.482421875 113.251953125 326.734375 138.408203125 326.734375 c 2
501.672851562 326.734375 m 2
 592.489257812 326.734375 l 2
 617.645507812 326.734375 637.897460938 306.482421875 637.897460938 281.326171875 c 2
 637.897460938 254.081054688 l 2
 637.897460938 228.924804688 617.645507812 208.672851562 592.489257812 208.672851562 c 2
 501.672851562 208.672851562 l 2
 476.516601562 208.672851562 456.264648438 228.924804688 456.264648438 254.081054688 c 2
 456.264648438 281.326171875 l 2
 456.264648438 306.482421875 476.516601562 326.734375 501.672851562 326.734375 c 2
138.408203125 190.509765625 m 2
 501.672851562 190.509765625 l 2
 526.829101562 190.509765625 547.081054688 170.2578125 547.081054688 145.1015625 c 2
 547.081054688 117.856445312 l 2
 547.081054688 92.701171875 526.829101562 72.44921875 501.672851562 72.44921875 c 2
 138.408203125 72.44921875 l 2
 113.251953125 72.44921875 93 92.701171875 93 117.856445312 c 2
 93 145.1015625 l 2
 93 170.2578125 113.251953125 190.509765625 138.408203125 190.509765625 c 2
138.408203125 54.28515625 m 2
 229.224609375 54.28515625 l 2
 254.380859375 54.28515625 274.6328125 34.033203125 274.6328125 8.876953125 c 2
 274.6328125 -18.3671875 l 2
 274.6328125 -43.5234375 254.380859375 -63.775390625 229.224609375 -63.775390625 c 2
 138.408203125 -63.775390625 l 2
 113.251953125 -63.775390625 93 -43.5234375 93 -18.3671875 c 2
 93 8.876953125 l 2
 93 34.033203125 113.251953125 54.28515625 138.408203125 54.28515625 c 2
410.856445312 54.28515625 m 2
 501.672851562 54.28515625 l 2
 526.829101562 54.28515625 547.081054688 34.033203125 547.081054688 8.876953125 c 2
 547.081054688 -18.3671875 l 2
 547.081054688 -43.5234375 526.829101562 -63.775390625 501.672851562 -63.775390625 c 2
 410.856445312 -63.775390625 l 2
 385.700195312 -63.775390625 365.448242188 -43.5234375 365.448242188 -18.3671875 c 2
 365.448242188 8.876953125 l 2
 365.448242188 34.033203125 385.700195312 54.28515625 410.856445312 54.28515625 c 2
138.408203125 -81.9384765625 m 2
 229.224609375 -81.9384765625 l 2
 254.380859375 -81.9384765625 274.6328125 -102.190429688 274.6328125 -127.346679688 c 2
 274.6328125 -154.591796875 l 2
 274.6328125 -179.748046875 254.380859375 -200 229.224609375 -200 c 2
 138.408203125 -200 l 2
 113.251953125 -200 93 -179.748046875 93 -154.591796875 c 2
 93 -127.346679688 l 2
 93 -102.190429688 113.251953125 -81.9384765625 138.408203125 -81.9384765625 c 2
501.672851562 -81.9384765625 m 2
 592.489257812 -81.9384765625 l 2
 617.645507812 -81.9384765625 637.897460938 -102.190429688 637.897460938 -127.346679688 c 2
 637.897460938 -154.591796875 l 2
 637.897460938 -179.748046875 617.645507812 -200 592.489257812 -200 c 2
 501.672851562 -200 l 2
 476.516601562 -200 456.264648438 -179.748046875 456.264648438 -154.591796875 c 2
 456.264648438 -127.346679688 l 2
 456.264648438 -102.190429688 476.516601562 -81.9384765625 501.672851562 -81.9384765625 c 2
EndSplineSet
EndChar

StartChar: S
Encoding: 83 83 18
Width: 698
Flags: HW
LayerCount: 2
Fore
SplineSet
198.224609375 601.182617188 m 2
 561.489257812 601.182617188 l 2
 586.64453125 601.182617188 606.897460938 580.930664062 606.897460938 555.774414062 c 2
 606.897460938 528.529296875 l 2
 606.897460938 503.373046875 586.64453125 483.12109375 561.489257812 483.12109375 c 2
 198.224609375 483.12109375 l 2
 173.068359375 483.12109375 152.81640625 503.373046875 152.81640625 528.529296875 c 2
 152.81640625 555.774414062 l 2
 152.81640625 580.930664062 173.068359375 601.182617188 198.224609375 601.182617188 c 2
107.408203125 464.958007812 m 2
 198.224609375 464.958007812 l 2
 223.379882812 464.958007812 243.631835938 444.706054688 243.631835938 419.549804688 c 2
 243.631835938 392.305664062 l 2
 243.631835938 367.149414062 223.379882812 346.897460938 198.224609375 346.897460938 c 2
 107.408203125 346.897460938 l 2
 82.251953125 346.897460938 62 367.149414062 62 392.305664062 c 2
 62 419.549804688 l 2
 62 444.706054688 82.251953125 464.958007812 107.408203125 464.958007812 c 2
198.224609375 328.734375 m 2
 470.672851562 328.734375 l 2
 495.829101562 328.734375 516.081054688 308.482421875 516.081054688 283.326171875 c 2
 516.081054688 256.081054688 l 2
 516.081054688 230.924804688 495.829101562 210.672851562 470.672851562 210.672851562 c 2
 198.224609375 210.672851562 l 2
 173.068359375 210.672851562 152.81640625 230.924804688 152.81640625 256.081054688 c 2
 152.81640625 283.326171875 l 2
 152.81640625 308.482421875 173.068359375 328.734375 198.224609375 328.734375 c 2
470.672851562 192.509765625 m 2
 561.489257812 192.509765625 l 2
 586.64453125 192.509765625 606.897460938 172.2578125 606.897460938 147.1015625 c 2
 606.897460938 119.856445312 l 2
 606.897460938 94.701171875 586.64453125 74.44921875 561.489257812 74.44921875 c 2
 470.672851562 74.44921875 l 2
 445.516601562 74.44921875 425.264648438 94.701171875 425.264648438 119.856445312 c 2
 425.264648438 147.1015625 l 2
 425.264648438 172.2578125 445.516601562 192.509765625 470.672851562 192.509765625 c 2
107.408203125 56.28515625 m 2
 198.224609375 56.28515625 l 2
 223.379882812 56.28515625 243.631835938 36.033203125 243.631835938 10.876953125 c 2
 243.631835938 -16.3671875 l 2
 243.631835938 -41.5234375 223.379882812 -61.775390625 198.224609375 -61.775390625 c 2
 107.408203125 -61.775390625 l 2
 82.251953125 -61.775390625 62 -41.5234375 62 -16.3671875 c 2
 62 10.876953125 l 2
 62 36.033203125 82.251953125 56.28515625 107.408203125 56.28515625 c 2
470.672851562 56.28515625 m 2
 561.489257812 56.28515625 l 2
 586.64453125 56.28515625 606.897460938 36.033203125 606.897460938 10.876953125 c 2
 606.897460938 -16.3671875 l 2
 606.897460938 -41.5234375 586.64453125 -61.775390625 561.489257812 -61.775390625 c 2
 470.672851562 -61.775390625 l 2
 445.516601562 -61.775390625 425.264648438 -41.5234375 425.264648438 -16.3671875 c 2
 425.264648438 10.876953125 l 2
 425.264648438 36.033203125 445.516601562 56.28515625 470.672851562 56.28515625 c 2
198.224609375 -79.9384765625 m 2
 470.672851562 -79.9384765625 l 2
 495.829101562 -79.9384765625 516.081054688 -100.190429688 516.081054688 -125.346679688 c 2
 516.081054688 -152.591796875 l 2
 516.081054688 -177.748046875 495.829101562 -198 470.672851562 -198 c 2
 198.224609375 -198 l 2
 173.068359375 -198 152.81640625 -177.748046875 152.81640625 -152.591796875 c 2
 152.81640625 -125.346679688 l 2
 152.81640625 -100.190429688 173.068359375 -79.9384765625 198.224609375 -79.9384765625 c 2
EndSplineSet
Validated: 1
EndChar

StartChar: T
Encoding: 84 84 19
Width: 686
Flags: HW
LayerCount: 2
Fore
SplineSet
115.408203125 599.182617188 m 2
 569.489257812 599.182617188 l 2
 594.645507812 599.182617188 614.897460938 578.930664062 614.897460938 553.774414062 c 2
 614.897460938 526.529296875 l 2
 614.897460938 501.373046875 594.645507812 481.12109375 569.489257812 481.12109375 c 2
 115.408203125 481.12109375 l 2
 90.251953125 481.12109375 70 501.373046875 70 526.529296875 c 2
 70 553.774414062 l 2
 70 578.930664062 90.251953125 599.182617188 115.408203125 599.182617188 c 2
297.040039062 462.958007812 m 2
 387.856445312 462.958007812 l 2
 413.012695312 462.958007812 433.264648438 442.706054688 433.264648438 417.549804688 c 2
 433.264648438 390.305664062 l 2
 433.264648438 365.149414062 413.012695312 344.897460938 387.856445312 344.897460938 c 2
 297.040039062 344.897460938 l 2
 271.884765625 344.897460938 251.6328125 365.149414062 251.6328125 390.305664062 c 2
 251.6328125 417.549804688 l 2
 251.6328125 442.706054688 271.884765625 462.958007812 297.040039062 462.958007812 c 2
297.040039062 326.734375 m 2
 387.856445312 326.734375 l 2
 413.012695312 326.734375 433.264648438 306.482421875 433.264648438 281.326171875 c 2
 433.264648438 254.081054688 l 2
 433.264648438 228.924804688 413.012695312 208.672851562 387.856445312 208.672851562 c 2
 297.040039062 208.672851562 l 2
 271.884765625 208.672851562 251.6328125 228.924804688 251.6328125 254.081054688 c 2
 251.6328125 281.326171875 l 2
 251.6328125 306.482421875 271.884765625 326.734375 297.040039062 326.734375 c 2
297.040039062 190.509765625 m 2
 387.856445312 190.509765625 l 2
 413.012695312 190.509765625 433.264648438 170.2578125 433.264648438 145.1015625 c 2
 433.264648438 117.856445312 l 2
 433.264648438 92.701171875 413.012695312 72.44921875 387.856445312 72.44921875 c 2
 297.040039062 72.44921875 l 2
 271.884765625 72.44921875 251.6328125 92.701171875 251.6328125 117.856445312 c 2
 251.6328125 145.1015625 l 2
 251.6328125 170.2578125 271.884765625 190.509765625 297.040039062 190.509765625 c 2
297.040039062 54.28515625 m 2
 387.856445312 54.28515625 l 2
 413.012695312 54.28515625 433.264648438 34.033203125 433.264648438 8.876953125 c 2
 433.264648438 -18.3671875 l 2
 433.264648438 -43.5234375 413.012695312 -63.775390625 387.856445312 -63.775390625 c 2
 297.040039062 -63.775390625 l 2
 271.884765625 -63.775390625 251.6328125 -43.5234375 251.6328125 -18.3671875 c 2
 251.6328125 8.876953125 l 2
 251.6328125 34.033203125 271.884765625 54.28515625 297.040039062 54.28515625 c 2
297.040039062 -81.9384765625 m 2
 387.856445312 -81.9384765625 l 2
 413.012695312 -81.9384765625 433.264648438 -102.190429688 433.264648438 -127.346679688 c 2
 433.264648438 -154.591796875 l 2
 433.264648438 -179.748046875 413.012695312 -200 387.856445312 -200 c 2
 297.040039062 -200 l 2
 271.884765625 -200 251.6328125 -179.748046875 251.6328125 -154.591796875 c 2
 251.6328125 -127.346679688 l 2
 251.6328125 -102.190429688 271.884765625 -81.9384765625 297.040039062 -81.9384765625 c 2
EndSplineSet
EndChar

StartChar: U
Encoding: 85 85 20
Width: 744
Flags: HW
LayerCount: 2
Fore
SplineSet
141.408203125 599.182617188 m 2
 232.223632812 599.182617188 l 2
 257.380859375 599.182617188 277.6328125 578.930664062 277.6328125 553.774414062 c 2
 277.6328125 526.529296875 l 2
 277.6328125 501.373046875 257.380859375 481.12109375 232.223632812 481.12109375 c 2
 141.408203125 481.12109375 l 2
 116.251953125 481.12109375 96 501.373046875 96 526.529296875 c 2
 96 553.774414062 l 2
 96 578.930664062 116.251953125 599.182617188 141.408203125 599.182617188 c 2
504.672851562 599.182617188 m 2
 595.48828125 599.182617188 l 2
 620.645507812 599.182617188 640.896484375 578.930664062 640.896484375 553.774414062 c 2
 640.896484375 526.529296875 l 2
 640.896484375 501.373046875 620.645507812 481.12109375 595.48828125 481.12109375 c 2
 504.672851562 481.12109375 l 2
 479.516601562 481.12109375 459.264648438 501.373046875 459.264648438 526.529296875 c 2
 459.264648438 553.774414062 l 2
 459.264648438 578.930664062 479.516601562 599.182617188 504.672851562 599.182617188 c 2
141.408203125 462.958007812 m 2
 232.223632812 462.958007812 l 2
 257.380859375 462.958007812 277.6328125 442.706054688 277.6328125 417.549804688 c 2
 277.6328125 390.305664062 l 2
 277.6328125 365.149414062 257.380859375 344.897460938 232.223632812 344.897460938 c 2
 141.408203125 344.897460938 l 2
 116.251953125 344.897460938 96 365.149414062 96 390.305664062 c 2
 96 417.549804688 l 2
 96 442.706054688 116.251953125 462.958007812 141.408203125 462.958007812 c 2
504.672851562 462.958007812 m 2
 595.48828125 462.958007812 l 2
 620.645507812 462.958007812 640.896484375 442.706054688 640.896484375 417.549804688 c 2
 640.896484375 390.305664062 l 2
 640.896484375 365.149414062 620.645507812 344.897460938 595.48828125 344.897460938 c 2
 504.672851562 344.897460938 l 2
 479.516601562 344.897460938 459.264648438 365.149414062 459.264648438 390.305664062 c 2
 459.264648438 417.549804688 l 2
 459.264648438 442.706054688 479.516601562 462.958007812 504.672851562 462.958007812 c 2
141.408203125 326.734375 m 2
 232.223632812 326.734375 l 2
 257.380859375 326.734375 277.6328125 306.482421875 277.6328125 281.326171875 c 2
 277.6328125 254.081054688 l 2
 277.6328125 228.924804688 257.380859375 208.672851562 232.223632812 208.672851562 c 2
 141.408203125 208.672851562 l 2
 116.251953125 208.672851562 96 228.924804688 96 254.081054688 c 2
 96 281.326171875 l 2
 96 306.482421875 116.251953125 326.734375 141.408203125 326.734375 c 2
504.672851562 326.734375 m 2
 595.48828125 326.734375 l 2
 620.645507812 326.734375 640.896484375 306.482421875 640.896484375 281.326171875 c 2
 640.896484375 254.081054688 l 2
 640.896484375 228.924804688 620.645507812 208.672851562 595.48828125 208.672851562 c 2
 504.672851562 208.672851562 l 2
 479.516601562 208.672851562 459.264648438 228.924804688 459.264648438 254.081054688 c 2
 459.264648438 281.326171875 l 2
 459.264648438 306.482421875 479.516601562 326.734375 504.672851562 326.734375 c 2
141.408203125 190.509765625 m 2
 232.223632812 190.509765625 l 2
 257.380859375 190.509765625 277.6328125 170.2578125 277.6328125 145.1015625 c 2
 277.6328125 117.856445312 l 2
 277.6328125 92.701171875 257.380859375 72.44921875 232.223632812 72.44921875 c 2
 141.408203125 72.44921875 l 2
 116.251953125 72.44921875 96 92.701171875 96 117.856445312 c 2
 96 145.1015625 l 2
 96 170.2578125 116.251953125 190.509765625 141.408203125 190.509765625 c 2
504.672851562 190.509765625 m 2
 595.48828125 190.509765625 l 2
 620.645507812 190.509765625 640.896484375 170.2578125 640.896484375 145.1015625 c 2
 640.896484375 117.856445312 l 2
 640.896484375 92.701171875 620.645507812 72.44921875 595.48828125 72.44921875 c 2
 504.672851562 72.44921875 l 2
 479.516601562 72.44921875 459.264648438 92.701171875 459.264648438 117.856445312 c 2
 459.264648438 145.1015625 l 2
 459.264648438 170.2578125 479.516601562 190.509765625 504.672851562 190.509765625 c 2
141.408203125 54.28515625 m 2
 232.223632812 54.28515625 l 2
 257.380859375 54.28515625 277.6328125 34.033203125 277.6328125 8.876953125 c 2
 277.6328125 -18.3671875 l 2
 277.6328125 -43.5234375 257.380859375 -63.775390625 232.223632812 -63.775390625 c 2
 141.408203125 -63.775390625 l 2
 116.251953125 -63.775390625 96 -43.5234375 96 -18.3671875 c 2
 96 8.876953125 l 2
 96 34.033203125 116.251953125 54.28515625 141.408203125 54.28515625 c 2
504.672851562 54.28515625 m 2
 595.48828125 54.28515625 l 2
 620.645507812 54.28515625 640.896484375 34.033203125 640.896484375 8.876953125 c 2
 640.896484375 -18.3671875 l 2
 640.896484375 -43.5234375 620.645507812 -63.775390625 595.48828125 -63.775390625 c 2
 504.672851562 -63.775390625 l 2
 479.516601562 -63.775390625 459.264648438 -43.5234375 459.264648438 -18.3671875 c 2
 459.264648438 8.876953125 l 2
 459.264648438 34.033203125 479.516601562 54.28515625 504.672851562 54.28515625 c 2
141.408203125 -81.9384765625 m 2
 595.48828125 -81.9384765625 l 2
 620.645507812 -81.9384765625 640.896484375 -102.190429688 640.896484375 -127.346679688 c 2
 640.896484375 -154.591796875 l 2
 640.896484375 -179.748046875 620.645507812 -200 595.48828125 -200 c 2
 141.408203125 -200 l 2
 116.251953125 -200 96 -179.748046875 96 -154.591796875 c 2
 96 -127.346679688 l 2
 96 -102.190429688 116.251953125 -81.9384765625 141.408203125 -81.9384765625 c 2
EndSplineSet
EndChar

StartChar: V
Encoding: 86 86 21
Width: 690
Flags: HW
LayerCount: 2
Fore
SplineSet
115.408203125 599.182617188 m 2
 206.224609375 599.182617188 l 2
 231.379882812 599.182617188 251.6328125 578.930664062 251.6328125 553.774414062 c 2
 251.6328125 526.529296875 l 2
 251.6328125 501.373046875 231.379882812 481.12109375 206.224609375 481.12109375 c 2
 115.408203125 481.12109375 l 2
 90.251953125 481.12109375 70 501.373046875 70 526.529296875 c 2
 70 553.774414062 l 2
 70 578.930664062 90.251953125 599.182617188 115.408203125 599.182617188 c 2
478.672851562 599.182617188 m 2
 569.489257812 599.182617188 l 2
 594.645507812 599.182617188 614.897460938 578.930664062 614.897460938 553.774414062 c 2
 614.897460938 526.529296875 l 2
 614.897460938 501.373046875 594.645507812 481.12109375 569.489257812 481.12109375 c 2
 478.672851562 481.12109375 l 2
 453.516601562 481.12109375 433.264648438 501.373046875 433.264648438 526.529296875 c 2
 433.264648438 553.774414062 l 2
 433.264648438 578.930664062 453.516601562 599.182617188 478.672851562 599.182617188 c 2
142.653320312 462.958007812 m 2
 233.46875 462.958007812 l 2
 258.625976562 462.958007812 278.876953125 442.706054688 278.876953125 417.549804688 c 2
 278.876953125 390.305664062 l 2
 278.876953125 365.149414062 258.625976562 344.897460938 233.46875 344.897460938 c 2
 142.653320312 344.897460938 l 2
 117.497070312 344.897460938 97.2451171875 365.149414062 97.2451171875 390.305664062 c 2
 97.2451171875 417.549804688 l 2
 97.2451171875 442.706054688 117.497070312 462.958007812 142.653320312 462.958007812 c 2
451.427734375 462.958007812 m 2
 542.244140625 462.958007812 l 2
 567.400390625 462.958007812 587.65234375 442.706054688 587.65234375 417.549804688 c 2
 587.65234375 390.305664062 l 2
 587.65234375 365.149414062 567.400390625 344.897460938 542.244140625 344.897460938 c 2
 451.427734375 344.897460938 l 2
 426.272460938 344.897460938 406.01953125 365.149414062 406.01953125 390.305664062 c 2
 406.01953125 417.549804688 l 2
 406.01953125 442.706054688 426.272460938 462.958007812 451.427734375 462.958007812 c 2
169.8984375 326.734375 m 2
 260.713867188 326.734375 l 2
 285.870117188 326.734375 306.123046875 306.482421875 306.123046875 281.326171875 c 2
 306.123046875 254.081054688 l 2
 306.123046875 228.924804688 285.870117188 208.672851562 260.713867188 208.672851562 c 2
 169.8984375 208.672851562 l 2
 144.7421875 208.672851562 124.490234375 228.924804688 124.490234375 254.081054688 c 2
 124.490234375 281.326171875 l 2
 124.490234375 306.482421875 144.7421875 326.734375 169.8984375 326.734375 c 2
424.18359375 326.734375 m 2
 515 326.734375 l 2
 540.155273438 326.734375 560.407226562 306.482421875 560.407226562 281.326171875 c 2
 560.407226562 254.081054688 l 2
 560.407226562 228.924804688 540.155273438 208.672851562 515 208.672851562 c 2
 424.18359375 208.672851562 l 2
 399.02734375 208.672851562 378.775390625 228.924804688 378.775390625 254.081054688 c 2
 378.775390625 281.326171875 l 2
 378.775390625 306.482421875 399.02734375 326.734375 424.18359375 326.734375 c 2
206.224609375 190.509765625 m 2
 297.041015625 190.509765625 l 2
 322.197265625 190.509765625 342.44921875 170.2578125 342.44921875 145.1015625 c 2
 342.44921875 117.856445312 l 2
 342.44921875 92.701171875 322.197265625 72.4482421875 297.041015625 72.4482421875 c 2
 206.224609375 72.4482421875 l 2
 181.068359375 72.4482421875 160.81640625 92.701171875 160.81640625 117.856445312 c 2
 160.81640625 145.1015625 l 2
 160.81640625 170.2578125 181.068359375 190.509765625 206.224609375 190.509765625 c 2
396.938476562 190.509765625 m 2
 487.754882812 190.509765625 l 2
 512.911132812 190.509765625 533.163085938 170.2578125 533.163085938 145.1015625 c 2
 533.163085938 117.856445312 l 2
 533.163085938 92.701171875 512.911132812 72.4482421875 487.754882812 72.4482421875 c 2
 396.938476562 72.4482421875 l 2
 371.782226562 72.4482421875 351.530273438 92.701171875 351.530273438 117.856445312 c 2
 351.530273438 145.1015625 l 2
 351.530273438 170.2578125 371.782226562 190.509765625 396.938476562 190.509765625 c 2
251.6328125 54.28515625 m 2
 442.346679688 54.28515625 l 2
 467.502929688 54.28515625 487.754882812 34.033203125 487.754882812 8.876953125 c 2
 487.754882812 -18.3671875 l 2
 487.754882812 -43.5234375 467.502929688 -63.775390625 442.346679688 -63.775390625 c 2
 251.6328125 -63.775390625 l 2
 226.4765625 -63.775390625 206.224609375 -43.5234375 206.224609375 -18.3671875 c 2
 206.224609375 8.876953125 l 2
 206.224609375 34.033203125 226.4765625 54.28515625 251.6328125 54.28515625 c 2
297.041015625 -81.9384765625 m 2
 387.856445312 -81.9384765625 l 2
 413.012695312 -81.9384765625 433.264648438 -102.190429688 433.264648438 -127.346679688 c 2
 433.264648438 -154.591796875 l 2
 433.264648438 -179.748046875 413.012695312 -200 387.856445312 -200 c 2
 297.041015625 -200 l 2
 271.884765625 -200 251.6328125 -179.748046875 251.6328125 -154.591796875 c 2
 251.6328125 -127.346679688 l 2
 251.6328125 -102.190429688 271.884765625 -81.9384765625 297.041015625 -81.9384765625 c 2
EndSplineSet
EndChar

StartChar: W
Encoding: 87 87 22
Width: 824
Flags: HW
LayerCount: 2
Fore
SplineSet
149.34765625 599.182617188 m 6
 240.1640625 599.182617188 l 6
 265.3203125 599.182617188 285.572265625 578.930664062 285.572265625 553.774414062 c 6
 285.572265625 526.529296875 l 6
 285.572265625 501.373046875 265.3203125 481.12109375 240.1640625 481.12109375 c 6
 149.34765625 481.12109375 l 6
 124.19140625 481.12109375 103.939453125 501.373046875 103.939453125 526.529296875 c 6
 103.939453125 553.774414062 l 6
 103.939453125 578.930664062 124.19140625 599.182617188 149.34765625 599.182617188 c 6
576.18359375 599.182617188 m 6
 667 599.182617188 l 6
 692.155273438 599.182617188 712.408203125 578.930664062 712.408203125 553.774414062 c 6
 712.408203125 526.529296875 l 6
 712.408203125 501.373046875 692.155273438 481.12109375 667 481.12109375 c 6
 576.18359375 481.12109375 l 6
 551.02734375 481.12109375 530.775390625 501.373046875 530.775390625 526.529296875 c 6
 530.775390625 553.774414062 l 6
 530.775390625 578.930664062 551.02734375 599.182617188 576.18359375 599.182617188 c 6
149.34765625 462.958007812 m 6
 240.1640625 462.958007812 l 6
 265.3203125 462.958007812 285.572265625 442.706054688 285.572265625 417.549804688 c 6
 285.572265625 390.305664062 l 6
 285.572265625 365.149414062 265.3203125 344.897460938 240.1640625 344.897460938 c 6
 149.34765625 344.897460938 l 6
 124.19140625 344.897460938 103.939453125 365.149414062 103.939453125 390.305664062 c 6
 103.939453125 417.549804688 l 6
 103.939453125 442.706054688 124.19140625 462.958007812 149.34765625 462.958007812 c 6
576.18359375 462.958007812 m 6
 667 462.958007812 l 6
 692.155273438 462.958007812 712.408203125 442.706054688 712.408203125 417.549804688 c 6
 712.408203125 390.305664062 l 6
 712.408203125 365.149414062 692.155273438 344.897460938 667 344.897460938 c 6
 576.18359375 344.897460938 l 6
 551.02734375 344.897460938 530.775390625 365.149414062 530.775390625 390.305664062 c 6
 530.775390625 417.549804688 l 6
 530.775390625 442.706054688 551.02734375 462.958007812 576.18359375 462.958007812 c 6
149.34765625 326.734375 m 6
 240.1640625 326.734375 l 6
 265.3203125 326.734375 285.572265625 306.482421875 285.572265625 281.326171875 c 6
 285.572265625 254.081054688 l 6
 285.572265625 228.924804688 265.3203125 208.672851562 240.1640625 208.672851562 c 6
 149.34765625 208.672851562 l 6
 124.19140625 208.672851562 103.939453125 228.924804688 103.939453125 254.081054688 c 6
 103.939453125 281.326171875 l 6
 103.939453125 306.482421875 124.19140625 326.734375 149.34765625 326.734375 c 6
576.18359375 326.734375 m 6
 667 326.734375 l 6
 692.155273438 326.734375 712.408203125 306.482421875 712.408203125 281.326171875 c 6
 712.408203125 254.081054688 l 6
 712.408203125 228.924804688 692.155273438 208.672851562 667 208.672851562 c 6
 576.18359375 208.672851562 l 6
 551.02734375 208.672851562 530.775390625 228.924804688 530.775390625 254.081054688 c 6
 530.775390625 281.326171875 l 6
 530.775390625 306.482421875 551.02734375 326.734375 576.18359375 326.734375 c 6
149.34765625 190.509765625 m 6
 240.1640625 190.509765625 l 6
 265.3203125 190.509765625 285.572265625 170.2578125 285.572265625 145.1015625 c 6
 285.572265625 117.856445312 l 6
 285.572265625 92.701171875 265.3203125 72.44921875 240.1640625 72.44921875 c 6
 149.34765625 72.44921875 l 6
 124.19140625 72.44921875 103.939453125 92.701171875 103.939453125 117.856445312 c 6
 103.939453125 145.1015625 l 6
 103.939453125 170.2578125 124.19140625 190.509765625 149.34765625 190.509765625 c 6
576.18359375 190.509765625 m 6
 667 190.509765625 l 6
 692.155273438 190.509765625 712.408203125 170.2578125 712.408203125 145.1015625 c 6
 712.408203125 117.856445312 l 6
 712.408203125 92.701171875 692.155273438 72.44921875 667 72.44921875 c 6
 576.18359375 72.44921875 l 6
 551.02734375 72.44921875 530.775390625 92.701171875 530.775390625 117.856445312 c 6
 530.775390625 145.1015625 l 6
 530.775390625 170.2578125 551.02734375 190.509765625 576.18359375 190.509765625 c 6
358.224609375 181.427734375 m 6
 449.041015625 181.427734375 l 6
 474.197265625 181.427734375 494.448242188 161.17578125 494.448242188 136.020507812 c 6
 494.448242188 108.775390625 l 6
 494.448242188 83.619140625 474.197265625 63.3671875 449.041015625 63.3671875 c 6
 358.224609375 63.3671875 l 6
 333.068359375 63.3671875 312.81640625 83.619140625 312.81640625 108.775390625 c 6
 312.81640625 136.020507812 l 6
 312.81640625 161.17578125 333.068359375 181.427734375 358.224609375 181.427734375 c 6
149.34765625 54.28515625 m 6
 330.979492188 54.28515625 l 6
 356.13671875 54.28515625 376.387695312 34.033203125 376.387695312 8.876953125 c 6
 376.387695312 -18.3671875 l 6
 376.387695312 -43.5234375 356.13671875 -63.775390625 330.979492188 -63.775390625 c 6
 149.34765625 -63.775390625 l 6
 124.19140625 -63.775390625 103.939453125 -43.5234375 103.939453125 -18.3671875 c 6
 103.939453125 8.876953125 l 6
 103.939453125 34.033203125 124.19140625 54.28515625 149.34765625 54.28515625 c 6
476.286132812 54.28515625 m 6
 667 54.28515625 l 6
 692.155273438 54.28515625 712.408203125 34.033203125 712.408203125 8.876953125 c 6
 712.408203125 -18.3671875 l 6
 712.408203125 -43.5234375 692.155273438 -63.775390625 667 -63.775390625 c 6
 476.286132812 -63.775390625 l 6
 451.129882812 -63.775390625 430.877929688 -43.5234375 430.877929688 -18.3671875 c 6
 430.877929688 8.876953125 l 6
 430.877929688 34.033203125 451.129882812 54.28515625 476.286132812 54.28515625 c 6
149.34765625 -81.9384765625 m 6
 240.1640625 -81.9384765625 l 6
 265.3203125 -81.9384765625 285.572265625 -102.190429688 285.572265625 -127.346679688 c 6
 285.572265625 -154.591796875 l 6
 285.572265625 -179.748046875 265.3203125 -200 240.1640625 -200 c 6
 149.34765625 -200 l 6
 124.19140625 -200 103.939453125 -179.748046875 103.939453125 -154.591796875 c 6
 103.939453125 -127.346679688 l 6
 103.939453125 -102.190429688 124.19140625 -81.9384765625 149.34765625 -81.9384765625 c 6
576.18359375 -81.9384765625 m 6
 667 -81.9384765625 l 6
 692.155273438 -81.9384765625 712.408203125 -102.190429688 712.408203125 -127.346679688 c 6
 712.408203125 -154.591796875 l 6
 712.408203125 -179.748046875 692.155273438 -200 667 -200 c 6
 576.18359375 -200 l 6
 551.02734375 -200 530.775390625 -179.748046875 530.775390625 -154.591796875 c 6
 530.775390625 -127.346679688 l 6
 530.775390625 -102.190429688 551.02734375 -81.9384765625 576.18359375 -81.9384765625 c 6
EndSplineSet
EndChar

StartChar: X
Encoding: 88 88 23
Width: 728
Flags: HW
LayerCount: 2
Fore
SplineSet
131.407226562 599.182617188 m 2
 222.224609375 599.182617188 l 2
 247.380859375 599.182617188 267.631835938 578.930664062 267.631835938 553.774414062 c 2
 267.631835938 526.529296875 l 2
 267.631835938 501.373046875 247.380859375 481.12109375 222.224609375 481.12109375 c 2
 131.407226562 481.12109375 l 2
 106.251953125 481.12109375 86 501.373046875 86 526.529296875 c 2
 86 553.774414062 l 2
 86 578.930664062 106.251953125 599.182617188 131.407226562 599.182617188 c 2
494.672851562 599.182617188 m 2
 585.48828125 599.182617188 l 2
 610.645507812 599.182617188 630.897460938 578.930664062 630.897460938 553.774414062 c 2
 630.897460938 526.529296875 l 2
 630.897460938 501.373046875 610.645507812 481.12109375 585.48828125 481.12109375 c 2
 494.672851562 481.12109375 l 2
 469.516601562 481.12109375 449.265625 501.373046875 449.265625 526.529296875 c 2
 449.265625 553.774414062 l 2
 449.265625 578.930664062 469.516601562 599.182617188 494.672851562 599.182617188 c 2
185.8984375 462.958007812 m 2
 276.713867188 462.958007812 l 2
 301.870117188 462.958007812 322.122070312 442.706054688 322.122070312 417.549804688 c 2
 322.122070312 390.305664062 l 2
 322.122070312 365.149414062 301.870117188 344.897460938 276.713867188 344.897460938 c 2
 185.8984375 344.897460938 l 2
 160.7421875 344.897460938 140.489257812 365.149414062 140.489257812 390.305664062 c 2
 140.489257812 417.549804688 l 2
 140.489257812 442.706054688 160.7421875 462.958007812 185.8984375 462.958007812 c 2
431.1015625 462.958007812 m 2
 521.916992188 462.958007812 l 2
 547.073242188 462.958007812 567.327148438 442.706054688 567.327148438 417.549804688 c 2
 567.327148438 390.305664062 l 2
 567.327148438 365.149414062 547.073242188 344.897460938 521.916992188 344.897460938 c 2
 431.1015625 344.897460938 l 2
 405.9453125 344.897460938 385.693359375 365.149414062 385.693359375 390.305664062 c 2
 385.693359375 417.549804688 l 2
 385.693359375 442.706054688 405.9453125 462.958007812 431.1015625 462.958007812 c 2
267.631835938 326.734375 m 2
 449.265625 326.734375 l 2
 474.420898438 326.734375 494.672851562 306.482421875 494.672851562 281.326171875 c 2
 494.672851562 254.081054688 l 2
 494.672851562 228.924804688 474.420898438 208.672851562 449.265625 208.672851562 c 2
 267.631835938 208.672851562 l 2
 242.4765625 208.672851562 222.224609375 228.924804688 222.224609375 254.081054688 c 2
 222.224609375 281.326171875 l 2
 222.224609375 306.482421875 242.4765625 326.734375 267.631835938 326.734375 c 2
267.631835938 190.509765625 m 2
 449.265625 190.509765625 l 2
 474.420898438 190.509765625 494.672851562 170.2578125 494.672851562 145.1015625 c 2
 494.672851562 117.856445312 l 2
 494.672851562 92.701171875 474.420898438 72.4482421875 449.265625 72.4482421875 c 2
 267.631835938 72.4482421875 l 2
 242.4765625 72.4482421875 222.224609375 92.701171875 222.224609375 117.856445312 c 2
 222.224609375 145.1015625 l 2
 222.224609375 170.2578125 242.4765625 190.509765625 267.631835938 190.509765625 c 2
194.979492188 54.28515625 m 2
 285.795898438 54.28515625 l 2
 310.951171875 54.28515625 331.204101562 34.033203125 331.204101562 8.876953125 c 2
 331.204101562 -18.3671875 l 2
 331.204101562 -43.5234375 310.951171875 -63.775390625 285.795898438 -63.775390625 c 2
 194.979492188 -63.775390625 l 2
 169.823242188 -63.775390625 149.571289062 -43.5234375 149.571289062 -18.3671875 c 2
 149.571289062 8.876953125 l 2
 149.571289062 34.033203125 169.823242188 54.28515625 194.979492188 54.28515625 c 2
431.1015625 54.28515625 m 2
 521.916992188 54.28515625 l 2
 547.073242188 54.28515625 567.327148438 34.033203125 567.327148438 8.876953125 c 2
 567.327148438 -18.3671875 l 2
 567.327148438 -43.5234375 547.073242188 -63.775390625 521.916992188 -63.775390625 c 2
 431.1015625 -63.775390625 l 2
 405.9453125 -63.775390625 385.693359375 -43.5234375 385.693359375 -18.3671875 c 2
 385.693359375 8.876953125 l 2
 385.693359375 34.033203125 405.9453125 54.28515625 431.1015625 54.28515625 c 2
131.407226562 -81.9384765625 m 2
 222.224609375 -81.9384765625 l 2
 247.380859375 -81.9384765625 267.631835938 -102.190429688 267.631835938 -127.346679688 c 2
 267.631835938 -154.591796875 l 2
 267.631835938 -179.748046875 247.380859375 -200 222.224609375 -200 c 2
 131.407226562 -200 l 2
 106.251953125 -200 86 -179.748046875 86 -154.591796875 c 2
 86 -127.346679688 l 2
 86 -102.190429688 106.251953125 -81.9384765625 131.407226562 -81.9384765625 c 2
494.672851562 -81.9384765625 m 2
 585.48828125 -81.9384765625 l 2
 610.645507812 -81.9384765625 630.897460938 -102.190429688 630.897460938 -127.346679688 c 2
 630.897460938 -154.591796875 l 2
 630.897460938 -179.748046875 610.645507812 -200 585.48828125 -200 c 2
 494.672851562 -200 l 2
 469.516601562 -200 449.265625 -179.748046875 449.265625 -154.591796875 c 2
 449.265625 -127.346679688 l 2
 449.265625 -102.190429688 469.516601562 -81.9384765625 494.672851562 -81.9384765625 c 2
EndSplineSet
EndChar

StartChar: Y
Encoding: 89 89 24
Width: 782
Flags: HW
LayerCount: 2
Fore
SplineSet
127.408203125 599.182617188 m 2
 218.224609375 599.182617188 l 2
 243.380859375 599.182617188 263.6328125 578.930664062 263.6328125 553.774414062 c 2
 263.6328125 526.529296875 l 2
 263.6328125 501.373046875 243.380859375 481.12109375 218.224609375 481.12109375 c 2
 127.408203125 481.12109375 l 2
 102.252929688 481.12109375 82 501.373046875 82 526.529296875 c 2
 82 553.774414062 l 2
 82 578.930664062 102.252929688 599.182617188 127.408203125 599.182617188 c 2
554.244140625 599.182617188 m 2
 645.060546875 599.182617188 l 2
 670.215820312 599.182617188 690.469726562 578.930664062 690.469726562 553.774414062 c 2
 690.469726562 526.529296875 l 2
 690.469726562 501.373046875 670.215820312 481.12109375 645.060546875 481.12109375 c 2
 554.244140625 481.12109375 l 2
 529.087890625 481.12109375 508.836914062 501.373046875 508.836914062 526.529296875 c 2
 508.836914062 553.774414062 l 2
 508.836914062 578.930664062 529.087890625 599.182617188 554.244140625 599.182617188 c 2
200.060546875 462.958007812 m 2
 290.877929688 462.958007812 l 2
 316.034179688 462.958007812 336.28515625 442.706054688 336.28515625 417.55078125 c 2
 336.28515625 390.305664062 l 2
 336.28515625 365.149414062 316.034179688 344.897460938 290.877929688 344.897460938 c 2
 200.060546875 344.897460938 l 2
 174.905273438 344.897460938 154.654296875 365.149414062 154.654296875 390.305664062 c 2
 154.654296875 417.55078125 l 2
 154.654296875 442.706054688 174.905273438 462.958007812 200.060546875 462.958007812 c 2
490.673828125 462.958007812 m 2
 581.489257812 462.958007812 l 2
 606.645507812 462.958007812 626.897460938 442.706054688 626.897460938 417.55078125 c 2
 626.897460938 390.305664062 l 2
 626.897460938 365.149414062 606.645507812 344.897460938 581.489257812 344.897460938 c 2
 490.673828125 344.897460938 l 2
 465.517578125 344.897460938 445.265625 365.149414062 445.265625 390.305664062 c 2
 445.265625 417.55078125 l 2
 445.265625 442.706054688 465.517578125 462.958007812 490.673828125 462.958007812 c 2
290.877929688 326.734375 m 2
 490.673828125 326.734375 l 2
 515.830078125 326.734375 536.081054688 306.482421875 536.081054688 281.326171875 c 2
 536.081054688 254.081054688 l 2
 536.081054688 228.924804688 515.830078125 208.672851562 490.673828125 208.672851562 c 2
 290.877929688 208.672851562 l 2
 265.720703125 208.672851562 245.470703125 228.924804688 245.470703125 254.081054688 c 2
 245.470703125 281.326171875 l 2
 245.470703125 306.482421875 265.720703125 326.734375 290.877929688 326.734375 c 2
345.3671875 190.509765625 m 2
 436.18359375 190.509765625 l 2
 461.338867188 190.509765625 481.591796875 170.2578125 481.591796875 145.1015625 c 2
 481.591796875 117.856445312 l 2
 481.591796875 92.701171875 461.338867188 72.4482421875 436.18359375 72.4482421875 c 2
 345.3671875 72.4482421875 l 2
 320.211914062 72.4482421875 299.958984375 92.701171875 299.958984375 117.856445312 c 2
 299.958984375 145.1015625 l 2
 299.958984375 170.2578125 320.211914062 190.509765625 345.3671875 190.509765625 c 2
345.3671875 54.28515625 m 2
 436.18359375 54.28515625 l 2
 461.338867188 54.28515625 481.591796875 34.033203125 481.591796875 8.8779296875 c 2
 481.591796875 -18.3671875 l 2
 481.591796875 -43.5234375 461.338867188 -63.775390625 436.18359375 -63.775390625 c 2
 345.3671875 -63.775390625 l 2
 320.211914062 -63.775390625 299.958984375 -43.5234375 299.958984375 -18.3671875 c 2
 299.958984375 8.8779296875 l 2
 299.958984375 34.033203125 320.211914062 54.28515625 345.3671875 54.28515625 c 2
345.3671875 -81.9384765625 m 2
 436.18359375 -81.9384765625 l 2
 461.338867188 -81.9384765625 481.591796875 -102.190429688 481.591796875 -127.346679688 c 2
 481.591796875 -154.591796875 l 2
 481.591796875 -179.748046875 461.338867188 -200 436.18359375 -200 c 2
 345.3671875 -200 l 2
 320.211914062 -200 299.958984375 -179.748046875 299.958984375 -154.591796875 c 2
 299.958984375 -127.346679688 l 2
 299.958984375 -102.190429688 320.211914062 -81.9384765625 345.3671875 -81.9384765625 c 2
EndSplineSet
EndChar

StartChar: Z
Encoding: 90 90 25
Width: 736
Flags: HW
LayerCount: 2
Fore
SplineSet
133.408203125 599.182617188 m 2
 587.489257812 599.182617188 l 2
 612.646484375 599.182617188 632.897460938 578.930664062 632.897460938 553.774414062 c 2
 632.897460938 526.529296875 l 2
 632.897460938 501.373046875 612.646484375 481.12109375 587.489257812 481.12109375 c 2
 133.408203125 481.12109375 l 2
 108.252929688 481.12109375 88 501.373046875 88 526.529296875 c 2
 88 553.774414062 l 2
 88 578.930664062 108.252929688 599.182617188 133.408203125 599.182617188 c 2
496.673828125 462.958007812 m 2
 587.489257812 462.958007812 l 2
 612.646484375 462.958007812 632.897460938 442.706054688 632.897460938 417.549804688 c 2
 632.897460938 390.305664062 l 2
 632.897460938 365.149414062 612.646484375 344.897460938 587.489257812 344.897460938 c 2
 496.673828125 344.897460938 l 2
 471.517578125 344.897460938 451.264648438 365.149414062 451.264648438 390.305664062 c 2
 451.264648438 417.549804688 l 2
 451.264648438 442.706054688 471.517578125 462.958007812 496.673828125 462.958007812 c 2
342.28515625 326.734375 m 2
 496.673828125 326.734375 l 2
 521.829101562 326.734375 542.081054688 306.482421875 542.081054688 281.326171875 c 2
 542.081054688 254.081054688 l 2
 542.081054688 228.924804688 521.829101562 208.672851562 496.673828125 208.672851562 c 2
 342.28515625 208.672851562 l 2
 317.129882812 208.672851562 296.876953125 228.924804688 296.876953125 254.081054688 c 2
 296.876953125 281.326171875 l 2
 296.876953125 306.482421875 317.129882812 326.734375 342.28515625 326.734375 c 2
224.223632812 190.509765625 m 2
 378.612304688 190.509765625 l 2
 403.767578125 190.509765625 424.018554688 170.2578125 424.018554688 145.1015625 c 2
 424.018554688 117.856445312 l 2
 424.018554688 92.701171875 403.767578125 72.4482421875 378.612304688 72.4482421875 c 2
 224.223632812 72.4482421875 l 2
 199.068359375 72.4482421875 178.81640625 92.701171875 178.81640625 117.856445312 c 2
 178.81640625 145.1015625 l 2
 178.81640625 170.2578125 199.068359375 190.509765625 224.223632812 190.509765625 c 2
133.408203125 54.28515625 m 2
 224.223632812 54.28515625 l 2
 249.379882812 54.28515625 269.6328125 34.033203125 269.6328125 8.876953125 c 2
 269.6328125 -18.3671875 l 2
 269.6328125 -43.5234375 249.379882812 -63.775390625 224.223632812 -63.775390625 c 2
 133.408203125 -63.775390625 l 2
 108.252929688 -63.775390625 88 -43.5234375 88 -18.3671875 c 2
 88 8.876953125 l 2
 88 34.033203125 108.252929688 54.28515625 133.408203125 54.28515625 c 2
133.408203125 -81.9384765625 m 2
 587.489257812 -81.9384765625 l 2
 612.646484375 -81.9384765625 632.897460938 -102.190429688 632.897460938 -127.346679688 c 2
 632.897460938 -154.591796875 l 2
 632.897460938 -179.748046875 612.646484375 -200 587.489257812 -200 c 2
 133.408203125 -200 l 2
 108.252929688 -200 88 -179.748046875 88 -154.591796875 c 2
 88 -127.346679688 l 2
 88 -102.190429688 108.252929688 -81.9384765625 133.408203125 -81.9384765625 c 2
EndSplineSet
EndChar

StartChar: a
Encoding: 97 97 26
Width: 622
Flags: HW
LayerCount: 2
Fore
SplineSet
45.408203125 352.978515625 m 2
 363.263671875 352.978515625 l 2
 388.419921875 352.978515625 408.672851562 332.7265625 408.672851562 307.5703125 c 2
 408.672851562 280.325195312 l 2
 408.672851562 255.169921875 388.419921875 234.91796875 363.263671875 234.91796875 c 2
 45.408203125 234.91796875 l 2
 20.2529296875 234.91796875 0 255.169921875 0 280.325195312 c 2
 0 307.5703125 l 2
 0 332.7265625 20.2529296875 352.978515625 45.408203125 352.978515625 c 2
136.223632812 189.509765625 m 2
 454.080078125 189.509765625 l 2
 479.236328125 189.509765625 499.489257812 169.2578125 499.489257812 144.1015625 c 2
 499.489257812 116.856445312 l 2
 499.489257812 91.7001953125 479.236328125 71.4482421875 454.080078125 71.4482421875 c 2
 136.223632812 71.4482421875 l 2
 111.068359375 71.4482421875 90.81640625 91.7001953125 90.81640625 116.856445312 c 2
 90.81640625 144.1015625 l 2
 90.81640625 169.2578125 111.068359375 189.509765625 136.223632812 189.509765625 c 2
45.408203125 53.28515625 m 2
 136.223632812 53.28515625 l 2
 161.379882812 53.28515625 181.6328125 33.033203125 181.6328125 7.876953125 c 2
 181.6328125 -19.3681640625 l 2
 181.6328125 -44.5234375 161.379882812 -64.7763671875 136.223632812 -64.7763671875 c 2
 45.408203125 -64.7763671875 l 2
 20.2529296875 -64.7763671875 0 -44.5234375 0 -19.3681640625 c 2
 0 7.876953125 l 2
 0 33.033203125 20.2529296875 53.28515625 45.408203125 53.28515625 c 2
363.263671875 53.28515625 m 2
 454.080078125 53.28515625 l 2
 479.236328125 53.28515625 499.489257812 33.033203125 499.489257812 7.876953125 c 2
 499.489257812 -19.3681640625 l 2
 499.489257812 -44.5234375 479.236328125 -64.7763671875 454.080078125 -64.7763671875 c 2
 363.263671875 -64.7763671875 l 2
 338.108398438 -64.7763671875 317.856445312 -44.5234375 317.856445312 -19.3681640625 c 2
 317.856445312 7.876953125 l 2
 317.856445312 33.033203125 338.108398438 53.28515625 363.263671875 53.28515625 c 2
136.223632812 -82.939453125 m 2
 454.080078125 -82.939453125 l 2
 479.236328125 -82.939453125 499.489257812 -103.19140625 499.489257812 -128.34765625 c 2
 499.489257812 -155.591796875 l 2
 499.489257812 -180.748046875 479.236328125 -201 454.080078125 -201 c 2
 136.223632812 -201 l 2
 111.068359375 -201 90.81640625 -180.748046875 90.81640625 -155.591796875 c 2
 90.81640625 -128.34765625 l 2
 90.81640625 -103.19140625 111.068359375 -82.939453125 136.223632812 -82.939453125 c 2
EndSplineSet
EndChar

StartChar: b
Encoding: 98 98 27
Width: 616
Flags: HW
LayerCount: 2
Fore
SplineSet
45.408203125 599.182617188 m 2
 136.224609375 599.182617188 l 2
 161.302734375 599.182617188 181.631835938 578.848632812 181.631835938 553.774414062 c 2
 181.631835938 526.529296875 l 2
 181.631835938 501.455078125 161.302734375 481.122070312 136.224609375 481.122070312 c 2
 45.408203125 481.122070312 l 2
 20.330078125 481.122070312 0 501.455078125 0 526.529296875 c 2
 0 553.774414062 l 2
 0 578.848632812 20.330078125 599.182617188 45.408203125 599.182617188 c 2
45.408203125 462.958007812 m 2
 136.224609375 462.958007812 l 2
 161.302734375 462.958007812 181.631835938 442.625 181.631835938 417.549804688 c 2
 181.631835938 390.305664062 l 2
 181.631835938 365.231445312 161.302734375 344.897460938 136.224609375 344.897460938 c 2
 45.408203125 344.897460938 l 2
 20.330078125 344.897460938 0 365.231445312 0 390.305664062 c 2
 0 417.549804688 l 2
 0 442.625 20.330078125 462.958007812 45.408203125 462.958007812 c 2
45.408203125 326.734375 m 2
 363.264648438 326.734375 l 2
 388.420898438 326.734375 408.672851562 306.482421875 408.672851562 281.326171875 c 2
 408.672851562 254.081054688 l 2
 408.672851562 228.924804688 388.420898438 208.672851562 363.264648438 208.672851562 c 2
 45.408203125 208.672851562 l 2
 20.251953125 208.672851562 0 228.924804688 0 254.081054688 c 2
 0 281.326171875 l 2
 0 306.482421875 20.251953125 326.734375 45.408203125 326.734375 c 2
45.408203125 190.509765625 m 2
 136.224609375 190.509765625 l 2
 161.380859375 190.509765625 181.631835938 170.2578125 181.631835938 145.1015625 c 2
 181.631835938 117.856445312 l 2
 181.631835938 92.701171875 161.380859375 72.44921875 136.224609375 72.44921875 c 2
 45.408203125 72.44921875 l 2
 20.251953125 72.44921875 0 92.701171875 0 117.856445312 c 2
 0 145.1015625 l 2
 0 170.2578125 20.251953125 190.509765625 45.408203125 190.509765625 c 2
363.264648438 190.509765625 m 2
 454.081054688 190.509765625 l 2
 479.237304688 190.509765625 499.489257812 170.2578125 499.489257812 145.1015625 c 2
 499.489257812 117.856445312 l 2
 499.489257812 92.701171875 479.237304688 72.44921875 454.081054688 72.44921875 c 2
 363.264648438 72.44921875 l 2
 338.109375 72.44921875 317.857421875 92.701171875 317.857421875 117.856445312 c 2
 317.857421875 145.1015625 l 2
 317.857421875 170.2578125 338.109375 190.509765625 363.264648438 190.509765625 c 2
45.408203125 54.28515625 m 2
 136.224609375 54.28515625 l 2
 161.380859375 54.28515625 181.631835938 34.033203125 181.631835938 8.8779296875 c 2
 181.631835938 -18.3671875 l 2
 181.631835938 -43.5234375 161.380859375 -63.775390625 136.224609375 -63.775390625 c 2
 45.408203125 -63.775390625 l 2
 20.251953125 -63.775390625 0 -43.5234375 0 -18.3671875 c 2
 0 8.8779296875 l 2
 0 34.033203125 20.251953125 54.28515625 45.408203125 54.28515625 c 2
363.264648438 54.28515625 m 2
 454.081054688 54.28515625 l 2
 479.237304688 54.28515625 499.489257812 34.033203125 499.489257812 8.8779296875 c 2
 499.489257812 -18.3671875 l 2
 499.489257812 -43.5234375 479.237304688 -63.775390625 454.081054688 -63.775390625 c 2
 363.264648438 -63.775390625 l 2
 338.109375 -63.775390625 317.857421875 -43.5234375 317.857421875 -18.3671875 c 2
 317.857421875 8.8779296875 l 2
 317.857421875 33.2470703125 336.864257812 53.0205078125 360.923828125 54.232421875 c 0
 361.69921875 54.271484375 362.479492188 54.28515625 363.264648438 54.28515625 c 2
45.408203125 -81.9384765625 m 2
 363.264648438 -81.9384765625 l 2
 388.420898438 -81.9384765625 408.672851562 -102.190429688 408.672851562 -127.346679688 c 2
 408.672851562 -154.591796875 l 2
 408.672851562 -179.748046875 388.420898438 -200 363.264648438 -200 c 2
 45.408203125 -200 l 2
 20.251953125 -200 0 -179.748046875 0 -154.591796875 c 2
 0 -127.346679688 l 2
 0 -102.190429688 20.251953125 -81.9384765625 45.408203125 -81.9384765625 c 2
EndSplineSet
EndChar

StartChar: c
Encoding: 99 99 28
Width: 558
Flags: HW
LayerCount: 2
Fore
SplineSet
45.408203125 326.733398438 m 2
 408.672851562 326.733398438 l 2
 433.747070312 326.733398438 454.081054688 306.399414062 454.081054688 281.325195312 c 2
 454.081054688 254.080078125 l 2
 454.081054688 229.005859375 433.747070312 208.672851562 408.672851562 208.672851562 c 2
 45.408203125 208.672851562 l 2
 20.333984375 208.672851562 0 229.005859375 0 254.080078125 c 2
 0 281.325195312 l 2
 0 306.399414062 20.333984375 326.733398438 45.408203125 326.733398438 c 2
45.408203125 190.508789062 m 2
 136.223632812 190.508789062 l 2
 161.380859375 190.508789062 181.6328125 170.256835938 181.6328125 145.100585938 c 2
 181.6328125 117.856445312 l 2
 181.6328125 92.7001953125 161.380859375 72.4482421875 136.223632812 72.4482421875 c 2
 45.408203125 72.4482421875 l 2
 20.251953125 72.4482421875 0 92.7001953125 0 117.856445312 c 2
 0 145.100585938 l 2
 0 170.256835938 20.251953125 190.508789062 45.408203125 190.508789062 c 2
45.408203125 54.28515625 m 2
 136.223632812 54.28515625 l 2
 161.380859375 54.28515625 181.6328125 34.033203125 181.6328125 8.876953125 c 2
 181.6328125 -18.3681640625 l 2
 181.6328125 -43.5244140625 161.380859375 -63.7763671875 136.223632812 -63.7763671875 c 2
 45.408203125 -63.7763671875 l 2
 20.251953125 -63.7763671875 0 -43.5244140625 0 -18.3681640625 c 2
 0 8.876953125 l 2
 0 34.033203125 20.251953125 54.28515625 45.408203125 54.28515625 c 2
45.408203125 -81.939453125 m 2
 408.672851562 -81.939453125 l 2
 433.828125 -81.939453125 454.081054688 -102.19140625 454.081054688 -127.34765625 c 2
 454.081054688 -154.592773438 l 2
 454.081054688 -179.748046875 433.828125 -200 408.672851562 -200 c 2
 45.408203125 -200 l 2
 20.251953125 -200 0 -179.748046875 0 -154.592773438 c 2
 0 -127.34765625 l 2
 0 -102.19140625 20.251953125 -81.939453125 45.408203125 -81.939453125 c 2
EndSplineSet
EndChar

StartChar: d
Encoding: 100 100 29
Width: 618
Flags: HW
LayerCount: 2
Fore
SplineSet
363.264648438 599.182617188 m 2
 454.081054688 599.182617188 l 2
 479.155273438 599.182617188 499.489257812 578.848632812 499.489257812 553.774414062 c 2
 499.489257812 526.529296875 l 2
 499.489257812 501.455078125 479.155273438 481.122070312 454.081054688 481.122070312 c 2
 363.264648438 481.122070312 l 2
 338.190429688 481.122070312 317.856445312 501.455078125 317.856445312 526.529296875 c 2
 317.856445312 553.774414062 l 2
 317.856445312 578.848632812 338.190429688 599.182617188 363.264648438 599.182617188 c 2
363.264648438 462.958007812 m 2
 454.081054688 462.958007812 l 2
 479.155273438 462.958007812 499.489257812 442.625 499.489257812 417.549804688 c 2
 499.489257812 390.305664062 l 2
 499.489257812 365.231445312 479.155273438 344.897460938 454.081054688 344.897460938 c 2
 363.264648438 344.897460938 l 2
 338.190429688 344.897460938 317.856445312 365.231445312 317.856445312 390.305664062 c 2
 317.856445312 417.549804688 l 2
 317.856445312 442.625 338.190429688 462.958007812 363.264648438 462.958007812 c 2
136.224609375 326.734375 m 2
 454.081054688 326.734375 l 2
 479.237304688 326.734375 499.489257812 306.482421875 499.489257812 281.326171875 c 2
 499.489257812 254.081054688 l 2
 499.489257812 228.924804688 479.237304688 208.672851562 454.081054688 208.672851562 c 2
 136.224609375 208.672851562 l 2
 111.068359375 208.672851562 90.81640625 228.924804688 90.81640625 254.081054688 c 2
 90.81640625 281.326171875 l 2
 90.81640625 306.482421875 111.068359375 326.734375 136.224609375 326.734375 c 2
45.408203125 190.509765625 m 2
 136.224609375 190.509765625 l 2
 161.379882812 190.509765625 181.6328125 170.2578125 181.6328125 145.1015625 c 2
 181.6328125 117.856445312 l 2
 181.6328125 92.701171875 161.379882812 72.44921875 136.224609375 72.44921875 c 2
 45.408203125 72.44921875 l 2
 20.251953125 72.44921875 0 92.701171875 0 117.856445312 c 2
 0 145.1015625 l 2
 0 170.2578125 20.251953125 190.509765625 45.408203125 190.509765625 c 2
363.264648438 190.509765625 m 2
 454.081054688 190.509765625 l 2
 479.237304688 190.509765625 499.489257812 170.2578125 499.489257812 145.1015625 c 2
 499.489257812 117.856445312 l 2
 499.489257812 92.701171875 479.237304688 72.44921875 454.081054688 72.44921875 c 2
 363.264648438 72.44921875 l 2
 338.109375 72.44921875 317.856445312 92.701171875 317.856445312 117.856445312 c 2
 317.856445312 145.1015625 l 2
 317.856445312 170.2578125 338.109375 190.509765625 363.264648438 190.509765625 c 2
45.408203125 54.28515625 m 2
 136.224609375 54.28515625 l 2
 161.379882812 54.28515625 181.6328125 34.033203125 181.6328125 8.8779296875 c 2
 181.6328125 -18.3671875 l 2
 181.6328125 -43.5234375 161.379882812 -63.775390625 136.224609375 -63.775390625 c 2
 45.408203125 -63.775390625 l 2
 20.251953125 -63.775390625 0 -43.5234375 0 -18.3671875 c 2
 0 8.8779296875 l 2
 0 34.033203125 20.251953125 54.28515625 45.408203125 54.28515625 c 2
363.264648438 54.28515625 m 2
 454.081054688 54.28515625 l 2
 479.237304688 54.28515625 499.489257812 34.033203125 499.489257812 8.8779296875 c 2
 499.489257812 -18.3671875 l 2
 499.489257812 -43.5234375 479.237304688 -63.775390625 454.081054688 -63.775390625 c 2
 363.264648438 -63.775390625 l 2
 338.109375 -63.775390625 317.856445312 -43.5234375 317.856445312 -18.3671875 c 2
 317.856445312 8.8779296875 l 2
 317.856445312 34.033203125 338.109375 54.28515625 363.264648438 54.28515625 c 2
136.224609375 -81.9384765625 m 2
 454.081054688 -81.9384765625 l 2
 479.237304688 -81.9384765625 499.489257812 -102.190429688 499.489257812 -127.346679688 c 2
 499.489257812 -154.591796875 l 2
 499.489257812 -179.748046875 479.237304688 -200 454.081054688 -200 c 2
 136.224609375 -200 l 2
 111.068359375 -200 90.81640625 -179.748046875 90.81640625 -154.591796875 c 2
 90.81640625 -127.346679688 l 2
 90.81640625 -102.190429688 111.068359375 -81.9384765625 136.224609375 -81.9384765625 c 2
EndSplineSet
EndChar

StartChar: zero
Encoding: 48 48 30
Width: 787
Flags: HW
LayerCount: 2
Fore
SplineSet
259.22265625 599.182617188 m 2
 531.672851562 599.182617188 l 2
 556.828125 599.182617188 577.080078125 578.930664062 577.080078125 553.774414062 c 2
 577.080078125 526.529296875 l 2
 577.080078125 501.374023438 556.828125 481.12109375 531.672851562 481.12109375 c 2
 259.22265625 481.12109375 l 2
 234.067382812 481.12109375 213.815429688 501.374023438 213.815429688 526.529296875 c 2
 213.815429688 553.774414062 l 2
 213.815429688 578.930664062 234.067382812 599.182617188 259.22265625 599.182617188 c 2
168.407226562 462.958007812 m 2
 259.22265625 462.958007812 l 2
 284.379882812 462.958007812 304.631835938 442.706054688 304.631835938 417.549804688 c 2
 304.631835938 390.305664062 l 2
 304.631835938 365.149414062 284.379882812 344.897460938 259.22265625 344.897460938 c 2
 168.407226562 344.897460938 l 2
 143.250976562 344.897460938 123 365.149414062 123 390.305664062 c 2
 123 417.549804688 l 2
 123 442.706054688 143.250976562 462.958007812 168.407226562 462.958007812 c 2
531.672851562 462.958007812 m 2
 622.48828125 462.958007812 l 2
 647.643554688 462.958007812 667.896484375 442.706054688 667.896484375 417.549804688 c 2
 667.896484375 390.305664062 l 2
 667.896484375 365.149414062 647.643554688 344.897460938 622.48828125 344.897460938 c 2
 531.672851562 344.897460938 l 2
 506.516601562 344.897460938 486.263671875 365.149414062 486.263671875 390.305664062 c 2
 486.263671875 417.549804688 l 2
 486.263671875 442.706054688 506.516601562 462.958007812 531.672851562 462.958007812 c 2
168.407226562 326.734375 m 2
 259.22265625 326.734375 l 2
 284.379882812 326.734375 304.631835938 306.482421875 304.631835938 281.326171875 c 2
 304.631835938 254.081054688 l 2
 304.631835938 228.924804688 284.379882812 208.672851562 259.22265625 208.672851562 c 2
 168.407226562 208.672851562 l 2
 143.250976562 208.672851562 123 228.924804688 123 254.081054688 c 2
 123 281.326171875 l 2
 123 306.482421875 143.250976562 326.734375 168.407226562 326.734375 c 2
531.672851562 326.734375 m 2
 622.48828125 326.734375 l 2
 647.643554688 326.734375 667.896484375 306.482421875 667.896484375 281.326171875 c 2
 667.896484375 254.081054688 l 2
 667.896484375 228.924804688 647.643554688 208.672851562 622.48828125 208.672851562 c 2
 531.672851562 208.672851562 l 2
 506.516601562 208.672851562 486.263671875 228.924804688 486.263671875 254.081054688 c 2
 486.263671875 281.326171875 l 2
 486.263671875 306.482421875 506.516601562 326.734375 531.672851562 326.734375 c 2
168.407226562 190.509765625 m 2
 259.22265625 190.509765625 l 2
 284.379882812 190.509765625 304.631835938 170.2578125 304.631835938 145.1015625 c 2
 304.631835938 117.856445312 l 2
 304.631835938 92.701171875 284.379882812 72.44921875 259.22265625 72.44921875 c 2
 168.407226562 72.44921875 l 2
 143.250976562 72.44921875 123 92.701171875 123 117.856445312 c 2
 123 145.1015625 l 2
 123 170.2578125 143.250976562 190.509765625 168.407226562 190.509765625 c 2
531.672851562 190.509765625 m 2
 622.48828125 190.509765625 l 2
 647.643554688 190.509765625 667.896484375 170.2578125 667.896484375 145.1015625 c 2
 667.896484375 117.856445312 l 2
 667.896484375 92.701171875 647.643554688 72.44921875 622.48828125 72.44921875 c 2
 531.672851562 72.44921875 l 2
 506.516601562 72.44921875 486.263671875 92.701171875 486.263671875 117.856445312 c 2
 486.263671875 145.1015625 l 2
 486.263671875 170.2578125 506.516601562 190.509765625 531.672851562 190.509765625 c 2
168.407226562 54.28515625 m 2
 259.22265625 54.28515625 l 2
 284.379882812 54.28515625 304.631835938 34.033203125 304.631835938 8.8779296875 c 2
 304.631835938 -18.3671875 l 2
 304.631835938 -43.5234375 284.379882812 -63.775390625 259.22265625 -63.775390625 c 2
 168.407226562 -63.775390625 l 2
 143.250976562 -63.775390625 123 -43.5234375 123 -18.3671875 c 2
 123 8.8779296875 l 2
 123 34.033203125 143.250976562 54.28515625 168.407226562 54.28515625 c 2
531.672851562 54.28515625 m 2
 622.48828125 54.28515625 l 2
 647.643554688 54.28515625 667.896484375 34.033203125 667.896484375 8.8779296875 c 2
 667.896484375 -18.3671875 l 2
 667.896484375 -43.5234375 647.643554688 -63.775390625 622.48828125 -63.775390625 c 2
 531.672851562 -63.775390625 l 2
 506.516601562 -63.775390625 486.263671875 -43.5234375 486.263671875 -18.3671875 c 2
 486.263671875 8.8779296875 l 2
 486.263671875 34.033203125 506.516601562 54.28515625 531.672851562 54.28515625 c 2
259.22265625 -81.9384765625 m 2
 531.672851562 -81.9384765625 l 2
 556.828125 -81.9384765625 577.080078125 -102.190429688 577.080078125 -127.346679688 c 2
 577.080078125 -154.591796875 l 2
 577.080078125 -179.748046875 556.828125 -200 531.672851562 -200 c 2
 259.22265625 -200 l 2
 234.067382812 -200 213.815429688 -179.748046875 213.815429688 -154.591796875 c 2
 213.815429688 -127.346679688 l 2
 213.815429688 -102.190429688 234.067382812 -81.9384765625 259.22265625 -81.9384765625 c 2
EndSplineSet
EndChar

StartChar: one
Encoding: 49 49 31
Width: 532
Flags: HW
LayerCount: 2
Fore
SplineSet
298.122070312 599.182617188 m 2
 407.1015625 599.182617188 l 2
 432.2578125 599.182617188 452.509765625 578.930664062 452.509765625 553.774414062 c 2
 452.509765625 526.529296875 l 2
 452.509765625 501.374023438 432.2578125 481.12109375 407.1015625 481.12109375 c 2
 298.122070312 481.12109375 l 2
 272.965820312 481.12109375 252.713867188 501.374023438 252.713867188 526.529296875 c 2
 252.713867188 553.774414062 l 2
 252.713867188 578.930664062 272.965820312 599.182617188 298.122070312 599.182617188 c 2
198.225585938 462.958007812 m 2
 407.1015625 462.958007812 l 2
 432.2578125 462.958007812 452.509765625 442.706054688 452.509765625 417.549804688 c 2
 452.509765625 390.305664062 l 2
 452.509765625 365.149414062 432.2578125 344.897460938 407.1015625 344.897460938 c 2
 198.225585938 344.897460938 l 2
 173.068359375 344.897460938 152.81640625 365.149414062 152.81640625 390.305664062 c 2
 152.81640625 417.549804688 l 2
 152.81640625 442.706054688 173.068359375 462.958007812 198.225585938 462.958007812 c 2
107.408203125 326.734375 m 2
 198.225585938 326.734375 l 2
 223.380859375 326.734375 243.6328125 306.482421875 243.6328125 281.326171875 c 2
 243.6328125 254.081054688 l 2
 243.6328125 228.924804688 223.380859375 208.672851562 198.225585938 208.672851562 c 2
 107.408203125 208.672851562 l 2
 82.251953125 208.672851562 62 228.924804688 62 254.081054688 c 2
 62 281.326171875 l 2
 62 306.482421875 82.251953125 326.734375 107.408203125 326.734375 c 2
316.28515625 326.734375 m 2
 407.1015625 326.734375 l 2
 432.2578125 326.734375 452.509765625 306.482421875 452.509765625 281.326171875 c 2
 452.509765625 254.081054688 l 2
 452.509765625 228.924804688 432.2578125 208.672851562 407.1015625 208.672851562 c 2
 316.28515625 208.672851562 l 2
 291.129882812 208.672851562 270.876953125 228.924804688 270.876953125 254.081054688 c 2
 270.876953125 281.326171875 l 2
 270.876953125 306.482421875 291.129882812 326.734375 316.28515625 326.734375 c 2
316.28515625 190.509765625 m 2
 407.1015625 190.509765625 l 2
 432.2578125 190.509765625 452.509765625 170.2578125 452.509765625 145.1015625 c 2
 452.509765625 117.856445312 l 2
 452.509765625 92.701171875 432.2578125 72.44921875 407.1015625 72.44921875 c 2
 316.28515625 72.44921875 l 2
 291.129882812 72.44921875 270.876953125 92.701171875 270.876953125 117.856445312 c 2
 270.876953125 145.1015625 l 2
 270.876953125 170.2578125 291.129882812 190.509765625 316.28515625 190.509765625 c 2
316.28515625 54.28515625 m 2
 407.1015625 54.28515625 l 2
 432.2578125 54.28515625 452.509765625 34.033203125 452.509765625 8.8779296875 c 2
 452.509765625 -18.3671875 l 2
 452.509765625 -43.5234375 432.2578125 -63.775390625 407.1015625 -63.775390625 c 2
 316.28515625 -63.775390625 l 2
 291.129882812 -63.775390625 270.876953125 -43.5234375 270.876953125 -18.3671875 c 2
 270.876953125 8.8779296875 l 2
 270.876953125 34.033203125 291.129882812 54.28515625 316.28515625 54.28515625 c 2
316.28515625 -81.9384765625 m 2
 407.1015625 -81.9384765625 l 2
 432.2578125 -81.9384765625 452.509765625 -102.190429688 452.509765625 -127.346679688 c 2
 452.509765625 -154.591796875 l 2
 452.509765625 -179.748046875 432.2578125 -200 407.1015625 -200 c 2
 316.28515625 -200 l 2
 291.129882812 -200 270.876953125 -179.748046875 270.876953125 -154.591796875 c 2
 270.876953125 -127.346679688 l 2
 270.876953125 -102.190429688 291.129882812 -81.9384765625 316.28515625 -81.9384765625 c 2
EndSplineSet
EndChar

StartChar: two
Encoding: 50 50 32
Width: 722
Flags: HW
LayerCount: 2
Fore
SplineSet
214.224609375 599.182617188 m 2
 486.672851562 599.182617188 l 2
 511.828125 599.182617188 532.081054688 578.930664062 532.081054688 553.774414062 c 2
 532.081054688 526.529296875 l 2
 532.081054688 501.374023438 511.828125 481.12109375 486.672851562 481.12109375 c 2
 214.224609375 481.12109375 l 2
 189.068359375 481.12109375 168.815429688 501.374023438 168.815429688 526.529296875 c 2
 168.815429688 553.774414062 l 2
 168.815429688 578.930664062 189.068359375 599.182617188 214.224609375 599.182617188 c 2
123.408203125 462.958007812 m 2
 214.224609375 462.958007812 l 2
 239.380859375 462.958007812 259.6328125 442.706054688 259.6328125 417.549804688 c 2
 259.6328125 390.305664062 l 2
 259.6328125 365.149414062 239.380859375 344.897460938 214.224609375 344.897460938 c 2
 123.408203125 344.897460938 l 2
 98.251953125 344.897460938 78 365.149414062 78 390.305664062 c 2
 78 417.549804688 l 2
 78 442.706054688 98.251953125 462.958007812 123.408203125 462.958007812 c 2
486.672851562 462.958007812 m 2
 577.489257812 462.958007812 l 2
 602.645507812 462.958007812 622.897460938 442.706054688 622.897460938 417.549804688 c 2
 622.897460938 390.305664062 l 2
 622.897460938 365.149414062 602.645507812 344.897460938 577.489257812 344.897460938 c 2
 486.672851562 344.897460938 l 2
 461.516601562 344.897460938 441.264648438 365.149414062 441.264648438 390.305664062 c 2
 441.264648438 417.549804688 l 2
 441.264648438 442.706054688 461.516601562 462.958007812 486.672851562 462.958007812 c 2
395.856445312 326.734375 m 2
 486.672851562 326.734375 l 2
 511.828125 326.734375 532.081054688 306.482421875 532.081054688 281.326171875 c 2
 532.081054688 254.081054688 l 2
 532.081054688 228.924804688 511.828125 208.672851562 486.672851562 208.672851562 c 2
 395.856445312 208.672851562 l 2
 370.700195312 208.672851562 350.448242188 228.924804688 350.448242188 254.081054688 c 2
 350.448242188 281.326171875 l 2
 350.448242188 306.482421875 370.700195312 326.734375 395.856445312 326.734375 c 2
305.040039062 190.509765625 m 2
 395.856445312 190.509765625 l 2
 421.012695312 190.509765625 441.264648438 170.2578125 441.264648438 145.1015625 c 2
 441.264648438 117.856445312 l 2
 441.264648438 92.701171875 421.012695312 72.44921875 395.856445312 72.44921875 c 2
 305.040039062 72.44921875 l 2
 279.884765625 72.44921875 259.6328125 92.701171875 259.6328125 117.856445312 c 2
 259.6328125 145.1015625 l 2
 259.6328125 170.2578125 279.884765625 190.509765625 305.040039062 190.509765625 c 2
214.224609375 54.28515625 m 2
 305.040039062 54.28515625 l 2
 330.196289062 54.28515625 350.448242188 34.033203125 350.448242188 8.8779296875 c 2
 350.448242188 -18.3671875 l 2
 350.448242188 -43.5234375 330.196289062 -63.775390625 305.040039062 -63.775390625 c 2
 214.224609375 -63.775390625 l 2
 189.068359375 -63.775390625 168.815429688 -43.5234375 168.815429688 -18.3671875 c 2
 168.815429688 8.8779296875 l 2
 168.815429688 34.033203125 189.068359375 54.28515625 214.224609375 54.28515625 c 2
123.408203125 -81.9384765625 m 2
 577.489257812 -81.9384765625 l 2
 602.645507812 -81.9384765625 622.897460938 -102.190429688 622.897460938 -127.346679688 c 2
 622.897460938 -154.591796875 l 2
 622.897460938 -179.748046875 602.645507812 -200 577.489257812 -200 c 2
 123.408203125 -200 l 2
 98.251953125 -200 78 -179.748046875 78 -154.591796875 c 2
 78 -127.346679688 l 2
 78 -102.190429688 98.251953125 -81.9384765625 123.408203125 -81.9384765625 c 2
EndSplineSet
EndChar

StartChar: three
Encoding: 51 51 33
Width: 731
Flags: HW
LayerCount: 2
Fore
SplineSet
232.223632812 598.182617188 m 2
 504.672851562 598.182617188 l 2
 529.829101562 598.182617188 550.081054688 577.930664062 550.081054688 552.774414062 c 2
 550.081054688 525.529296875 l 2
 550.081054688 500.374023438 529.829101562 480.12109375 504.672851562 480.12109375 c 2
 232.223632812 480.12109375 l 2
 207.068359375 480.12109375 186.81640625 500.374023438 186.81640625 525.529296875 c 2
 186.81640625 552.774414062 l 2
 186.81640625 577.930664062 207.068359375 598.182617188 232.223632812 598.182617188 c 2
141.408203125 461.958007812 m 2
 232.223632812 461.958007812 l 2
 257.379882812 461.958007812 277.6328125 441.706054688 277.6328125 416.549804688 c 2
 277.6328125 389.305664062 l 2
 277.6328125 364.149414062 257.379882812 343.897460938 232.223632812 343.897460938 c 2
 141.408203125 343.897460938 l 2
 116.251953125 343.897460938 96 364.149414062 96 389.305664062 c 2
 96 416.549804688 l 2
 96 441.706054688 116.251953125 461.958007812 141.408203125 461.958007812 c 2
504.672851562 461.958007812 m 2
 595.489257812 461.958007812 l 2
 620.64453125 461.958007812 640.896484375 441.706054688 640.896484375 416.549804688 c 2
 640.896484375 389.305664062 l 2
 640.896484375 364.149414062 620.64453125 343.897460938 595.489257812 343.897460938 c 2
 504.672851562 343.897460938 l 2
 479.516601562 343.897460938 459.264648438 364.149414062 459.264648438 389.305664062 c 2
 459.264648438 416.549804688 l 2
 459.264648438 441.706054688 479.516601562 461.958007812 504.672851562 461.958007812 c 2
413.856445312 325.734375 m 2
 504.672851562 325.734375 l 2
 529.829101562 325.734375 550.081054688 305.482421875 550.081054688 280.326171875 c 2
 550.081054688 253.081054688 l 2
 550.081054688 227.924804688 529.829101562 207.672851562 504.672851562 207.672851562 c 2
 413.856445312 207.672851562 l 2
 388.700195312 207.672851562 368.448242188 227.924804688 368.448242188 253.081054688 c 2
 368.448242188 280.326171875 l 2
 368.448242188 305.482421875 388.700195312 325.734375 413.856445312 325.734375 c 2
245.846679688 257.622070312 m 2
 318.5 257.622070312 l 2
 336.109375 257.622070312 350.28515625 243.4453125 350.28515625 225.8359375 c 2
 350.28515625 171.346679688 l 2
 350.28515625 153.737304688 336.109375 139.560546875 318.5 139.560546875 c 2
 245.846679688 139.560546875 l 2
 228.237304688 139.560546875 214.060546875 153.737304688 214.060546875 171.346679688 c 2
 214.060546875 225.8359375 l 2
 214.060546875 243.4453125 228.237304688 257.622070312 245.846679688 257.622070312 c 2
413.856445312 189.509765625 m 2
 504.672851562 189.509765625 l 2
 529.829101562 189.509765625 550.081054688 169.2578125 550.081054688 144.1015625 c 2
 550.081054688 116.856445312 l 2
 550.081054688 91.701171875 529.829101562 71.44921875 504.672851562 71.44921875 c 2
 413.856445312 71.44921875 l 2
 388.700195312 71.44921875 368.448242188 91.701171875 368.448242188 116.856445312 c 2
 368.448242188 144.1015625 l 2
 368.448242188 169.2578125 388.700195312 189.509765625 413.856445312 189.509765625 c 2
141.408203125 53.28515625 m 2
 232.223632812 53.28515625 l 2
 257.379882812 53.28515625 277.6328125 33.033203125 277.6328125 7.8779296875 c 2
 277.6328125 -19.3671875 l 2
 277.6328125 -44.5234375 257.379882812 -64.775390625 232.223632812 -64.775390625 c 2
 141.408203125 -64.775390625 l 2
 116.251953125 -64.775390625 96 -44.5234375 96 -19.3671875 c 2
 96 7.8779296875 l 2
 96 33.033203125 116.251953125 53.28515625 141.408203125 53.28515625 c 2
504.672851562 53.28515625 m 2
 595.489257812 53.28515625 l 2
 620.64453125 53.28515625 640.896484375 33.033203125 640.896484375 7.8779296875 c 2
 640.896484375 -19.3671875 l 2
 640.896484375 -44.5234375 620.64453125 -64.775390625 595.489257812 -64.775390625 c 2
 504.672851562 -64.775390625 l 2
 479.516601562 -64.775390625 459.264648438 -44.5234375 459.264648438 -19.3671875 c 2
 459.264648438 7.8779296875 l 2
 459.264648438 33.033203125 479.516601562 53.28515625 504.672851562 53.28515625 c 2
232.223632812 -82.9384765625 m 2
 504.672851562 -82.9384765625 l 2
 529.829101562 -82.9384765625 550.081054688 -103.190429688 550.081054688 -128.346679688 c 2
 550.081054688 -155.591796875 l 2
 550.081054688 -180.748046875 529.829101562 -201 504.672851562 -201 c 2
 232.223632812 -201 l 2
 207.068359375 -201 186.81640625 -180.748046875 186.81640625 -155.591796875 c 2
 186.81640625 -128.346679688 l 2
 186.81640625 -103.190429688 207.068359375 -82.9384765625 232.223632812 -82.9384765625 c 2
EndSplineSet
EndChar

StartChar: four
Encoding: 52 52 34
Width: 686
Flags: HW
LayerCount: 2
Fore
SplineSet
127.408203125 599.182617188 m 2
 218.224609375 599.182617188 l 2
 243.380859375 599.182617188 263.631835938 578.930664062 263.631835938 553.774414062 c 2
 263.631835938 526.529296875 l 2
 263.631835938 501.374023438 243.380859375 481.12109375 218.224609375 481.12109375 c 2
 127.408203125 481.12109375 l 2
 102.251953125 481.12109375 82 501.374023438 82 526.529296875 c 2
 82 553.774414062 l 2
 82 578.930664062 102.251953125 599.182617188 127.408203125 599.182617188 c 2
454.346679688 599.182617188 m 2
 545.163085938 599.182617188 l 2
 570.318359375 599.182617188 590.5703125 578.930664062 590.5703125 553.774414062 c 2
 590.5703125 526.529296875 l 2
 590.5703125 501.374023438 570.318359375 481.12109375 545.163085938 481.12109375 c 2
 454.346679688 481.12109375 l 2
 429.190429688 481.12109375 408.938476562 501.374023438 408.938476562 526.529296875 c 2
 408.938476562 553.774414062 l 2
 408.938476562 578.930664062 429.190429688 599.182617188 454.346679688 599.182617188 c 2
127.408203125 462.958007812 m 2
 218.224609375 462.958007812 l 2
 243.380859375 462.958007812 263.631835938 442.706054688 263.631835938 417.549804688 c 2
 263.631835938 390.305664062 l 2
 263.631835938 365.149414062 243.380859375 344.897460938 218.224609375 344.897460938 c 2
 127.408203125 344.897460938 l 2
 102.251953125 344.897460938 82 365.149414062 82 390.305664062 c 2
 82 417.549804688 l 2
 82 442.706054688 102.251953125 462.958007812 127.408203125 462.958007812 c 2
454.346679688 462.958007812 m 2
 545.163085938 462.958007812 l 2
 570.318359375 462.958007812 590.5703125 442.706054688 590.5703125 417.549804688 c 2
 590.5703125 390.305664062 l 2
 590.5703125 365.149414062 570.318359375 344.897460938 545.163085938 344.897460938 c 2
 454.346679688 344.897460938 l 2
 429.190429688 344.897460938 408.938476562 365.149414062 408.938476562 390.305664062 c 2
 408.938476562 417.549804688 l 2
 408.938476562 442.706054688 429.190429688 462.958007812 454.346679688 462.958007812 c 2
218.224609375 326.734375 m 2
 545.163085938 326.734375 l 2
 570.318359375 326.734375 590.5703125 306.482421875 590.5703125 281.326171875 c 2
 590.5703125 254.081054688 l 2
 590.5703125 228.924804688 570.318359375 208.672851562 545.163085938 208.672851562 c 2
 218.224609375 208.672851562 l 2
 193.068359375 208.672851562 172.81640625 228.924804688 172.81640625 254.081054688 c 2
 172.81640625 281.326171875 l 2
 172.81640625 306.482421875 193.068359375 326.734375 218.224609375 326.734375 c 2
454.346679688 190.509765625 m 2
 545.163085938 190.509765625 l 2
 570.318359375 190.509765625 590.5703125 170.2578125 590.5703125 145.1015625 c 2
 590.5703125 117.856445312 l 2
 590.5703125 92.701171875 570.318359375 72.44921875 545.163085938 72.44921875 c 2
 454.346679688 72.44921875 l 2
 429.190429688 72.44921875 408.938476562 92.701171875 408.938476562 117.856445312 c 2
 408.938476562 145.1015625 l 2
 408.938476562 170.2578125 429.190429688 190.509765625 454.346679688 190.509765625 c 2
454.346679688 54.28515625 m 2
 545.163085938 54.28515625 l 2
 570.318359375 54.28515625 590.5703125 34.033203125 590.5703125 8.8779296875 c 2
 590.5703125 -18.3671875 l 2
 590.5703125 -43.5234375 570.318359375 -63.775390625 545.163085938 -63.775390625 c 2
 454.346679688 -63.775390625 l 2
 429.190429688 -63.775390625 408.938476562 -43.5234375 408.938476562 -18.3671875 c 2
 408.938476562 8.8779296875 l 2
 408.938476562 34.033203125 429.190429688 54.28515625 454.346679688 54.28515625 c 2
454.346679688 -81.9384765625 m 2
 545.163085938 -81.9384765625 l 2
 570.318359375 -81.9384765625 590.5703125 -102.190429688 590.5703125 -127.346679688 c 2
 590.5703125 -154.591796875 l 2
 590.5703125 -179.748046875 570.318359375 -200 545.163085938 -200 c 2
 454.346679688 -200 l 2
 429.190429688 -200 408.938476562 -179.748046875 408.938476562 -154.591796875 c 2
 408.938476562 -127.346679688 l 2
 408.938476562 -102.190429688 429.190429688 -81.9384765625 454.346679688 -81.9384765625 c 2
EndSplineSet
EndChar

StartChar: five
Encoding: 53 53 35
Width: 624
Flags: HW
LayerCount: 2
Fore
SplineSet
123.408203125 599.182617188 m 2
 486.672851562 599.182617188 l 2
 511.829101562 599.182617188 532.081054688 578.930664062 532.081054688 553.774414062 c 2
 532.081054688 526.529296875 l 2
 532.081054688 501.374023438 511.829101562 481.12109375 486.672851562 481.12109375 c 2
 123.408203125 481.12109375 l 2
 98.251953125 481.12109375 78 501.374023438 78 526.529296875 c 2
 78 553.774414062 l 2
 78 578.930664062 98.251953125 599.182617188 123.408203125 599.182617188 c 2
123.408203125 462.958007812 m 2
 214.224609375 462.958007812 l 2
 239.380859375 462.958007812 259.631835938 442.706054688 259.631835938 417.549804688 c 2
 259.631835938 390.305664062 l 2
 259.631835938 365.149414062 239.380859375 344.897460938 214.224609375 344.897460938 c 2
 123.408203125 344.897460938 l 2
 98.251953125 344.897460938 78 365.149414062 78 390.305664062 c 2
 78 417.549804688 l 2
 78 442.706054688 98.251953125 462.958007812 123.408203125 462.958007812 c 2
123.408203125 326.734375 m 2
 395.856445312 326.734375 l 2
 421.012695312 326.734375 441.264648438 306.482421875 441.264648438 281.326171875 c 2
 441.264648438 254.081054688 l 2
 441.264648438 228.924804688 421.012695312 208.672851562 395.856445312 208.672851562 c 2
 123.408203125 208.672851562 l 2
 98.251953125 208.672851562 78 228.924804688 78 254.081054688 c 2
 78 281.326171875 l 2
 78 306.482421875 98.251953125 326.734375 123.408203125 326.734375 c 2
395.856445312 190.509765625 m 2
 486.672851562 190.509765625 l 2
 511.829101562 190.509765625 532.081054688 170.2578125 532.081054688 145.1015625 c 2
 532.081054688 117.856445312 l 2
 532.081054688 92.701171875 511.829101562 72.44921875 486.672851562 72.44921875 c 2
 395.856445312 72.44921875 l 2
 370.700195312 72.44921875 350.448242188 92.701171875 350.448242188 117.856445312 c 2
 350.448242188 145.1015625 l 2
 350.448242188 170.2578125 370.700195312 190.509765625 395.856445312 190.509765625 c 2
395.856445312 54.28515625 m 2
 486.672851562 54.28515625 l 2
 511.829101562 54.28515625 532.081054688 34.033203125 532.081054688 8.8779296875 c 2
 532.081054688 -18.3671875 l 2
 532.081054688 -43.5234375 511.829101562 -63.775390625 486.672851562 -63.775390625 c 2
 395.856445312 -63.775390625 l 2
 370.700195312 -63.775390625 350.448242188 -43.5234375 350.448242188 -18.3671875 c 2
 350.448242188 8.8779296875 l 2
 350.448242188 34.033203125 370.700195312 54.28515625 395.856445312 54.28515625 c 2
123.408203125 -81.9384765625 m 2
 395.856445312 -81.9384765625 l 2
 421.012695312 -81.9384765625 441.264648438 -102.190429688 441.264648438 -127.346679688 c 2
 441.264648438 -154.591796875 l 2
 441.264648438 -179.748046875 421.012695312 -200 395.856445312 -200 c 2
 123.408203125 -200 l 2
 98.251953125 -200 78 -179.748046875 78 -154.591796875 c 2
 78 -127.346679688 l 2
 78 -102.190429688 98.251953125 -81.9384765625 123.408203125 -81.9384765625 c 2
EndSplineSet
EndChar

StartChar: six
Encoding: 54 54 36
Width: 726
Flags: HW
LayerCount: 2
Fore
SplineSet
229.224609375 599.182617188 m 2
 501.672851562 599.182617188 l 2
 526.829101562 599.182617188 547.081054688 578.930664062 547.081054688 553.774414062 c 2
 547.081054688 526.529296875 l 2
 547.081054688 501.374023438 526.829101562 481.12109375 501.672851562 481.12109375 c 2
 229.224609375 481.12109375 l 2
 204.068359375 481.12109375 183.81640625 501.374023438 183.81640625 526.529296875 c 2
 183.81640625 553.774414062 l 2
 183.81640625 578.930664062 204.068359375 599.182617188 229.224609375 599.182617188 c 2
138.408203125 462.958007812 m 2
 229.224609375 462.958007812 l 2
 254.380859375 462.958007812 274.6328125 442.706054688 274.6328125 417.549804688 c 2
 274.6328125 390.305664062 l 2
 274.6328125 365.149414062 254.380859375 344.897460938 229.224609375 344.897460938 c 2
 138.408203125 344.897460938 l 2
 113.251953125 344.897460938 93 365.149414062 93 390.305664062 c 2
 93 417.549804688 l 2
 93 442.706054688 113.251953125 462.958007812 138.408203125 462.958007812 c 2
501.672851562 462.958007812 m 2
 592.489257812 462.958007812 l 2
 617.645507812 462.958007812 637.897460938 442.706054688 637.897460938 417.549804688 c 2
 637.897460938 390.305664062 l 2
 637.897460938 365.149414062 617.645507812 344.897460938 592.489257812 344.897460938 c 2
 501.672851562 344.897460938 l 2
 476.516601562 344.897460938 456.264648438 365.149414062 456.264648438 390.305664062 c 2
 456.264648438 417.549804688 l 2
 456.264648438 442.706054688 476.516601562 462.958007812 501.672851562 462.958007812 c 2
138.408203125 326.734375 m 2
 229.224609375 326.734375 l 2
 254.380859375 326.734375 274.6328125 306.482421875 274.6328125 281.326171875 c 2
 274.6328125 254.081054688 l 2
 274.6328125 228.924804688 254.380859375 208.672851562 229.224609375 208.672851562 c 2
 138.408203125 208.672851562 l 2
 113.251953125 208.672851562 93 228.924804688 93 254.081054688 c 2
 93 281.326171875 l 2
 93 306.482421875 113.251953125 326.734375 138.408203125 326.734375 c 2
138.408203125 190.509765625 m 2
 501.672851562 190.509765625 l 2
 526.829101562 190.509765625 547.081054688 170.2578125 547.081054688 145.1015625 c 2
 547.081054688 117.856445312 l 2
 547.081054688 92.701171875 526.829101562 72.44921875 501.672851562 72.44921875 c 2
 138.408203125 72.44921875 l 2
 113.251953125 72.44921875 93 92.701171875 93 117.856445312 c 2
 93 145.1015625 l 2
 93 170.2578125 113.251953125 190.509765625 138.408203125 190.509765625 c 2
138.408203125 54.28515625 m 2
 229.224609375 54.28515625 l 2
 254.380859375 54.28515625 274.6328125 34.033203125 274.6328125 8.8779296875 c 2
 274.6328125 -18.3671875 l 2
 274.6328125 -43.5234375 254.380859375 -63.775390625 229.224609375 -63.775390625 c 2
 138.408203125 -63.775390625 l 2
 113.251953125 -63.775390625 93 -43.5234375 93 -18.3671875 c 2
 93 8.8779296875 l 2
 93 34.033203125 113.251953125 54.28515625 138.408203125 54.28515625 c 2
501.672851562 54.28515625 m 2
 592.489257812 54.28515625 l 2
 617.645507812 54.28515625 637.897460938 34.033203125 637.897460938 8.8779296875 c 2
 637.897460938 -18.3671875 l 2
 637.897460938 -43.5234375 617.645507812 -63.775390625 592.489257812 -63.775390625 c 2
 501.672851562 -63.775390625 l 2
 476.516601562 -63.775390625 456.264648438 -43.5234375 456.264648438 -18.3671875 c 2
 456.264648438 8.8779296875 l 2
 456.264648438 34.033203125 476.516601562 54.28515625 501.672851562 54.28515625 c 2
229.224609375 -81.9384765625 m 2
 501.672851562 -81.9384765625 l 2
 526.829101562 -81.9384765625 547.081054688 -102.190429688 547.081054688 -127.346679688 c 2
 547.081054688 -154.591796875 l 2
 547.081054688 -179.748046875 526.829101562 -200 501.672851562 -200 c 2
 229.224609375 -200 l 2
 204.068359375 -200 183.81640625 -179.748046875 183.81640625 -154.591796875 c 2
 183.81640625 -127.346679688 l 2
 183.81640625 -102.190429688 204.068359375 -81.9384765625 229.224609375 -81.9384765625 c 2
EndSplineSet
EndChar

StartChar: seven
Encoding: 55 55 37
Width: 706
Flags: HW
LayerCount: 2
Fore
SplineSet
123.408203125 599.182617188 m 2
 577.489257812 599.182617188 l 2
 602.645507812 599.182617188 622.897460938 578.930664062 622.897460938 553.774414062 c 2
 622.897460938 526.529296875 l 2
 622.897460938 501.374023438 602.645507812 481.12109375 577.489257812 481.12109375 c 2
 123.408203125 481.12109375 l 2
 98.251953125 481.12109375 78 501.374023438 78 526.529296875 c 2
 78 553.774414062 l 2
 78 578.930664062 98.251953125 599.182617188 123.408203125 599.182617188 c 2
423.1015625 462.958007812 m 2
 513.91796875 462.958007812 l 2
 539.07421875 462.958007812 559.326171875 442.706054688 559.326171875 417.549804688 c 2
 559.326171875 390.305664062 l 2
 559.326171875 365.149414062 539.07421875 344.897460938 513.91796875 344.897460938 c 2
 423.1015625 344.897460938 l 2
 397.9453125 344.897460938 377.693359375 365.149414062 377.693359375 390.305664062 c 2
 377.693359375 417.549804688 l 2
 377.693359375 442.706054688 397.9453125 462.958007812 423.1015625 462.958007812 c 2
359.530273438 326.734375 m 2
 450.346679688 326.734375 l 2
 475.502929688 326.734375 495.754882812 306.482421875 495.754882812 281.326171875 c 2
 495.754882812 254.081054688 l 2
 495.754882812 228.924804688 475.502929688 208.672851562 450.346679688 208.672851562 c 2
 359.530273438 208.672851562 l 2
 334.374023438 208.672851562 314.122070312 228.924804688 314.122070312 254.081054688 c 2
 314.122070312 281.326171875 l 2
 314.122070312 306.482421875 334.374023438 326.734375 359.530273438 326.734375 c 2
295.958984375 190.509765625 m 2
 386.775390625 190.509765625 l 2
 411.931640625 190.509765625 432.18359375 170.2578125 432.18359375 145.1015625 c 2
 432.18359375 117.856445312 l 2
 432.18359375 92.701171875 411.931640625 72.44921875 386.775390625 72.44921875 c 2
 295.958984375 72.44921875 l 2
 270.802734375 72.44921875 250.55078125 92.701171875 250.55078125 117.856445312 c 2
 250.55078125 145.1015625 l 2
 250.55078125 170.2578125 270.802734375 190.509765625 295.958984375 190.509765625 c 2
232.387695312 54.28515625 m 2
 323.204101562 54.28515625 l 2
 348.360351562 54.28515625 368.611328125 34.033203125 368.611328125 8.8779296875 c 2
 368.611328125 -18.3671875 l 2
 368.611328125 -43.5234375 348.360351562 -63.775390625 323.204101562 -63.775390625 c 2
 232.387695312 -63.775390625 l 2
 207.231445312 -63.775390625 186.979492188 -43.5234375 186.979492188 -18.3671875 c 2
 186.979492188 8.8779296875 l 2
 186.979492188 34.033203125 207.231445312 54.28515625 232.387695312 54.28515625 c 2
168.81640625 -81.9384765625 m 2
 259.631835938 -81.9384765625 l 2
 284.788085938 -81.9384765625 305.040039062 -102.190429688 305.040039062 -127.346679688 c 2
 305.040039062 -154.591796875 l 2
 305.040039062 -179.748046875 284.788085938 -200 259.631835938 -200 c 2
 168.81640625 -200 l 2
 143.66015625 -200 123.408203125 -179.748046875 123.408203125 -154.591796875 c 2
 123.408203125 -127.346679688 l 2
 123.408203125 -102.190429688 143.66015625 -81.9384765625 168.81640625 -81.9384765625 c 2
EndSplineSet
EndChar

StartChar: eight
Encoding: 56 56 38
Width: 746
Flags: HW
LayerCount: 2
Fore
SplineSet
234.224609375 599.182617188 m 2
 506.672851562 599.182617188 l 2
 531.829101562 599.182617188 552.081054688 578.930664062 552.081054688 553.774414062 c 2
 552.081054688 526.529296875 l 2
 552.081054688 501.374023438 531.829101562 481.122070312 506.672851562 481.122070312 c 2
 234.224609375 481.122070312 l 2
 209.068359375 481.122070312 188.81640625 501.374023438 188.81640625 526.529296875 c 2
 188.81640625 553.774414062 l 2
 188.81640625 578.930664062 209.068359375 599.182617188 234.224609375 599.182617188 c 2
143.408203125 462.958007812 m 2
 234.224609375 462.958007812 l 2
 259.379882812 462.958007812 279.631835938 442.706054688 279.631835938 417.55078125 c 2
 279.631835938 390.305664062 l 2
 279.631835938 365.149414062 259.379882812 344.897460938 234.224609375 344.897460938 c 2
 143.408203125 344.897460938 l 2
 118.251953125 344.897460938 98 365.149414062 98 390.305664062 c 2
 98 417.55078125 l 2
 98 442.706054688 118.251953125 462.958007812 143.408203125 462.958007812 c 2
506.672851562 462.958007812 m 2
 597.489257812 462.958007812 l 2
 622.64453125 462.958007812 642.897460938 442.706054688 642.897460938 417.55078125 c 2
 642.897460938 390.305664062 l 2
 642.897460938 365.149414062 622.64453125 344.897460938 597.489257812 344.897460938 c 2
 506.672851562 344.897460938 l 2
 481.516601562 344.897460938 461.264648438 365.149414062 461.264648438 390.305664062 c 2
 461.264648438 417.55078125 l 2
 461.264648438 442.706054688 481.516601562 462.958007812 506.672851562 462.958007812 c 2
234.224609375 326.734375 m 2
 506.672851562 326.734375 l 2
 531.829101562 326.734375 552.081054688 306.482421875 552.081054688 281.326171875 c 2
 552.081054688 254.081054688 l 2
 552.081054688 228.924804688 531.829101562 208.672851562 506.672851562 208.672851562 c 2
 234.224609375 208.672851562 l 2
 209.068359375 208.672851562 188.81640625 228.924804688 188.81640625 254.081054688 c 2
 188.81640625 281.326171875 l 2
 188.81640625 306.482421875 209.068359375 326.734375 234.224609375 326.734375 c 2
143.408203125 190.509765625 m 2
 234.224609375 190.509765625 l 2
 259.379882812 190.509765625 279.631835938 170.2578125 279.631835938 145.1015625 c 2
 279.631835938 117.857421875 l 2
 279.631835938 92.701171875 259.379882812 72.44921875 234.224609375 72.44921875 c 2
 143.408203125 72.44921875 l 2
 118.251953125 72.44921875 98 92.701171875 98 117.857421875 c 2
 98 145.1015625 l 2
 98 170.2578125 118.251953125 190.509765625 143.408203125 190.509765625 c 2
506.672851562 190.509765625 m 2
 597.489257812 190.509765625 l 2
 622.64453125 190.509765625 642.897460938 170.2578125 642.897460938 145.1015625 c 2
 642.897460938 117.857421875 l 2
 642.897460938 92.701171875 622.64453125 72.44921875 597.489257812 72.44921875 c 2
 506.672851562 72.44921875 l 2
 481.516601562 72.44921875 461.264648438 92.701171875 461.264648438 117.857421875 c 2
 461.264648438 145.1015625 l 2
 461.264648438 170.2578125 481.516601562 190.509765625 506.672851562 190.509765625 c 2
143.408203125 54.28515625 m 2
 234.224609375 54.28515625 l 2
 259.379882812 54.28515625 279.631835938 34.033203125 279.631835938 8.8779296875 c 2
 279.631835938 -18.3671875 l 2
 279.631835938 -43.5234375 259.379882812 -63.775390625 234.224609375 -63.775390625 c 2
 143.408203125 -63.775390625 l 2
 118.251953125 -63.775390625 98 -43.5234375 98 -18.3671875 c 2
 98 8.8779296875 l 2
 98 34.033203125 118.251953125 54.28515625 143.408203125 54.28515625 c 2
506.672851562 54.28515625 m 2
 597.489257812 54.28515625 l 2
 622.64453125 54.28515625 642.897460938 34.033203125 642.897460938 8.8779296875 c 2
 642.897460938 -18.3671875 l 2
 642.897460938 -43.5234375 622.64453125 -63.775390625 597.489257812 -63.775390625 c 2
 506.672851562 -63.775390625 l 2
 481.516601562 -63.775390625 461.264648438 -43.5234375 461.264648438 -18.3671875 c 2
 461.264648438 8.8779296875 l 2
 461.264648438 34.033203125 481.516601562 54.28515625 506.672851562 54.28515625 c 2
234.224609375 -81.9384765625 m 2
 506.672851562 -81.9384765625 l 2
 531.829101562 -81.9384765625 552.081054688 -102.190429688 552.081054688 -127.346679688 c 2
 552.081054688 -154.591796875 l 2
 552.081054688 -179.748046875 531.829101562 -200 506.672851562 -200 c 2
 234.224609375 -200 l 2
 209.068359375 -200 188.81640625 -179.748046875 188.81640625 -154.591796875 c 2
 188.81640625 -127.346679688 l 2
 188.81640625 -102.190429688 209.068359375 -81.9384765625 234.224609375 -81.9384765625 c 2
EndSplineSet
EndChar

StartChar: nine
Encoding: 57 57 39
Width: 720
Flags: HW
LayerCount: 2
Fore
SplineSet
216.224609375 599.182617188 m 2
 488.672851562 599.182617188 l 2
 513.829101562 599.182617188 534.081054688 578.930664062 534.081054688 553.774414062 c 2
 534.081054688 526.529296875 l 2
 534.081054688 501.374023438 513.829101562 481.122070312 488.672851562 481.122070312 c 2
 216.224609375 481.122070312 l 2
 191.068359375 481.122070312 170.81640625 501.374023438 170.81640625 526.529296875 c 2
 170.81640625 553.774414062 l 2
 170.81640625 578.930664062 191.068359375 599.182617188 216.224609375 599.182617188 c 2
125.408203125 462.958007812 m 2
 216.224609375 462.958007812 l 2
 241.379882812 462.958007812 261.631835938 442.706054688 261.631835938 417.55078125 c 2
 261.631835938 390.305664062 l 2
 261.631835938 365.149414062 241.379882812 344.897460938 216.224609375 344.897460938 c 2
 125.408203125 344.897460938 l 2
 100.251953125 344.897460938 80 365.149414062 80 390.305664062 c 2
 80 417.55078125 l 2
 80 442.706054688 100.251953125 462.958007812 125.408203125 462.958007812 c 2
488.672851562 462.958007812 m 2
 579.489257812 462.958007812 l 2
 604.64453125 462.958007812 624.897460938 442.706054688 624.897460938 417.55078125 c 2
 624.897460938 390.305664062 l 2
 624.897460938 365.149414062 604.64453125 344.897460938 579.489257812 344.897460938 c 2
 488.672851562 344.897460938 l 2
 463.516601562 344.897460938 443.264648438 365.149414062 443.264648438 390.305664062 c 2
 443.264648438 417.55078125 l 2
 443.264648438 442.706054688 463.516601562 462.958007812 488.672851562 462.958007812 c 2
216.224609375 326.734375 m 2
 579.489257812 326.734375 l 2
 604.64453125 326.734375 624.897460938 306.482421875 624.897460938 281.326171875 c 2
 624.897460938 254.081054688 l 2
 624.897460938 228.924804688 604.64453125 208.672851562 579.489257812 208.672851562 c 2
 216.224609375 208.672851562 l 2
 191.068359375 208.672851562 170.81640625 228.924804688 170.81640625 254.081054688 c 2
 170.81640625 281.326171875 l 2
 170.81640625 306.482421875 191.068359375 326.734375 216.224609375 326.734375 c 2
488.672851562 190.509765625 m 2
 579.489257812 190.509765625 l 2
 604.64453125 190.509765625 624.897460938 170.2578125 624.897460938 145.1015625 c 2
 624.897460938 117.857421875 l 2
 624.897460938 92.701171875 604.64453125 72.44921875 579.489257812 72.44921875 c 2
 488.672851562 72.44921875 l 2
 463.516601562 72.44921875 443.264648438 92.701171875 443.264648438 117.857421875 c 2
 443.264648438 145.1015625 l 2
 443.264648438 170.2578125 463.516601562 190.509765625 488.672851562 190.509765625 c 2
125.408203125 54.28515625 m 2
 216.224609375 54.28515625 l 2
 241.379882812 54.28515625 261.631835938 34.033203125 261.631835938 8.8779296875 c 2
 261.631835938 -18.3671875 l 2
 261.631835938 -43.5234375 241.379882812 -63.775390625 216.224609375 -63.775390625 c 2
 125.408203125 -63.775390625 l 2
 100.251953125 -63.775390625 80 -43.5234375 80 -18.3671875 c 2
 80 8.8779296875 l 2
 80 34.033203125 100.251953125 54.28515625 125.408203125 54.28515625 c 2
488.672851562 54.28515625 m 2
 579.489257812 54.28515625 l 2
 604.64453125 54.28515625 624.897460938 34.033203125 624.897460938 8.8779296875 c 2
 624.897460938 -18.3671875 l 2
 624.897460938 -43.5234375 604.64453125 -63.775390625 579.489257812 -63.775390625 c 2
 488.672851562 -63.775390625 l 2
 463.516601562 -63.775390625 443.264648438 -43.5234375 443.264648438 -18.3671875 c 2
 443.264648438 8.8779296875 l 2
 443.264648438 34.033203125 463.516601562 54.28515625 488.672851562 54.28515625 c 2
216.224609375 -81.9384765625 m 2
 488.672851562 -81.9384765625 l 2
 513.829101562 -81.9384765625 534.081054688 -102.190429688 534.081054688 -127.346679688 c 2
 534.081054688 -154.591796875 l 2
 534.081054688 -179.748046875 513.829101562 -200 488.672851562 -200 c 2
 216.224609375 -200 l 2
 191.068359375 -200 170.81640625 -179.748046875 170.81640625 -154.591796875 c 2
 170.81640625 -127.346679688 l 2
 170.81640625 -102.190429688 191.068359375 -81.9384765625 216.224609375 -81.9384765625 c 2
EndSplineSet
EndChar

StartChar: e
Encoding: 101 101 40
Width: 603
Flags: HW
LayerCount: 2
Fore
SplineSet
136.224609375 353.978515625 m 2
 454.081054688 353.978515625 l 2
 479.236328125 353.978515625 499.48828125 333.7265625 499.48828125 308.5703125 c 2
 499.48828125 281.325195312 l 2
 499.48828125 256.169921875 479.236328125 235.91796875 454.081054688 235.91796875 c 2
 136.224609375 235.91796875 l 2
 111.068359375 235.91796875 90.8154296875 256.169921875 90.8154296875 281.325195312 c 2
 90.8154296875 308.5703125 l 2
 90.8154296875 333.7265625 111.068359375 353.978515625 136.224609375 353.978515625 c 2
45.408203125 217.75390625 m 2
 136.224609375 217.75390625 l 2
 161.379882812 217.75390625 181.631835938 197.501953125 181.631835938 172.345703125 c 2
 181.631835938 145.1015625 l 2
 181.631835938 119.9453125 161.379882812 99.693359375 136.224609375 99.693359375 c 2
 45.408203125 99.693359375 l 2
 20.251953125 99.693359375 0 119.9453125 0 145.1015625 c 2
 0 172.345703125 l 2
 0 197.501953125 20.251953125 217.75390625 45.408203125 217.75390625 c 2
363.264648438 217.75390625 m 2
 454.081054688 217.75390625 l 2
 479.236328125 217.75390625 499.48828125 197.501953125 499.48828125 172.345703125 c 2
 499.48828125 145.1015625 l 2
 499.48828125 119.9453125 479.236328125 99.693359375 454.081054688 99.693359375 c 2
 363.264648438 99.693359375 l 2
 338.108398438 99.693359375 317.856445312 119.9453125 317.856445312 145.1015625 c 2
 317.856445312 172.345703125 l 2
 317.856445312 197.501953125 338.108398438 217.75390625 363.264648438 217.75390625 c 2
45.408203125 81.5302734375 m 2
 363.264648438 81.5302734375 l 2
 388.420898438 81.5302734375 408.672851562 61.2783203125 408.672851562 36.1220703125 c 2
 408.672851562 8.876953125 l 2
 408.672851562 -16.279296875 388.420898438 -36.53125 363.264648438 -36.53125 c 2
 45.408203125 -36.53125 l 2
 20.251953125 -36.53125 0 -16.279296875 0 8.876953125 c 2
 0 36.1220703125 l 2
 0 61.2783203125 20.251953125 81.5302734375 45.408203125 81.5302734375 c 2
136.224609375 -81.939453125 m 2
 454.081054688 -81.939453125 l 2
 479.236328125 -81.939453125 499.48828125 -102.19140625 499.48828125 -127.34765625 c 2
 499.48828125 -154.591796875 l 2
 499.48828125 -179.748046875 479.236328125 -200 454.081054688 -200 c 2
 136.224609375 -200 l 2
 111.068359375 -200 90.8154296875 -179.748046875 90.8154296875 -154.591796875 c 2
 90.8154296875 -127.34765625 l 2
 90.8154296875 -102.19140625 111.068359375 -81.939453125 136.224609375 -81.939453125 c 2
EndSplineSet
EndChar

StartChar: f
Encoding: 102 102 41
Width: 604
Flags: HW
LayerCount: 2
Fore
SplineSet
227.040039062 599.182617188 m 2
 454.081054688 599.182617188 l 2
 479.237304688 599.182617188 499.489257812 578.930664062 499.489257812 553.774414062 c 2
 499.489257812 526.529296875 l 2
 499.489257812 501.374023438 479.237304688 481.122070312 454.081054688 481.122070312 c 2
 227.040039062 481.122070312 l 2
 201.884765625 481.122070312 181.6328125 501.374023438 181.6328125 526.529296875 c 2
 181.6328125 553.774414062 l 2
 181.6328125 578.930664062 201.884765625 599.182617188 227.040039062 599.182617188 c 2
136.224609375 462.958007812 m 2
 227.040039062 462.958007812 l 2
 252.196289062 462.958007812 272.448242188 442.706054688 272.448242188 417.549804688 c 2
 272.448242188 390.305664062 l 2
 272.448242188 365.149414062 252.196289062 344.897460938 227.040039062 344.897460938 c 2
 136.224609375 344.897460938 l 2
 111.068359375 344.897460938 90.81640625 365.149414062 90.81640625 390.305664062 c 2
 90.81640625 417.549804688 l 2
 90.81640625 442.706054688 111.068359375 462.958007812 136.224609375 462.958007812 c 2
45.408203125 326.734375 m 2
 454.081054688 326.734375 l 2
 479.237304688 326.734375 499.489257812 306.482421875 499.489257812 281.326171875 c 2
 499.489257812 254.081054688 l 2
 499.489257812 228.924804688 479.237304688 208.672851562 454.081054688 208.672851562 c 2
 45.408203125 208.672851562 l 2
 20.251953125 208.672851562 0 228.924804688 0 254.081054688 c 2
 0 281.326171875 l 2
 0 306.482421875 20.251953125 326.734375 45.408203125 326.734375 c 2
136.224609375 190.509765625 m 2
 227.040039062 190.509765625 l 2
 252.196289062 190.509765625 272.448242188 170.2578125 272.448242188 145.1015625 c 2
 272.448242188 117.856445312 l 2
 272.448242188 92.701171875 252.196289062 72.44921875 227.040039062 72.44921875 c 2
 136.224609375 72.44921875 l 2
 111.068359375 72.44921875 90.81640625 92.701171875 90.81640625 117.856445312 c 2
 90.81640625 145.1015625 l 2
 90.81640625 170.2578125 111.068359375 190.509765625 136.224609375 190.509765625 c 2
136.224609375 54.28515625 m 2
 227.040039062 54.28515625 l 2
 252.196289062 54.28515625 272.448242188 34.033203125 272.448242188 8.8779296875 c 2
 272.448242188 -18.3671875 l 2
 272.448242188 -43.5234375 252.196289062 -63.775390625 227.040039062 -63.775390625 c 2
 136.224609375 -63.775390625 l 2
 111.068359375 -63.775390625 90.81640625 -43.5234375 90.81640625 -18.3671875 c 2
 90.81640625 8.8779296875 l 2
 90.81640625 34.033203125 111.068359375 54.28515625 136.224609375 54.28515625 c 2
136.224609375 -81.9384765625 m 2
 227.040039062 -81.9384765625 l 2
 252.196289062 -81.9384765625 272.448242188 -102.190429688 272.448242188 -127.346679688 c 2
 272.448242188 -154.591796875 l 2
 272.448242188 -179.748046875 252.196289062 -200 227.040039062 -200 c 2
 136.224609375 -200 l 2
 111.068359375 -200 90.81640625 -179.748046875 90.81640625 -154.591796875 c 2
 90.81640625 -127.346679688 l 2
 90.81640625 -102.190429688 111.068359375 -81.9384765625 136.224609375 -81.9384765625 c 2
EndSplineSet
EndChar

StartChar: g
Encoding: 103 103 42
Width: 622
Flags: HW
LayerCount: 2
Fore
SplineSet
136.224609375 326.733398438 m 2
 454.081054688 326.733398438 l 2
 479.237304688 326.733398438 499.489257812 306.481445312 499.489257812 281.325195312 c 2
 499.489257812 254.080078125 l 2
 499.489257812 228.924804688 479.237304688 208.672851562 454.081054688 208.672851562 c 2
 136.224609375 208.672851562 l 2
 111.068359375 208.672851562 90.81640625 228.924804688 90.81640625 254.080078125 c 2
 90.81640625 281.325195312 l 2
 90.81640625 306.481445312 111.068359375 326.733398438 136.224609375 326.733398438 c 2
45.408203125 190.508789062 m 2
 136.224609375 190.508789062 l 2
 161.380859375 190.508789062 181.6328125 170.256835938 181.6328125 145.100585938 c 2
 181.6328125 117.856445312 l 2
 181.6328125 92.7001953125 161.380859375 72.4482421875 136.224609375 72.4482421875 c 2
 45.408203125 72.4482421875 l 2
 20.251953125 72.4482421875 0 92.7001953125 0 117.856445312 c 2
 0 145.100585938 l 2
 0 170.256835938 20.251953125 190.508789062 45.408203125 190.508789062 c 2
363.264648438 190.508789062 m 2
 454.081054688 190.508789062 l 2
 479.237304688 190.508789062 499.489257812 170.256835938 499.489257812 145.100585938 c 2
 499.489257812 117.856445312 l 2
 499.489257812 92.7001953125 479.237304688 72.4482421875 454.081054688 72.4482421875 c 2
 363.264648438 72.4482421875 l 2
 338.108398438 72.4482421875 317.856445312 92.7001953125 317.856445312 117.856445312 c 2
 317.856445312 145.100585938 l 2
 317.856445312 170.256835938 338.108398438 190.508789062 363.264648438 190.508789062 c 2
45.408203125 54.28515625 m 2
 136.224609375 54.28515625 l 2
 161.380859375 54.28515625 181.6328125 34.033203125 181.6328125 8.876953125 c 2
 181.6328125 -18.3681640625 l 2
 181.6328125 -43.5244140625 161.380859375 -63.7763671875 136.224609375 -63.7763671875 c 2
 45.408203125 -63.7763671875 l 2
 20.251953125 -63.7763671875 0 -43.5244140625 0 -18.3681640625 c 2
 0 8.876953125 l 2
 0 34.033203125 20.251953125 54.28515625 45.408203125 54.28515625 c 2
363.264648438 54.28515625 m 2
 454.081054688 54.28515625 l 2
 479.237304688 54.28515625 499.489257812 34.033203125 499.489257812 8.876953125 c 2
 499.489257812 -18.3681640625 l 2
 499.489257812 -43.5244140625 479.237304688 -63.7763671875 454.081054688 -63.7763671875 c 2
 363.264648438 -63.7763671875 l 2
 338.108398438 -63.7763671875 317.856445312 -43.5244140625 317.856445312 -18.3681640625 c 2
 317.856445312 8.876953125 l 2
 317.856445312 34.033203125 338.108398438 54.28515625 363.264648438 54.28515625 c 2
136.224609375 -81.939453125 m 2
 454.081054688 -81.939453125 l 2
 479.237304688 -81.939453125 499.489257812 -102.19140625 499.489257812 -127.34765625 c 2
 499.489257812 -154.592773438 l 2
 499.489257812 -179.748046875 479.237304688 -200 454.081054688 -200 c 2
 136.224609375 -200 l 2
 111.068359375 -200 90.81640625 -179.748046875 90.81640625 -154.592773438 c 2
 90.81640625 -127.34765625 l 2
 90.81640625 -102.19140625 111.068359375 -81.939453125 136.224609375 -81.939453125 c 2
363.264648438 -218.1640625 m 2
 454.081054688 -218.1640625 l 2
 479.237304688 -218.1640625 499.489257812 -238.416015625 499.489257812 -263.571289062 c 2
 499.489257812 -290.81640625 l 2
 499.489257812 -315.97265625 479.237304688 -336.224609375 454.081054688 -336.224609375 c 2
 363.264648438 -336.224609375 l 2
 338.108398438 -336.224609375 317.856445312 -315.97265625 317.856445312 -290.81640625 c 2
 317.856445312 -263.571289062 l 2
 317.856445312 -238.416015625 338.108398438 -218.1640625 363.264648438 -218.1640625 c 2
45.408203125 -354.387695312 m 2
 363.264648438 -354.387695312 l 2
 388.420898438 -354.387695312 408.672851562 -374.639648438 408.672851562 -399.795898438 c 2
 408.672851562 -427.041015625 l 2
 408.672851562 -452.197265625 388.420898438 -472.44921875 363.264648438 -472.44921875 c 2
 45.408203125 -472.44921875 l 2
 20.251953125 -472.44921875 0 -452.197265625 0 -427.041015625 c 2
 0 -399.795898438 l 2
 0 -374.639648438 20.251953125 -354.387695312 45.408203125 -354.387695312 c 2
EndSplineSet
EndChar

StartChar: h
Encoding: 104 104 43
Width: 606
Flags: HW
LayerCount: 2
Fore
SplineSet
45.408203125 599.182617188 m 2
 136.224609375 599.182617188 l 2
 161.380859375 599.182617188 181.631835938 578.930664062 181.631835938 553.774414062 c 2
 181.631835938 526.529296875 l 2
 181.631835938 501.374023438 161.380859375 481.122070312 136.224609375 481.122070312 c 2
 45.408203125 481.122070312 l 2
 20.251953125 481.122070312 0 501.374023438 0 526.529296875 c 2
 0 553.774414062 l 2
 0 578.930664062 20.251953125 599.182617188 45.408203125 599.182617188 c 2
45.408203125 462.958007812 m 2
 136.224609375 462.958007812 l 2
 161.380859375 462.958007812 181.631835938 442.706054688 181.631835938 417.549804688 c 2
 181.631835938 390.305664062 l 2
 181.631835938 365.149414062 161.380859375 344.897460938 136.224609375 344.897460938 c 2
 45.408203125 344.897460938 l 2
 20.251953125 344.897460938 0 365.149414062 0 390.305664062 c 2
 0 417.549804688 l 2
 0 442.706054688 20.251953125 462.958007812 45.408203125 462.958007812 c 2
45.408203125 326.734375 m 2
 136.224609375 326.734375 l 2
 161.380859375 326.734375 181.631835938 306.482421875 181.631835938 281.326171875 c 2
 181.631835938 254.081054688 l 2
 181.631835938 228.924804688 161.380859375 208.672851562 136.224609375 208.672851562 c 2
 45.408203125 208.672851562 l 2
 20.251953125 208.672851562 0 228.924804688 0 254.081054688 c 2
 0 281.326171875 l 2
 0 306.482421875 20.251953125 326.734375 45.408203125 326.734375 c 2
45.408203125 190.509765625 m 2
 363.264648438 190.509765625 l 2
 388.420898438 190.509765625 408.672851562 170.2578125 408.672851562 145.1015625 c 2
 408.672851562 117.856445312 l 2
 408.672851562 92.701171875 388.420898438 72.44921875 363.264648438 72.44921875 c 2
 45.408203125 72.44921875 l 2
 20.251953125 72.44921875 0 92.701171875 0 117.856445312 c 2
 0 145.1015625 l 2
 0 170.2578125 20.251953125 190.509765625 45.408203125 190.509765625 c 2
45.408203125 54.28515625 m 2
 136.224609375 54.28515625 l 2
 161.380859375 54.28515625 181.631835938 34.033203125 181.631835938 8.8779296875 c 2
 181.631835938 -18.3671875 l 2
 181.631835938 -43.5234375 161.380859375 -63.775390625 136.224609375 -63.775390625 c 2
 45.408203125 -63.775390625 l 2
 20.251953125 -63.775390625 0 -43.5234375 0 -18.3671875 c 2
 0 8.8779296875 l 2
 0 34.033203125 20.251953125 54.28515625 45.408203125 54.28515625 c 2
363.264648438 54.28515625 m 2
 454.081054688 54.28515625 l 2
 479.237304688 54.28515625 499.489257812 34.033203125 499.489257812 8.8779296875 c 2
 499.489257812 -18.3671875 l 2
 499.489257812 -43.5234375 479.237304688 -63.775390625 454.081054688 -63.775390625 c 2
 363.264648438 -63.775390625 l 2
 338.108398438 -63.775390625 317.856445312 -43.5234375 317.856445312 -18.3671875 c 2
 317.856445312 8.8779296875 l 2
 317.856445312 34.033203125 338.108398438 54.28515625 363.264648438 54.28515625 c 2
45.408203125 -81.9384765625 m 2
 136.224609375 -81.9384765625 l 2
 161.380859375 -81.9384765625 181.631835938 -102.190429688 181.631835938 -127.346679688 c 2
 181.631835938 -154.591796875 l 2
 181.631835938 -179.748046875 161.380859375 -200 136.224609375 -200 c 2
 45.408203125 -200 l 2
 20.251953125 -200 0 -179.748046875 0 -154.591796875 c 2
 0 -127.346679688 l 2
 0 -102.190429688 20.251953125 -81.9384765625 45.408203125 -81.9384765625 c 2
363.264648438 -81.9384765625 m 2
 454.081054688 -81.9384765625 l 2
 479.237304688 -81.9384765625 499.489257812 -102.190429688 499.489257812 -127.346679688 c 2
 499.489257812 -154.591796875 l 2
 499.489257812 -179.748046875 479.237304688 -200 454.081054688 -200 c 2
 363.264648438 -200 l 2
 338.108398438 -200 317.856445312 -179.748046875 317.856445312 -154.591796875 c 2
 317.856445312 -127.346679688 l 2
 317.856445312 -102.190429688 338.108398438 -81.9384765625 363.264648438 -81.9384765625 c 2
EndSplineSet
EndChar

StartChar: i
Encoding: 105 105 44
Width: 262
Flags: HW
LayerCount: 2
Fore
SplineSet
45.408203125 599.182617188 m 2
 136.224609375 599.182617188 l 2
 161.380859375 599.182617188 181.6328125 578.930664062 181.6328125 553.774414062 c 2
 181.6328125 526.529296875 l 2
 181.6328125 501.374023438 161.380859375 481.122070312 136.224609375 481.122070312 c 2
 45.408203125 481.122070312 l 2
 20.251953125 481.122070312 0 501.374023438 0 526.529296875 c 2
 0 553.774414062 l 2
 0 578.930664062 20.251953125 599.182617188 45.408203125 599.182617188 c 2
45.408203125 326.734375 m 2
 136.224609375 326.734375 l 2
 161.380859375 326.734375 181.6328125 306.482421875 181.6328125 281.326171875 c 2
 181.6328125 254.081054688 l 2
 181.6328125 228.924804688 161.380859375 208.672851562 136.224609375 208.672851562 c 2
 45.408203125 208.672851562 l 2
 20.251953125 208.672851562 0 228.924804688 0 254.081054688 c 2
 0 281.326171875 l 2
 0 306.482421875 20.251953125 326.734375 45.408203125 326.734375 c 2
45.408203125 190.509765625 m 2
 136.224609375 190.509765625 l 2
 161.380859375 190.509765625 181.6328125 170.2578125 181.6328125 145.1015625 c 2
 181.6328125 117.856445312 l 2
 181.6328125 92.701171875 161.380859375 72.44921875 136.224609375 72.44921875 c 2
 45.408203125 72.44921875 l 2
 20.251953125 72.44921875 0 92.701171875 0 117.856445312 c 2
 0 145.1015625 l 2
 0 170.2578125 20.251953125 190.509765625 45.408203125 190.509765625 c 2
45.408203125 54.28515625 m 2
 136.224609375 54.28515625 l 2
 161.380859375 54.28515625 181.6328125 34.033203125 181.6328125 8.8779296875 c 2
 181.6328125 -18.3671875 l 2
 181.6328125 -43.5234375 161.380859375 -63.775390625 136.224609375 -63.775390625 c 2
 45.408203125 -63.775390625 l 2
 20.251953125 -63.775390625 0 -43.5234375 0 -18.3671875 c 2
 0 8.8779296875 l 2
 0 34.033203125 20.251953125 54.28515625 45.408203125 54.28515625 c 2
45.408203125 -81.9384765625 m 2
 136.224609375 -81.9384765625 l 2
 161.380859375 -81.9384765625 181.6328125 -102.190429688 181.6328125 -127.346679688 c 2
 181.6328125 -154.591796875 l 2
 181.6328125 -179.748046875 161.380859375 -200 136.224609375 -200 c 2
 45.408203125 -200 l 2
 20.251953125 -200 0 -179.748046875 0 -154.591796875 c 2
 0 -127.346679688 l 2
 0 -102.190429688 20.251953125 -81.9384765625 45.408203125 -81.9384765625 c 2
EndSplineSet
EndChar

StartChar: j
Encoding: 106 106 45
Width: 618
Flags: HW
LayerCount: 2
Fore
SplineSet
363.264648438 599.182617188 m 2
 454.081054688 599.182617188 l 2
 479.237304688 599.182617188 499.489257812 578.930664062 499.489257812 553.774414062 c 2
 499.489257812 526.529296875 l 2
 499.489257812 501.374023438 479.237304688 481.122070312 454.081054688 481.122070312 c 2
 363.264648438 481.122070312 l 2
 338.108398438 481.122070312 317.856445312 501.374023438 317.856445312 526.529296875 c 2
 317.856445312 553.774414062 l 2
 317.856445312 578.930664062 338.108398438 599.182617188 363.264648438 599.182617188 c 2
363.264648438 326.734375 m 2
 454.081054688 326.734375 l 2
 479.237304688 326.734375 499.489257812 306.482421875 499.489257812 281.326171875 c 2
 499.489257812 254.081054688 l 2
 499.489257812 228.924804688 479.237304688 208.672851562 454.081054688 208.672851562 c 2
 363.264648438 208.672851562 l 2
 338.108398438 208.672851562 317.856445312 228.924804688 317.856445312 254.081054688 c 2
 317.856445312 281.326171875 l 2
 317.856445312 306.482421875 338.108398438 326.734375 363.264648438 326.734375 c 2
363.264648438 190.509765625 m 2
 454.081054688 190.509765625 l 2
 479.237304688 190.509765625 499.489257812 170.2578125 499.489257812 145.1015625 c 2
 499.489257812 117.856445312 l 2
 499.489257812 92.701171875 479.237304688 72.44921875 454.081054688 72.44921875 c 2
 363.264648438 72.44921875 l 2
 338.108398438 72.44921875 317.856445312 92.701171875 317.856445312 117.856445312 c 2
 317.856445312 145.1015625 l 2
 317.856445312 170.2578125 338.108398438 190.509765625 363.264648438 190.509765625 c 2
45.408203125 54.28515625 m 2
 136.224609375 54.28515625 l 2
 161.379882812 54.28515625 181.6328125 34.033203125 181.6328125 8.8779296875 c 2
 181.6328125 -18.3671875 l 2
 181.6328125 -43.5234375 161.379882812 -63.775390625 136.224609375 -63.775390625 c 2
 45.408203125 -63.775390625 l 2
 20.251953125 -63.775390625 0 -43.5234375 0 -18.3671875 c 2
 0 8.8779296875 l 2
 0 34.033203125 20.251953125 54.28515625 45.408203125 54.28515625 c 2
363.264648438 54.28515625 m 2
 454.081054688 54.28515625 l 2
 479.237304688 54.28515625 499.489257812 34.033203125 499.489257812 8.8779296875 c 2
 499.489257812 -18.3671875 l 2
 499.489257812 -43.5234375 479.237304688 -63.775390625 454.081054688 -63.775390625 c 2
 363.264648438 -63.775390625 l 2
 338.108398438 -63.775390625 317.856445312 -43.5234375 317.856445312 -18.3671875 c 2
 317.856445312 8.8779296875 l 2
 317.856445312 34.033203125 338.108398438 54.28515625 363.264648438 54.28515625 c 2
45.408203125 -81.9384765625 m 2
 454.081054688 -81.9384765625 l 2
 479.237304688 -81.9384765625 499.489257812 -102.190429688 499.489257812 -127.346679688 c 2
 499.489257812 -154.591796875 l 2
 499.489257812 -179.748046875 479.237304688 -200 454.081054688 -200 c 2
 45.408203125 -200 l 2
 20.251953125 -200 0 -179.748046875 0 -154.591796875 c 2
 0 -127.346679688 l 2
 0 -102.190429688 20.251953125 -81.9384765625 45.408203125 -81.9384765625 c 2
EndSplineSet
EndChar

StartChar: k
Encoding: 107 107 46
Width: 586
Flags: HW
LayerCount: 2
Fore
SplineSet
45.408203125 462.958007812 m 2
 136.224609375 462.958007812 l 2
 161.379882812 462.958007812 181.6328125 442.706054688 181.6328125 417.549804688 c 2
 181.6328125 390.3046875 l 2
 181.6328125 365.149414062 161.379882812 344.897460938 136.224609375 344.897460938 c 2
 45.408203125 344.897460938 l 2
 20.251953125 344.897460938 0 365.149414062 0 390.3046875 c 2
 0 417.549804688 l 2
 0 442.706054688 20.251953125 462.958007812 45.408203125 462.958007812 c 2
45.408203125 326.733398438 m 2
 136.224609375 326.733398438 l 2
 161.379882812 326.733398438 181.6328125 306.481445312 181.6328125 281.325195312 c 2
 181.6328125 254.081054688 l 2
 181.6328125 228.924804688 161.379882812 208.672851562 136.224609375 208.672851562 c 2
 45.408203125 208.672851562 l 2
 20.251953125 208.672851562 0 228.924804688 0 254.081054688 c 2
 0 281.325195312 l 2
 0 306.481445312 20.251953125 326.733398438 45.408203125 326.733398438 c 2
281.530273438 326.733398438 m 2
 372.346679688 326.733398438 l 2
 397.501953125 326.733398438 417.754882812 306.481445312 417.754882812 281.325195312 c 2
 417.754882812 254.081054688 l 2
 417.754882812 228.924804688 397.501953125 208.672851562 372.346679688 208.672851562 c 2
 281.530273438 208.672851562 l 2
 256.374023438 208.672851562 236.122070312 228.924804688 236.122070312 254.081054688 c 2
 236.122070312 281.325195312 l 2
 236.122070312 306.481445312 256.374023438 326.733398438 281.530273438 326.733398438 c 2
45.408203125 190.509765625 m 2
 272.448242188 190.509765625 l 2
 297.604492188 190.509765625 317.856445312 170.2578125 317.856445312 145.1015625 c 2
 317.856445312 117.856445312 l 2
 317.856445312 92.7001953125 297.604492188 72.4482421875 272.448242188 72.4482421875 c 2
 45.408203125 72.4482421875 l 2
 20.251953125 72.4482421875 0 92.7001953125 0 117.856445312 c 2
 0 145.1015625 l 2
 0 170.2578125 20.251953125 190.509765625 45.408203125 190.509765625 c 2
45.408203125 54.28515625 m 2
 136.224609375 54.28515625 l 2
 161.379882812 54.28515625 181.6328125 34.033203125 181.6328125 8.876953125 c 2
 181.6328125 -18.3681640625 l 2
 181.6328125 -43.5234375 161.379882812 -63.775390625 136.224609375 -63.775390625 c 2
 45.408203125 -63.775390625 l 2
 20.251953125 -63.775390625 0 -43.5234375 0 -18.3681640625 c 2
 0 8.876953125 l 2
 0 34.033203125 20.251953125 54.28515625 45.408203125 54.28515625 c 2
281.530273438 54.28515625 m 2
 372.346679688 54.28515625 l 2
 397.501953125 54.28515625 417.754882812 34.033203125 417.754882812 8.876953125 c 2
 417.754882812 -18.3681640625 l 2
 417.754882812 -43.5234375 397.501953125 -63.775390625 372.346679688 -63.775390625 c 2
 281.530273438 -63.775390625 l 2
 256.374023438 -63.775390625 236.122070312 -43.5234375 236.122070312 -18.3681640625 c 2
 236.122070312 8.876953125 l 2
 236.122070312 34.033203125 256.374023438 54.28515625 281.530273438 54.28515625 c 2
45.408203125 -81.939453125 m 2
 136.224609375 -81.939453125 l 2
 161.379882812 -81.939453125 181.6328125 -102.19140625 181.6328125 -127.346679688 c 2
 181.6328125 -154.591796875 l 2
 181.6328125 -179.748046875 161.379882812 -200 136.224609375 -200 c 2
 45.408203125 -200 l 2
 20.251953125 -200 0 -179.748046875 0 -154.591796875 c 2
 0 -127.346679688 l 2
 0 -102.19140625 20.251953125 -81.939453125 45.408203125 -81.939453125 c 2
363.264648438 -81.939453125 m 2
 454.081054688 -81.939453125 l 2
 479.237304688 -81.939453125 499.489257812 -102.19140625 499.489257812 -127.346679688 c 2
 499.489257812 -154.591796875 l 2
 499.489257812 -179.748046875 479.237304688 -200 454.081054688 -200 c 2
 363.264648438 -200 l 2
 338.108398438 -200 317.856445312 -179.748046875 317.856445312 -154.591796875 c 2
 317.856445312 -127.346679688 l 2
 317.856445312 -102.19140625 338.108398438 -81.939453125 363.264648438 -81.939453125 c 2
EndSplineSet
EndChar

StartChar: l
Encoding: 108 108 47
Width: 256
Flags: HW
LayerCount: 2
Fore
SplineSet
45.408203125 599.182617188 m 2
 136.224609375 599.182617188 l 2
 161.379882812 599.182617188 181.631835938 578.930664062 181.631835938 553.774414062 c 2
 181.631835938 526.529296875 l 2
 181.631835938 501.374023438 161.379882812 481.122070312 136.224609375 481.122070312 c 2
 45.408203125 481.122070312 l 2
 20.251953125 481.122070312 0 501.374023438 0 526.529296875 c 2
 0 553.774414062 l 2
 0 578.930664062 20.251953125 599.182617188 45.408203125 599.182617188 c 2
45.408203125 462.958007812 m 2
 136.224609375 462.958007812 l 2
 161.379882812 462.958007812 181.631835938 442.706054688 181.631835938 417.549804688 c 2
 181.631835938 390.305664062 l 2
 181.631835938 365.149414062 161.379882812 344.897460938 136.224609375 344.897460938 c 2
 45.408203125 344.897460938 l 2
 20.251953125 344.897460938 0 365.149414062 0 390.305664062 c 2
 0 417.549804688 l 2
 0 442.706054688 20.251953125 462.958007812 45.408203125 462.958007812 c 2
45.408203125 326.734375 m 2
 136.224609375 326.734375 l 2
 161.379882812 326.734375 181.631835938 306.482421875 181.631835938 281.326171875 c 2
 181.631835938 254.081054688 l 2
 181.631835938 228.924804688 161.379882812 208.672851562 136.224609375 208.672851562 c 2
 45.408203125 208.672851562 l 2
 20.251953125 208.672851562 0 228.924804688 0 254.081054688 c 2
 0 281.326171875 l 2
 0 306.482421875 20.251953125 326.734375 45.408203125 326.734375 c 2
45.408203125 190.509765625 m 2
 136.224609375 190.509765625 l 2
 161.379882812 190.509765625 181.631835938 170.2578125 181.631835938 145.1015625 c 2
 181.631835938 117.856445312 l 2
 181.631835938 92.701171875 161.379882812 72.44921875 136.224609375 72.44921875 c 2
 45.408203125 72.44921875 l 2
 20.251953125 72.44921875 0 92.701171875 0 117.856445312 c 2
 0 145.1015625 l 2
 0 170.2578125 20.251953125 190.509765625 45.408203125 190.509765625 c 2
45.408203125 54.28515625 m 2
 136.224609375 54.28515625 l 2
 161.379882812 54.28515625 181.631835938 34.033203125 181.631835938 8.8779296875 c 2
 181.631835938 -18.3671875 l 2
 181.631835938 -43.5234375 161.379882812 -63.775390625 136.224609375 -63.775390625 c 2
 45.408203125 -63.775390625 l 2
 20.251953125 -63.775390625 0 -43.5234375 0 -18.3671875 c 2
 0 8.8779296875 l 2
 0 34.033203125 20.251953125 54.28515625 45.408203125 54.28515625 c 2
45.408203125 -81.9384765625 m 2
 136.224609375 -81.9384765625 l 2
 161.379882812 -81.9384765625 181.631835938 -102.190429688 181.631835938 -127.346679688 c 2
 181.631835938 -154.591796875 l 2
 181.631835938 -179.748046875 161.379882812 -200 136.224609375 -200 c 2
 45.408203125 -200 l 2
 20.251953125 -200 0 -179.748046875 0 -154.591796875 c 2
 0 -127.346679688 l 2
 0 -102.190429688 20.251953125 -81.9384765625 45.408203125 -81.9384765625 c 2
EndSplineSet
EndChar

StartChar: m
Encoding: 109 109 48
Width: 969
Flags: HW
LayerCount: 2
Fore
SplineSet
45.408203125 326.733398438 m 2
 699.284179688 326.733398438 l 2
 724.440429688 326.733398438 744.692382812 306.481445312 744.692382812 281.325195312 c 2
 744.692382812 254.080078125 l 2
 744.692382812 228.924804688 724.440429688 208.672851562 699.284179688 208.672851562 c 2
 45.408203125 208.672851562 l 2
 20.251953125 208.672851562 0 228.924804688 0 254.080078125 c 2
 0 281.325195312 l 2
 0 306.481445312 20.251953125 326.733398438 45.408203125 326.733398438 c 2
45.408203125 190.508789062 m 2
 136.224609375 190.508789062 l 2
 161.379882812 190.508789062 181.6328125 170.256835938 181.6328125 145.100585938 c 2
 181.6328125 117.856445312 l 2
 181.6328125 92.7001953125 161.379882812 72.4482421875 136.224609375 72.4482421875 c 2
 45.408203125 72.4482421875 l 2
 20.251953125 72.4482421875 0 92.7001953125 0 117.856445312 c 2
 0 145.100585938 l 2
 0 170.256835938 20.251953125 190.508789062 45.408203125 190.508789062 c 2
372.346679688 190.508789062 m 2
 463.162109375 190.508789062 l 2
 488.318359375 190.508789062 508.5703125 170.256835938 508.5703125 145.100585938 c 2
 508.5703125 117.856445312 l 2
 508.5703125 92.7001953125 488.318359375 72.4482421875 463.162109375 72.4482421875 c 2
 372.346679688 72.4482421875 l 2
 347.190429688 72.4482421875 326.938476562 92.7001953125 326.938476562 117.856445312 c 2
 326.938476562 145.100585938 l 2
 326.938476562 170.256835938 347.190429688 190.508789062 372.346679688 190.508789062 c 2
699.284179688 190.508789062 m 2
 790.100585938 190.508789062 l 2
 815.256835938 190.508789062 835.508789062 170.256835938 835.508789062 145.100585938 c 2
 835.508789062 117.856445312 l 2
 835.508789062 92.7001953125 815.256835938 72.4482421875 790.100585938 72.4482421875 c 2
 699.284179688 72.4482421875 l 2
 674.12890625 72.4482421875 653.875976562 92.7001953125 653.875976562 117.856445312 c 2
 653.875976562 145.100585938 l 2
 653.875976562 170.256835938 674.12890625 190.508789062 699.284179688 190.508789062 c 2
45.408203125 54.28515625 m 2
 136.224609375 54.28515625 l 2
 161.379882812 54.28515625 181.6328125 34.033203125 181.6328125 8.876953125 c 2
 181.6328125 -18.3681640625 l 2
 181.6328125 -43.5244140625 161.379882812 -63.7763671875 136.224609375 -63.7763671875 c 2
 45.408203125 -63.7763671875 l 2
 20.251953125 -63.7763671875 0 -43.5244140625 0 -18.3681640625 c 2
 0 8.876953125 l 2
 0 34.033203125 20.251953125 54.28515625 45.408203125 54.28515625 c 2
372.346679688 54.28515625 m 2
 463.162109375 54.28515625 l 2
 488.318359375 54.28515625 508.5703125 34.033203125 508.5703125 8.876953125 c 2
 508.5703125 -18.3681640625 l 2
 508.5703125 -43.5244140625 488.318359375 -63.7763671875 463.162109375 -63.7763671875 c 2
 372.346679688 -63.7763671875 l 2
 347.190429688 -63.7763671875 326.938476562 -43.5244140625 326.938476562 -18.3681640625 c 2
 326.938476562 8.876953125 l 2
 326.938476562 34.033203125 347.190429688 54.28515625 372.346679688 54.28515625 c 2
699.284179688 54.28515625 m 2
 790.100585938 54.28515625 l 2
 815.256835938 54.28515625 835.508789062 34.033203125 835.508789062 8.876953125 c 2
 835.508789062 -18.3681640625 l 2
 835.508789062 -43.5244140625 815.256835938 -63.7763671875 790.100585938 -63.7763671875 c 2
 699.284179688 -63.7763671875 l 2
 674.12890625 -63.7763671875 653.875976562 -43.5244140625 653.875976562 -18.3681640625 c 2
 653.875976562 8.876953125 l 2
 653.875976562 34.033203125 674.12890625 54.28515625 699.284179688 54.28515625 c 2
45.408203125 -81.939453125 m 2
 136.224609375 -81.939453125 l 2
 161.379882812 -81.939453125 181.6328125 -102.19140625 181.6328125 -127.34765625 c 2
 181.6328125 -154.592773438 l 2
 181.6328125 -179.748046875 161.379882812 -200 136.224609375 -200 c 2
 45.408203125 -200 l 2
 20.251953125 -200 0 -179.748046875 0 -154.592773438 c 2
 0 -127.34765625 l 2
 0 -102.19140625 20.251953125 -81.939453125 45.408203125 -81.939453125 c 2
372.346679688 -81.939453125 m 2
 463.162109375 -81.939453125 l 2
 488.318359375 -81.939453125 508.5703125 -102.19140625 508.5703125 -127.34765625 c 2
 508.5703125 -154.592773438 l 2
 508.5703125 -179.748046875 488.318359375 -200 463.162109375 -200 c 2
 372.346679688 -200 l 2
 347.190429688 -200 326.938476562 -179.748046875 326.938476562 -154.592773438 c 2
 326.938476562 -127.34765625 l 2
 326.938476562 -102.19140625 347.190429688 -81.939453125 372.346679688 -81.939453125 c 2
699.284179688 -81.939453125 m 2
 790.100585938 -81.939453125 l 2
 815.256835938 -81.939453125 835.508789062 -102.19140625 835.508789062 -127.34765625 c 2
 835.508789062 -154.592773438 l 2
 835.508789062 -179.748046875 815.256835938 -200 790.100585938 -200 c 2
 699.284179688 -200 l 2
 674.12890625 -200 653.875976562 -179.748046875 653.875976562 -154.592773438 c 2
 653.875976562 -127.34765625 l 2
 653.875976562 -102.19140625 674.12890625 -81.939453125 699.284179688 -81.939453125 c 2
EndSplineSet
EndChar

StartChar: n
Encoding: 110 110 49
Width: 622
Flags: HW
LayerCount: 2
Fore
SplineSet
45.408203125 328.733398438 m 2
 363.264648438 328.733398438 l 2
 388.420898438 328.733398438 408.672851562 308.481445312 408.672851562 283.325195312 c 2
 408.672851562 256.080078125 l 2
 408.672851562 230.924804688 388.420898438 210.672851562 363.264648438 210.672851562 c 2
 45.408203125 210.672851562 l 2
 20.251953125 210.672851562 0 230.924804688 0 256.080078125 c 2
 0 283.325195312 l 2
 0 308.481445312 20.251953125 328.733398438 45.408203125 328.733398438 c 2
45.408203125 192.508789062 m 2
 136.224609375 192.508789062 l 2
 161.379882812 192.508789062 181.6328125 172.256835938 181.6328125 147.100585938 c 2
 181.6328125 119.856445312 l 2
 181.6328125 94.7001953125 161.379882812 74.4482421875 136.224609375 74.4482421875 c 2
 45.408203125 74.4482421875 l 2
 20.251953125 74.4482421875 0 94.7001953125 0 119.856445312 c 2
 0 147.100585938 l 2
 0 172.256835938 20.251953125 192.508789062 45.408203125 192.508789062 c 2
372.346679688 192.508789062 m 2
 463.162109375 192.508789062 l 2
 488.318359375 192.508789062 508.5703125 172.256835938 508.5703125 147.100585938 c 2
 508.5703125 119.856445312 l 2
 508.5703125 94.7001953125 488.318359375 74.4482421875 463.162109375 74.4482421875 c 2
 372.346679688 74.4482421875 l 2
 347.190429688 74.4482421875 326.938476562 94.7001953125 326.938476562 119.856445312 c 2
 326.938476562 147.100585938 l 2
 326.938476562 172.256835938 347.190429688 192.508789062 372.346679688 192.508789062 c 2
45.408203125 56.28515625 m 2
 136.224609375 56.28515625 l 2
 161.379882812 56.28515625 181.6328125 36.033203125 181.6328125 10.876953125 c 2
 181.6328125 -16.3681640625 l 2
 181.6328125 -41.5244140625 161.379882812 -61.7763671875 136.224609375 -61.7763671875 c 2
 45.408203125 -61.7763671875 l 2
 20.251953125 -61.7763671875 0 -41.5244140625 0 -16.3681640625 c 2
 0 10.876953125 l 2
 0 36.033203125 20.251953125 56.28515625 45.408203125 56.28515625 c 2
372.346679688 56.28515625 m 2
 463.162109375 56.28515625 l 2
 488.318359375 56.28515625 508.5703125 36.033203125 508.5703125 10.876953125 c 2
 508.5703125 -16.3681640625 l 2
 508.5703125 -41.5244140625 488.318359375 -61.7763671875 463.162109375 -61.7763671875 c 2
 372.346679688 -61.7763671875 l 2
 347.190429688 -61.7763671875 326.938476562 -41.5244140625 326.938476562 -16.3681640625 c 2
 326.938476562 10.876953125 l 2
 326.938476562 36.033203125 347.190429688 56.28515625 372.346679688 56.28515625 c 2
45.408203125 -79.939453125 m 2
 136.224609375 -79.939453125 l 2
 161.379882812 -79.939453125 181.6328125 -100.19140625 181.6328125 -125.34765625 c 2
 181.6328125 -152.592773438 l 2
 181.6328125 -177.748046875 161.379882812 -198 136.224609375 -198 c 2
 45.408203125 -198 l 2
 20.251953125 -198 0 -177.748046875 0 -152.592773438 c 2
 0 -125.34765625 l 2
 0 -100.19140625 20.251953125 -79.939453125 45.408203125 -79.939453125 c 2
372.346679688 -79.939453125 m 2
 463.162109375 -79.939453125 l 2
 488.318359375 -79.939453125 508.5703125 -100.19140625 508.5703125 -125.34765625 c 2
 508.5703125 -152.592773438 l 2
 508.5703125 -177.748046875 488.318359375 -198 463.162109375 -198 c 2
 372.346679688 -198 l 2
 347.190429688 -198 326.938476562 -177.748046875 326.938476562 -152.592773438 c 2
 326.938476562 -125.34765625 l 2
 326.938476562 -100.19140625 347.190429688 -79.939453125 372.346679688 -79.939453125 c 2
EndSplineSet
EndChar

